<?xml version="1.0" standalone="no"?>
<!DOCTYPE svg PUBLIC "-//W3C//DTD SVG 1.1//EN" "http://www.w3.org/Graphics/SVG/1.1/DTD/svg11.dtd" >
<svg xmlns="http://www.w3.org/2000/svg" xmlns:xlink="http://www.w3.org/1999/xlink" version="1.1">
<metadata>
Created by FontForge 20170924 at Fri Jun 10 12:11:13 2016
 By www-data
Copyright (c) 2008 by NORM, Dimitri Bruni + Manuel Krebs. All rights reserved.
</metadata>
<defs>
<font id="DellReplica-Regular" horiz-adv-x="580" >
  <font-face 
    font-family="Dell Replica"
    font-weight="400"
    font-stretch="normal"
    units-per-em="1000"
    panose-1="2 11 5 4 2 1 1 2 1 2"
    ascent="780"
    descent="-220"
    x-height="500"
    cap-height="700"
    bbox="-50 -220 1560 900"
    underline-thickness="20"
    underline-position="-150"
    stemh="90"
    stemv="100"
    unicode-range="U+000D-FB04"
  />
<missing-glyph horiz-adv-x="660" 
d="M580 10l-10 -10h-480l-10 10v680l10 10h480l10 -10v-680zM110 660v-620l10 -10h420l10 10v620l-10 10h-420z" />
    <glyph glyph-name="f_i" unicode="fi" horiz-adv-x="590" 
d="M530 590l-10 -10h-80l-10 10v80l10 10h80l10 -10v-80zM530 10l-10 -10h-80l-10 10v390l-10 10h-190l-10 -10v-390l-10 -10h-80l-10 10v390l-10 10h-70l-10 10v70l10 10h70l10 10v40c0 90 70 130 140 130h80l10 -10v-70l-10 -10h-80c-20 0 -40 -10 -40 -40v-40l10 -10h290
l10 -10v-480z" />
    <glyph glyph-name="f_l" unicode="fl" horiz-adv-x="590" 
d="M530 10l-10 -10h-80l-10 10v390l-10 10h-190l-10 -10v-390l-10 -10h-80l-10 10v390l-10 10h-70l-10 10v70l10 10h70l10 10v40c0 90 70 130 140 130h80l10 -10v-70l-10 -10h-80c-20 0 -40 -10 -40 -40v-40l10 -10h190l10 10v180l10 10h80l10 -10v-680z" />
    <glyph glyph-name="f_f" unicode="ff" horiz-adv-x="680" 
d="M650 420l-10 -10h-100l-10 -10v-390l-10 -10h-80l-10 10v390l-10 10h-190l-10 -10v-390l-10 -10h-80l-10 10v390l-10 10h-70l-10 10v70l10 10h70l10 10v40c0 90 70 130 140 130h80l10 -10v-70l-10 -10h-80c-20 0 -40 -10 -40 -40v-40l10 -10h190l10 10v40
c0 90 70 130 140 130h80l10 -10v-70l-10 -10h-80c-20 0 -40 -10 -40 -40v-40l10 -10h100l10 -10v-70z" />
    <glyph glyph-name="f_f_i" unicode="ffi" horiz-adv-x="900" 
d="M840 10l-10 -10h-80l-10 10v390l-10 10h-190l-10 -10v-390l-10 -10h-80l-10 10v390l-10 10h-190l-10 -10v-390l-10 -10h-80l-10 10v390l-10 10h-70l-10 10v70l10 10h70l10 10v40c0 90 70 130 140 130h80l10 -10v-70l-10 -10h-80c-20 0 -40 -10 -40 -40v-40l10 -10h190
l10 10v40c0 90 70 130 140 130h80l10 -10v-70l-10 -10h-80c-20 0 -40 -10 -40 -40v-40l10 -10h290l10 -10v-480zM840 590l-10 -10h-80l-10 10v80l10 10h80l10 -10v-80z" />
    <glyph glyph-name="f_f_l" unicode="ffl" horiz-adv-x="900" 
d="M840 10l-10 -10h-80l-10 10v390l-10 10h-190l-10 -10v-390l-10 -10h-80l-10 10v390l-10 10h-190l-10 -10v-390l-10 -10h-80l-10 10v390l-10 10h-70l-10 10v70l10 10h70l10 10v40c0 90 70 130 140 130h80l10 -10v-70l-10 -10h-80c-20 0 -40 -10 -40 -40v-40l10 -10h190
l10 10v40c0 90 70 130 140 130h80l10 -10v-70l-10 -10h-80c-20 0 -40 -10 -40 -40v-40l10 -10h190l10 10v180l10 10h80l10 -10v-680z" />
    <glyph glyph-name=".notdef" horiz-adv-x="660" 
d="M580 10l-10 -10h-480l-10 10v680l10 10h480l10 -10v-680zM110 660v-620l10 -10h420l10 10v620l-10 10h-420z" />
    <glyph glyph-name=".null" horiz-adv-x="0" 
 />
    <glyph glyph-name=".null" horiz-adv-x="0" 
 />
    <glyph glyph-name="uni000D" unicode="&#xd;" horiz-adv-x="0" 
 />
    <glyph glyph-name="space" unicode=" " horiz-adv-x="260" 
 />
    <glyph glyph-name="exclam" unicode="!" horiz-adv-x="360" 
d="M230 440l-20 -230l-10 -10h-40l-10 10l-20 230v250l10 10h80l10 -10v-250zM240 10l-10 -10h-100l-10 10v100l10 10h100l10 -10v-100z" />
    <glyph glyph-name="quotedbl" unicode="&#x22;" horiz-adv-x="460" 
d="M380 400l-10 -10h-80l-10 10v290l10 10h80l10 -10v-290zM180 400l-10 -10h-80l-10 10v290l10 10h80l10 -10v-290z" />
    <glyph glyph-name="numbersign" unicode="#" horiz-adv-x="650" 
d="M320 80l30 110l-10 10h-120l-10 -10l-50 -180l-10 -10h-50l-10 10v70l30 110l-10 10h-70l-10 10v60l10 10h100l10 10l30 120l-10 10h-80l-10 10v60l10 10h110l10 10l50 180l10 10h50l10 -10v-70l-30 -110l10 -10h120l10 10l50 180l10 10h50l10 -10v-70l-30 -110l10 -10
h70l10 -10v-60l-10 -10h-100l-10 -10l-30 -120l10 -10h80l10 -10v-60l-10 -10h-110l-10 -10l-50 -180l-10 -10h-50l-10 10v70zM250 280h120l10 10l30 120l-10 10h-120l-10 -10l-30 -120z" />
    <glyph glyph-name="dollar" unicode="$" horiz-adv-x="600" 
d="M340 -80l-10 -10h-60l-10 10v60l-10 10c-150 20 -210 100 -210 230l10 10h80l10 -10c0 -70 20 -130 110 -140l10 10v220l-10 10c-130 30 -200 90 -200 200c0 90 50 170 200 190l10 10v60l10 10h60l10 -10v-60l10 -10c120 -10 190 -100 190 -210l-10 -10h-80l-10 10
c0 60 -30 110 -90 120l-10 -10v-200l10 -10c100 -20 210 -70 210 -210c0 -70 -40 -180 -210 -200l-10 -10v-60zM460 190c0 70 -50 100 -110 110l-10 -10v-200l10 -10c70 10 110 50 110 110zM150 520c0 -60 40 -90 100 -100l10 10v180l-10 10c-80 -10 -100 -60 -100 -100z
" />
    <glyph glyph-name="percent" unicode="%" horiz-adv-x="900" 
d="M210 330c-120 0 -170 80 -170 190s50 190 170 190s170 -80 170 -190s-50 -190 -170 -190zM130 520c0 -70 20 -110 80 -110s80 40 80 110s-20 110 -80 110s-80 -40 -80 -110zM680 620l-400 -610l-10 -10h-40l-10 10v70l400 610l10 10h40l10 -10v-70zM690 -10
c-120 0 -170 80 -170 190s50 190 170 190s170 -80 170 -190s-50 -190 -170 -190zM610 180c0 -70 20 -110 80 -110s80 40 80 110s-20 110 -80 110s-80 -40 -80 -110z" />
    <glyph glyph-name="ampersand" unicode="&#x26;" horiz-adv-x="750" 
d="M690 10l-10 -10h-40l-20 10l-60 60h-10c-60 -50 -120 -80 -230 -80c-160 0 -240 90 -240 210c0 110 60 160 140 200v10c-30 30 -60 70 -60 140s50 160 180 160s170 -80 170 -150c0 -90 -60 -140 -120 -170v-10l150 -150h10c30 40 30 80 30 160l10 10h80l10 -10
c0 -80 0 -140 -60 -230v-10l70 -70v-70zM410 550c0 30 -10 70 -70 70s-80 -40 -80 -70c0 -40 20 -60 60 -100h10c40 20 80 50 80 100zM480 140v10l-190 190h-10c-80 -40 -100 -80 -100 -140c0 -80 60 -120 140 -120c70 0 120 20 160 60z" />
    <glyph glyph-name="quotesingle" unicode="'" horiz-adv-x="260" 
d="M180 400l-10 -10h-80l-10 10v290l10 10h80l10 -10v-290z" />
    <glyph glyph-name="parenleft" unicode="(" horiz-adv-x="420" 
d="M340 -190l-10 -10h-20l-20 10c-200 200 -210 210 -210 440s10 240 210 440l20 10h20l10 -10v-70c-150 -150 -160 -160 -160 -370s10 -220 160 -370v-70z" />
    <glyph glyph-name="parenright" unicode=")" horiz-adv-x="420" 
d="M90 -200l-10 10v70c150 150 160 160 160 370s-10 220 -160 370v70l10 10h20l20 -10c200 -200 210 -210 210 -440s-10 -240 -210 -440l-20 -10h-20z" />
    <glyph glyph-name="asterisk" unicode="*" horiz-adv-x="590" 
d="M300 270h-10l-10 10v160h-10l-110 -110h-10l-10 10v10l110 110v10h-160l-10 10v10l10 10h160v10l-110 110v10l10 10h10l110 -110h10v160l10 10h10l10 -10v-160h10l110 110h10l10 -10v-10l-110 -110v-10h160l10 -10v-10l-10 -10h-160v-10l110 -110v-10l-10 -10h-10
l-110 110h-10v-160z" />
    <glyph glyph-name="plus" unicode="+" horiz-adv-x="590" 
d="M530 220l-10 -10h-170l-10 -10v-170l-10 -10h-70l-10 10v170l-10 10h-170l-10 10v70l10 10h170l10 10v170l10 10h70l10 -10v-170l10 -10h170l10 -10v-70z" />
    <glyph glyph-name="comma" unicode="," horiz-adv-x="280" 
d="M200 0l-10 -30l-60 -80l-20 -10h-40v10l60 90v10l-10 10h-30l-10 10v100l10 10h100l10 -10v-110z" />
    <glyph glyph-name="hyphen" unicode="-" horiz-adv-x="410" 
d="M350 220l-10 -10h-270l-10 10v70l10 10h270l10 -10v-70z" />
    <glyph glyph-name="period" unicode="." horiz-adv-x="280" 
d="M200 10l-10 -10h-100l-10 10v100l10 10h100l10 -10v-100z" />
    <glyph glyph-name="slash" unicode="/" horiz-adv-x="510" 
d="M470 620l-360 -610l-10 -10h-50l-10 10v70l360 610l10 10h50l10 -10v-70z" />
    <glyph glyph-name="zero" unicode="0" 
d="M40 350c0 270 110 360 250 360s250 -90 250 -360s-110 -360 -250 -360s-250 90 -250 360zM140 350c0 -200 60 -270 150 -270s150 70 150 270s-60 270 -150 270s-150 -70 -150 -270z" />
    <glyph glyph-name="one" unicode="1" horiz-adv-x="380" 
d="M290 0h-80l-10 10v560h-10l-120 -120h-20l-10 10v80l150 150l20 10h80l10 -10v-680z" />
    <glyph glyph-name="two" unicode="2" horiz-adv-x="550" 
d="M510 10l-10 -10h-450l-10 10v80l10 20l200 160c100 80 140 130 140 220c0 70 -30 130 -120 130s-130 -50 -130 -130l-10 -10h-80l-10 10c0 130 80 220 230 220c160 0 220 -110 220 -210c0 -130 -60 -200 -160 -280l-150 -120v-10h320l10 -10v-70z" />
    <glyph glyph-name="three" unicode="3" horiz-adv-x="550" 
d="M510 230c0 -150 -100 -240 -250 -240c-140 0 -230 90 -230 200l10 10h80l10 -10c0 -50 40 -110 130 -110c100 0 150 60 150 150s-50 140 -130 140c-50 0 -80 -30 -80 -30h-30l-10 10v70l190 180v10h-280l-10 10v70l10 10h390l10 -10v-80l-10 -20l-150 -140v-10
c6 1 13 1 20 1c79 0 180 -55 180 -211z" />
    <glyph glyph-name="four" unicode="4" horiz-adv-x="550" 
d="M470 10l-10 -10h-80l-10 10v180l-10 10h-330l-10 10v80l10 20l320 380l20 10h90l10 -10v-680zM370 300v270h-10l-230 -270v-10h230z" />
    <glyph glyph-name="five" unicode="5" 
d="M530 250c0 -180 -90 -260 -240 -260s-220 80 -230 200l10 10h80l10 -10c10 -60 30 -110 130 -110s140 60 140 160c0 90 -30 150 -130 150s-130 -80 -130 -80l-20 -10l-70 10l-10 10l20 370l10 10h390l10 -10v-70l-10 -10h-300l-10 -10l-10 -180h10s40 60 140 60
c150 0 210 -110 210 -230z" />
    <glyph glyph-name="six" unicode="6" horiz-adv-x="570" 
d="M50 340c0 280 100 370 260 370c120 0 200 -60 210 -170l-10 -10h-80l-10 10c-10 60 -50 80 -120 80c-140 0 -140 -160 -140 -210h10s40 50 140 50c140 0 220 -90 220 -230c0 -150 -90 -240 -230 -240c-150 0 -250 80 -250 350zM430 220c0 90 -30 150 -130 150
c-90 0 -140 -50 -140 -140c0 -100 60 -150 130 -150c90 0 140 50 140 140z" />
    <glyph glyph-name="seven" unicode="7" horiz-adv-x="510" 
d="M480 610l-290 -600l-10 -10h-50l-10 10v80l250 510v10h-320l-10 10v70l10 10h420l10 -10v-80z" />
    <glyph glyph-name="eight" unicode="8" horiz-adv-x="560" 
d="M520 200c0 -110 -80 -210 -240 -210s-240 100 -240 210c0 100 60 150 100 170v10c-30 20 -80 60 -80 140c0 100 70 190 220 190s220 -90 220 -190c0 -80 -50 -120 -80 -140v-10c40 -20 100 -70 100 -170zM400 520c0 50 -30 100 -120 100s-120 -50 -120 -100
c0 -60 40 -110 120 -110s120 50 120 110zM420 200c0 70 -40 130 -140 130s-140 -60 -140 -130c0 -60 40 -120 140 -120s140 60 140 120z" />
    <glyph glyph-name="nine" unicode="9" horiz-adv-x="570" 
d="M520 370c0 -280 -90 -380 -260 -380c-110 0 -190 60 -200 170l10 10h80l10 -10c10 -60 50 -80 110 -80c140 0 140 160 140 220h-10s-40 -50 -140 -50c-130 0 -220 90 -220 230c0 150 100 230 230 230c160 0 250 -80 250 -340zM140 480c0 -90 50 -140 130 -140
c90 0 140 50 140 140c0 100 -60 140 -140 140s-130 -50 -130 -140z" />
    <glyph glyph-name="colon" unicode=":" horiz-adv-x="280" 
d="M200 390l-10 -10h-100l-10 10v100l10 10h100l10 -10v-100zM200 10l-10 -10h-100l-10 10v100l10 10h100l10 -10v-100z" />
    <glyph glyph-name="semicolon" unicode=";" horiz-adv-x="280" 
d="M200 390l-10 -10h-100l-10 10v100l10 10h100l10 -10v-100zM200 0l-10 -30l-60 -80l-20 -10h-40v10l60 90v10l-10 10h-30l-10 10v100l10 10h100l10 -10v-110z" />
    <glyph glyph-name="less" unicode="&#x3c;" 
d="M70 280l10 20l390 200h20l10 -10v-60l-10 -20l-310 -150v-20l310 -150l10 -20v-60l-10 -10h-20l-390 200l-10 20v60z" />
    <glyph glyph-name="equal" unicode="=" horiz-adv-x="600" 
d="M520 310l-10 -10h-420l-10 10v70l10 10h420l10 -10v-70zM520 120l-10 -10h-420l-10 10v70l10 10h420l10 -10v-70z" />
    <glyph glyph-name="greater" unicode="&#x3e;" 
d="M500 300l10 -20v-60l-10 -20l-390 -200h-20l-10 10v60l10 20l310 150v20l-310 150l-10 20v60l10 10h20z" />
    <glyph glyph-name="question" unicode="?" horiz-adv-x="600" 
d="M520 520c0 -100 -40 -140 -100 -190s-80 -70 -80 -130l-10 -10h-80l-10 10c0 80 20 120 80 170s100 80 100 150c0 50 -30 100 -120 100s-120 -50 -120 -130l-10 -10h-80l-10 10c0 130 70 220 220 220c130 0 220 -70 220 -190zM350 10l-10 -10h-100l-10 10v100l10 10h100
l10 -10v-100z" />
    <glyph glyph-name="at" unicode="@" horiz-adv-x="920" 
d="M460 380c-60 0 -100 -30 -100 -130s40 -130 100 -130s90 30 90 130s-30 130 -90 130zM550 430v20l10 10h80l10 -10v-290c0 -50 20 -60 50 -60c50 0 60 50 60 150c0 170 -90 320 -300 320c-200 0 -300 -150 -300 -320c0 -180 100 -320 300 -320c70 0 130 20 160 40h20
l10 -10v-70c-40 -30 -110 -50 -190 -50c-240 0 -400 170 -400 410s160 410 400 410s400 -170 400 -410c0 -160 -70 -230 -170 -230c-60 0 -90 30 -110 60h-10c-20 -20 -50 -50 -120 -50c-100 0 -190 70 -190 220s90 220 180 220c70 0 100 -40 100 -40h10z" />
    <glyph glyph-name="A" unicode="A" horiz-adv-x="630" 
d="M610 10l-10 -10h-60l-10 10l-60 150l-20 10h-270l-20 -10l-60 -150l-10 -10h-60l-10 10v70l240 610l10 10h90l10 -10l240 -610v-70zM430 270l-110 280h-10l-110 -280l10 -10h210z" />
    <glyph glyph-name="B" unicode="B" horiz-adv-x="640" 
d="M600 200c0 -150 -100 -200 -210 -200h-300l-10 10v680l10 10h280c110 0 210 -50 210 -190c0 -70 -40 -120 -90 -140v-10c60 -20 110 -70 110 -160zM480 510c0 80 -40 100 -130 100h-160l-10 -10v-180l10 -10h170c80 0 120 20 120 100zM500 200c0 90 -40 120 -140 120
h-170l-10 -10v-210l10 -10h190c80 0 120 30 120 110z" />
    <glyph glyph-name="C" unicode="C" horiz-adv-x="690" 
d="M370 -10c-210 0 -330 150 -330 360s120 360 330 360c160 0 260 -90 280 -210l-10 -10h-80l-10 10c-20 70 -80 120 -180 120c-150 0 -230 -110 -230 -270s80 -270 230 -270c110 0 160 60 180 130l10 10h80l10 -10c-20 -120 -110 -220 -280 -220z" />
    <glyph glyph-name="D" unicode="D" horiz-adv-x="670" 
d="M630 350c0 -210 -80 -350 -330 -350h-210l-10 10v680l10 10h210c250 0 330 -140 330 -350zM530 350c0 170 -50 260 -240 260h-100l-10 -10v-500l10 -10h100c190 0 240 90 240 260z" />
    <glyph glyph-name="E" unicode="E" horiz-adv-x="610" 
d="M550 10l-10 -10h-450l-10 10v680l10 10h450l10 -10v-70l-10 -10h-350l-10 -10v-190l10 -10h330l10 -10v-70l-10 -10h-330l-10 -10v-200l10 -10h350l10 -10v-70z" />
    <glyph glyph-name="F" unicode="F" horiz-adv-x="570" 
d="M530 620l-10 -10h-330l-10 -10v-200l10 -10h310l10 -10v-70l-10 -10h-310l-10 -10v-280l-10 -10h-80l-10 10v680l10 10h430l10 -10v-70z" />
    <glyph glyph-name="G" unicode="G" horiz-adv-x="720" 
d="M370 620c-150 0 -230 -110 -230 -270s80 -270 220 -270c150 0 200 90 200 190l-10 10h-200l-10 10v70l10 10h300l10 -10v-350l-10 -10h-60l-10 10l-10 60h-10c-50 -50 -110 -80 -200 -80c-200 0 -320 150 -320 360s120 360 330 360c190 0 270 -110 290 -210l-10 -10h-80
l-10 10c-20 70 -80 120 -190 120z" />
    <glyph glyph-name="H" unicode="H" horiz-adv-x="710" 
d="M630 10l-10 -10h-80l-10 10v290l-10 10h-330l-10 -10v-290l-10 -10h-80l-10 10v680l10 10h80l10 -10v-280l10 -10h330l10 10v280l10 10h80l10 -10v-680z" />
    <glyph glyph-name="I" unicode="I" horiz-adv-x="260" 
d="M180 10l-10 -10h-80l-10 10v680l10 10h80l10 -10v-680z" />
    <glyph glyph-name="J" unicode="J" horiz-adv-x="510" 
d="M430 190c0 -110 -60 -200 -210 -200c-170 0 -200 120 -200 190v20l10 10h80l10 -10v-20c0 -40 10 -100 100 -100c70 0 110 30 110 110v500l10 10h80l10 -10v-500z" />
    <glyph glyph-name="K" unicode="K" horiz-adv-x="620" 
d="M600 10l-10 -10h-40l-20 10l-240 310h-10l-90 -90l-10 -20v-200l-10 -10h-80l-10 10v680l10 10h80l10 -10v-330h10l330 330l20 10h30l10 -10v-70l-220 -220v-10l240 -310v-70z" />
    <glyph glyph-name="L" unicode="L" horiz-adv-x="540" 
d="M530 10l-10 -10h-430l-10 10v680l10 10h80l10 -10v-590l10 -10h330l10 -10v-70z" />
    <glyph glyph-name="M" unicode="M" horiz-adv-x="890" 
d="M810 10l-10 -10h-80l-10 10v480h-10l-200 -480l-10 -10h-90l-10 10l-200 480h-10v-480l-10 -10h-80l-10 10v680l10 10h110l10 -10l230 -560h10l230 560l10 10h110l10 -10v-680z" />
    <glyph glyph-name="N" unicode="N" horiz-adv-x="730" 
d="M650 10l-10 -10h-90l-20 10l-340 520h-10v-520l-10 -10h-80l-10 10v680l10 10h90l20 -10l340 -520h10v520l10 10h80l10 -10v-680z" />
    <glyph glyph-name="O" unicode="O" horiz-adv-x="740" 
d="M40 350c0 210 120 360 330 360s330 -150 330 -360s-120 -360 -330 -360s-330 150 -330 360zM140 350c0 -160 80 -270 230 -270s230 110 230 270s-80 270 -230 270s-230 -110 -230 -270z" />
    <glyph glyph-name="P" unicode="P" horiz-adv-x="650" 
d="M630 500c0 -140 -100 -200 -230 -200h-210l-10 -10v-280l-10 -10h-80l-10 10v680l10 10h310c140 0 230 -60 230 -200zM530 500c0 80 -40 110 -130 110h-210l-10 -10v-200l10 -10h210c90 0 130 30 130 110z" />
    <glyph glyph-name="Q" unicode="Q" horiz-adv-x="740" 
d="M370 -10c-210 0 -330 150 -330 360s120 360 330 360s330 -150 330 -360c0 -110 -20 -170 -60 -230v-10l30 -30v-70l-10 -10h-50l-40 40h-10c-50 -30 -120 -50 -190 -50zM370 80c50 0 90 10 120 30v10l-70 70l-20 10h-80l-10 10v60l10 10h140l20 -10l80 -80h10
c20 40 30 90 30 160c0 160 -80 270 -230 270s-230 -110 -230 -270s80 -270 230 -270z" />
    <glyph glyph-name="R" unicode="R" horiz-adv-x="670" 
d="M530 500c0 80 -40 110 -130 110h-210l-10 -10v-200l10 -10h210c90 0 130 30 130 110zM630 500c0 -110 -60 -170 -150 -190v-10l140 -220v-70l-10 -10h-40l-20 10l-180 280l-20 10h-160l-10 -10v-280l-10 -10h-80l-10 10v680l10 10h310c140 0 230 -60 230 -200z" />
    <glyph glyph-name="S" unicode="S" horiz-adv-x="630" 
d="M590 190c0 -110 -80 -200 -270 -200c-170 0 -280 80 -280 230l10 10h80l10 -10c0 -100 70 -140 190 -140c90 0 160 30 160 110c0 90 -60 110 -200 130s-230 80 -230 200c0 90 70 190 250 190c150 0 260 -60 260 -210l-10 -10h-80l-10 10c0 80 -40 120 -170 120
c-90 0 -140 -40 -140 -100c0 -80 50 -100 190 -120s240 -70 240 -210z" />
    <glyph glyph-name="T" unicode="T" horiz-adv-x="600" 
d="M580 620l-10 -10h-210l-10 -10v-590l-10 -10h-80l-10 10v590l-10 10h-210l-10 10v70l10 10h540l10 -10v-70z" />
    <glyph glyph-name="U" unicode="U" horiz-adv-x="700" 
d="M620 690v-440c0 -160 -100 -260 -270 -260s-270 100 -270 260v440l10 10h80l10 -10v-440c0 -100 50 -170 170 -170s170 70 170 170v440l10 10h80z" />
    <glyph glyph-name="V" unicode="V" horiz-adv-x="630" 
d="M600 620l-230 -610l-10 -10h-90l-10 10l-230 610v70l10 10h60l10 -10l200 -550h10l200 550l10 10h60l10 -10v-70z" />
    <glyph glyph-name="W" unicode="W" horiz-adv-x="930" 
d="M890 620l-160 -610l-10 -10h-90l-10 10l-150 530h-10l-150 -530l-10 -10h-90l-10 10l-160 610v70l10 10h60l10 -10l130 -510h10l150 510l10 10h90l10 -10l150 -510h10l130 510l10 10h60l10 -10v-70z" />
    <glyph glyph-name="X" unicode="X" horiz-adv-x="650" 
d="M610 10l-10 -10h-40l-20 10l-210 280h-10l-210 -280l-20 -10h-40l-10 10v70l220 280v10l-210 250v70l10 10h40l20 -10l200 -250h10l200 250l20 10h40l10 -10v-70l-210 -250v-10l220 -280v-70z" />
    <glyph glyph-name="Y" unicode="Y" 
d="M550 620l-210 -340v-270l-10 -10h-80l-10 10v270l-210 340v70l10 10h40l20 -10l180 -300h20l180 300l20 10h40l10 -10v-70z" />
    <glyph glyph-name="Z" unicode="Z" horiz-adv-x="600" 
d="M550 10l-10 -10h-480l-10 10v80l10 20l350 490v10h-340l-10 10v70l10 10h450l10 -10v-80l-10 -20l-350 -490v-10h370l10 -10v-70z" />
    <glyph glyph-name="bracketleft" unicode="[" horiz-adv-x="370" 
d="M290 -190l-10 -10h-190l-10 10v880l10 10h190l10 -10v-70l-10 -10h-90l-10 -10v-700l10 -10h90l10 -10v-70z" />
    <glyph glyph-name="backslash" unicode="\" horiz-adv-x="510" 
d="M400 10l-360 610v70l10 10h50l10 -10l360 -610v-70l-10 -10h-50z" />
    <glyph glyph-name="bracketright" unicode="]" horiz-adv-x="370" 
d="M90 -200l-10 10v70l10 10h90l10 10v700l-10 10h-90l-10 10v70l10 10h190l10 -10v-880l-10 -10h-190z" />
    <glyph glyph-name="asciicircum" unicode="^" 
d="M510 240l-10 -10h-40l-20 10l-140 330h-20l-140 -330l-20 -10h-40l-10 10v70l170 380l10 10h80l10 -10l170 -380v-70z" />
    <glyph glyph-name="underscore" unicode="_" 
d="M540 -80l-10 -10h-480l-10 10v70l10 10h480l10 -10v-70z" />
    <glyph glyph-name="grave" unicode="`" horiz-adv-x="500" 
d="M290 570l-10 -10h-50l-20 10l-110 100v20l10 10h70l20 -10l90 -100v-20z" />
    <glyph glyph-name="a" unicode="a" horiz-adv-x="500" 
d="M450 10l-10 -10h-70l-10 10l-10 40h-10s-40 -60 -140 -60c-110 0 -170 60 -170 160c0 110 90 160 220 160c50 0 90 -10 90 -10l10 10v20c0 70 -30 90 -100 90s-100 -20 -100 -60l-10 -10h-80l-10 10c0 70 50 150 200 150s200 -70 200 -220v-280zM350 180v30l-10 10
s-30 10 -80 10c-90 0 -130 -30 -130 -80s30 -70 90 -70c80 0 130 40 130 100z" />
    <glyph glyph-name="b" unicode="b" horiz-adv-x="550" 
d="M520 250c0 -150 -90 -260 -220 -260c-90 0 -130 60 -130 60h-10l-10 -40l-10 -10h-70l-10 10v680l10 10h80l10 -10v-240h10s40 60 130 60c130 0 220 -100 220 -260zM420 250c0 110 -50 170 -130 170s-130 -50 -130 -170s50 -170 130 -170s130 60 130 170z" />
    <glyph glyph-name="c" unicode="c" horiz-adv-x="520" 
d="M130 250c0 -110 50 -170 140 -170c80 0 110 40 120 80l10 10h80l10 -10c-10 -90 -80 -170 -220 -170c-150 0 -240 100 -240 260s90 260 240 260c140 0 210 -80 220 -170l-10 -10h-80l-10 10c-10 40 -40 80 -120 80c-90 0 -140 -60 -140 -170z" />
    <glyph glyph-name="d" unicode="d" horiz-adv-x="550" 
d="M490 10l-10 -10h-70l-10 10l-10 40h-10s-40 -60 -130 -60c-140 0 -220 110 -220 260s80 260 220 260c90 0 130 -60 130 -60h10v240l10 10h80l10 -10v-680zM390 250c0 120 -50 170 -130 170s-130 -60 -130 -170s50 -170 130 -170s130 50 130 170z" />
    <glyph glyph-name="e" unicode="e" horiz-adv-x="520" 
d="M370 290l10 10c0 30 -10 120 -120 120s-120 -90 -120 -120l10 -10h220zM270 -10c-160 0 -240 110 -240 260c0 140 70 260 230 260s230 -120 230 -260v-30l-10 -10h-330l-10 -10c0 -20 10 -120 130 -120c40 0 80 10 100 60l10 10h80l10 -10c-10 -80 -80 -150 -200 -150z
" />
    <glyph glyph-name="f" unicode="f" horiz-adv-x="370" 
d="M340 420l-10 -10h-100l-10 -10v-390l-10 -10h-80l-10 10v390l-10 10h-70l-10 10v70l10 10h70l10 10v40c0 90 70 130 140 130h80l10 -10v-70l-10 -10h-80c-20 0 -40 -10 -40 -40v-40l10 -10h100l10 -10v-70z" />
    <glyph glyph-name="g" unicode="g" horiz-adv-x="550" 
d="M260 -120c90 0 130 60 130 170h-10s-40 -60 -130 -60c-140 0 -220 110 -220 260s80 260 220 260c90 0 130 -60 130 -60h10l10 40l10 10h70l10 -10v-430c0 -200 -110 -270 -230 -270s-190 60 -200 140l10 10h80l10 -10c20 -40 50 -50 100 -50zM390 250
c0 120 -50 170 -130 170s-130 -60 -130 -170s50 -170 130 -170s130 50 130 170z" />
    <glyph glyph-name="h" unicode="h" horiz-adv-x="550" 
d="M490 10l-10 -10h-80l-10 10v290c0 60 -20 120 -100 120s-130 -40 -130 -160v-250l-10 -10h-80l-10 10v680l10 10h80l10 -10v-240h10s40 60 130 60c150 0 190 -100 190 -210v-290z" />
    <glyph glyph-name="i" unicode="i" horiz-adv-x="220" 
d="M160 590l-10 -10h-80l-10 10v80l10 10h80l10 -10v-80zM160 10l-10 -10h-80l-10 10v480l10 10h80l10 -10v-480z" />
    <glyph glyph-name="j" unicode="j" horiz-adv-x="220" 
d="M160 590l-10 -10h-80l-10 10v80l10 10h80l10 -10v-80zM160 490v-540c0 -90 -70 -130 -140 -130h-50l-10 10v70l10 10h50c20 0 40 10 40 40v540l10 10h80z" />
    <glyph glyph-name="k" unicode="k" horiz-adv-x="500" 
d="M470 10l-10 -10h-40l-20 10l-150 190h-10l-70 -70l-10 -20v-100l-10 -10h-80l-10 10v680l10 10h80l10 -10v-430h10l230 230l20 10h30l10 -10v-70l-140 -140v-10l150 -190v-70z" />
    <glyph glyph-name="l" unicode="l" horiz-adv-x="220" 
d="M160 10l-10 -10h-80l-10 10v680l10 10h80l10 -10v-680z" />
    <glyph glyph-name="m" unicode="m" horiz-adv-x="810" 
d="M760 10l-10 -10h-80l-10 10v300c0 60 -10 110 -90 110c-70 0 -110 -50 -110 -130v-280l-10 -10h-80l-10 10v300c0 60 -10 110 -90 110c-50 0 -110 -30 -110 -130v-280l-10 -10h-80l-10 10v480l10 10h70l10 -10l10 -40h10c20 30 60 60 130 60c80 0 110 -40 130 -70h10
c30 40 80 70 150 70c140 0 170 -90 170 -200v-300z" />
    <glyph glyph-name="n" unicode="n" horiz-adv-x="540" 
d="M490 10l-10 -10h-80l-10 10v290c0 50 -10 120 -100 120s-130 -50 -130 -170v-240l-10 -10h-80l-10 10v480l10 10h70l10 -10l10 -40h10s40 60 130 60c140 0 190 -90 190 -210v-290z" />
    <glyph glyph-name="o" unicode="o" horiz-adv-x="540" 
d="M30 250c0 160 90 260 240 260s240 -100 240 -260s-90 -260 -240 -260s-240 100 -240 260zM130 250c0 -110 50 -170 140 -170s140 60 140 170s-50 170 -140 170s-140 -60 -140 -170z" />
    <glyph glyph-name="p" unicode="p" horiz-adv-x="550" 
d="M520 250c0 -150 -80 -260 -220 -260c-90 0 -130 60 -130 60h-10v-240l-10 -10h-80l-10 10v680l10 10h70l10 -10l10 -40h10s40 60 130 60c140 0 220 -110 220 -260zM420 250c0 110 -50 170 -130 170s-130 -50 -130 -170s50 -170 130 -170s130 60 130 170z" />
    <glyph glyph-name="q" unicode="q" horiz-adv-x="550" 
d="M490 -190l-10 -10h-80l-10 10v240h-10s-40 -60 -130 -60c-140 0 -220 110 -220 260s80 260 220 260c90 0 130 -60 130 -60h10l10 40l10 10h70l10 -10v-680zM390 250c0 120 -50 170 -130 170s-130 -60 -130 -170s50 -170 130 -170s130 50 130 170z" />
    <glyph glyph-name="r" unicode="r" horiz-adv-x="370" 
d="M350 420l-10 -10h-50c-80 0 -130 -30 -130 -150v-250l-10 -10h-80l-10 10v480l10 10h70l10 -10l10 -40h10c30 30 60 50 130 50h40l10 -10v-70z" />
    <glyph glyph-name="s" unicode="s" horiz-adv-x="460" 
d="M430 140c0 -80 -60 -150 -200 -150c-130 0 -200 60 -200 170l10 10h80l10 -10c0 -50 30 -80 100 -80s100 20 100 60c0 50 -30 60 -130 80s-160 60 -160 150c0 70 50 140 190 140c110 0 190 -50 190 -150l-10 -10h-80l-10 10c0 30 -20 60 -90 60c-50 0 -90 -10 -90 -50
c0 -50 40 -60 140 -80s150 -60 150 -150z" />
    <glyph glyph-name="t" unicode="t" horiz-adv-x="380" 
d="M340 10l-10 -10h-80c-70 0 -140 40 -140 130v270l-10 10h-70l-10 10v70l10 10h70l10 10v90l10 10h80l10 -10v-90l10 -10h110l10 -10v-70l-10 -10h-110l-10 -10v-270c0 -30 20 -40 40 -40h80l10 -10v-70z" />
    <glyph glyph-name="u" unicode="u" horiz-adv-x="530" 
d="M470 10l-10 -10h-70l-10 10l-10 40h-10s-40 -60 -120 -60c-140 0 -190 100 -190 210v290l10 10h80l10 -10v-290c0 -60 20 -120 100 -120c70 0 120 50 120 170v240l10 10h80l10 -10v-480z" />
    <glyph glyph-name="v" unicode="v" horiz-adv-x="510" 
d="M480 420l-170 -410l-10 -10h-90l-10 10l-170 410v70l10 10h60l10 -10l140 -350h10l140 350l10 10h60l10 -10v-70z" />
    <glyph glyph-name="w" unicode="w" horiz-adv-x="750" 
d="M710 420l-120 -410l-10 -10h-90l-10 10l-100 350h-10l-100 -350l-10 -10h-90l-10 10l-120 410v70l10 10h60l10 -10l90 -340h10l100 340l10 10h90l10 -10l100 -340h10l90 340l10 10h60l10 -10v-70z" />
    <glyph glyph-name="x" unicode="x" horiz-adv-x="490" 
d="M460 10l-10 -10h-30l-20 10l-150 170h-10l-150 -170l-20 -10h-30l-10 10v70l150 170v10l-140 160v70l10 10h30l20 -10l140 -160h10l140 160l20 10h30l10 -10v-70l-140 -160v-10l150 -170v-70z" />
    <glyph glyph-name="y" unicode="y" horiz-adv-x="510" 
d="M480 420l-160 -400c-60 -150 -100 -180 -220 -180h-20l-10 10v70l10 10h20c50 0 80 10 100 60v10l-170 420v70l10 10h60l10 -10l140 -370h10l140 370l10 10h60l10 -10v-70z" />
    <glyph glyph-name="z" unicode="z" horiz-adv-x="500" 
d="M460 10l-10 -10h-400l-10 10v80l10 20l270 290v10h-260l-10 10v70l10 10h380l10 -10v-80l-10 -20l-270 -290v-10h280l10 -10v-70z" />
    <glyph glyph-name="braceleft" unicode="{" horiz-adv-x="440" 
d="M160 -50v180c0 60 -20 80 -70 80l-10 10v60l10 10c50 0 70 20 70 80v180c0 100 70 150 150 150h40l10 -10v-70l-10 -10h-40c-30 0 -50 -20 -50 -60v-190c0 -50 -20 -90 -50 -100v-20c30 -10 50 -50 50 -100v-190c0 -40 20 -60 50 -60h40l10 -10v-70l-10 -10h-40
c-80 0 -150 50 -150 150z" />
    <glyph glyph-name="bar" unicode="|" horiz-adv-x="340" 
d="M220 -190l-10 -10h-80l-10 10v880l10 10h80l10 -10v-880z" />
    <glyph glyph-name="braceright" unicode="}" horiz-adv-x="440" 
d="M280 130v-180c0 -100 -70 -150 -150 -150h-40l-10 10v70l10 10h40c30 0 50 20 50 60v190c0 50 20 90 50 100v20c-30 10 -50 50 -50 100v190c0 40 -20 60 -50 60h-40l-10 10v70l10 10h40c80 0 150 -50 150 -150v-180c0 -60 20 -80 70 -80l10 -10v-60l-10 -10
c-50 0 -70 -20 -70 -80z" />
    <glyph glyph-name="asciitilde" unicode="~" horiz-adv-x="620" 
d="M270 210c-30 30 -50 50 -80 50c-40 0 -50 -30 -50 -80l-10 -10h-60l-10 10c0 100 40 180 150 180c70 0 110 -40 140 -70s50 -50 80 -50c40 0 50 30 50 80l10 10h60l10 -10c0 -100 -40 -180 -150 -180c-70 0 -110 40 -140 70z" />
    <glyph glyph-name="uni00A0" unicode="&#xa0;" horiz-adv-x="260" 
 />
    <glyph glyph-name="exclamdown" unicode="&#xa1;" horiz-adv-x="360" 
d="M130 100l20 190l10 10h40l10 -10l20 -190v-290l-10 -10h-80l-10 10v290zM120 490l10 10h100l10 -10v-100l-10 -10h-100l-10 10v100z" />
    <glyph glyph-name="cent" unicode="&#xa2;" horiz-adv-x="520" 
d="M130 250c0 -120 60 -160 90 -170l10 10v320l-10 10c-30 -10 -90 -50 -90 -170zM310 410v-320l10 -10c40 10 60 40 70 80l10 10h80l10 -10c-10 -110 -100 -160 -170 -170l-10 -10v-40l-10 -10h-60l-10 10v40l-10 10c-70 10 -190 70 -190 260s120 250 190 260l10 10v40
l10 10h60l10 -10v-40l10 -10c70 -10 160 -60 170 -170l-10 -10h-80l-10 10c-10 40 -30 70 -70 80z" />
    <glyph glyph-name="sterling" unicode="&#xa3;" horiz-adv-x="600" 
d="M440 290l-10 -10h-200l-10 -10v-80c0 -50 -20 -80 -40 -90v-10h380l10 -10v-70l-10 -10h-520l-10 10v70l10 10h10c50 0 70 30 70 90v90l-10 10h-60l-10 10v60l10 10h60l10 10v120c0 130 70 220 210 220s200 -80 200 -210l-10 -10h-80l-10 10c0 80 -20 120 -100 120
s-110 -50 -110 -130v-120l10 -10h200l10 -10v-60z" />
    <glyph glyph-name="currency" unicode="&#xa4;" horiz-adv-x="640" 
d="M60 250c0 60 20 110 40 140v10l-60 60v10l60 60h10l60 -60h10c30 20 80 40 140 40s110 -20 140 -40h10l60 60h10l60 -60v-10l-60 -60v-10c20 -30 40 -80 40 -140s-20 -110 -40 -140v-10l60 -60v-10l-60 -60h-10l-60 60h-10c-30 -20 -80 -40 -140 -40s-110 20 -140 40h-10
l-60 -60h-10l-60 60v10l60 60v10c-20 30 -40 80 -40 140zM160 250c0 -90 60 -170 160 -170s160 80 160 170s-60 170 -160 170s-160 -80 -160 -170z" />
    <glyph glyph-name="yen" unicode="&#xa5;" horiz-adv-x="560" 
d="M330 120v-110l-10 -10h-80l-10 10v110l-10 10h-110l-10 10v60l10 10h110l10 10v20l-20 40l-20 10h-110l-10 10v60l10 10h80v10l-120 240v70l10 10h50l20 -10l150 -320h20l150 320l20 10h50l10 -10v-70l-120 -240v-10h80l10 -10v-60l-10 -10h-110l-20 -10l-20 -40v-20
l10 -10h110l10 -10v-60l-10 -10h-110z" />
    <glyph glyph-name="brokenbar" unicode="&#xa6;" horiz-adv-x="340" 
d="M220 420l-10 -10h-80l-10 10v270l10 10h80l10 -10v-270zM220 10l-10 -10h-80l-10 10v270l10 10h80l10 -10v-270z" />
    <glyph glyph-name="section" unicode="&#xa7;" horiz-adv-x="640" 
d="M140 300c0 -130 160 -120 290 -170h10s60 10 60 90c0 100 -150 110 -290 160h-10s-60 -10 -60 -80zM520 90v-10c20 -20 50 -50 50 -110c0 -110 -70 -180 -240 -180c-160 0 -260 60 -260 210l10 10h80l10 -10c0 -80 30 -120 160 -120c100 0 140 30 140 90
c0 140 -430 60 -430 320c0 100 80 130 80 130v10c-20 20 -50 50 -50 110c0 100 80 170 250 170c150 0 250 -60 250 -210l-10 -10h-80l-10 10c0 80 -30 120 -160 120c-110 0 -140 -30 -140 -80c0 -140 430 -70 430 -320c0 -100 -80 -130 -80 -130z" />
    <glyph glyph-name="dieresis" unicode="&#xa8;" horiz-adv-x="500" 
d="M390 590l-10 -10h-80l-10 10v80l10 10h80l10 -10v-80zM210 590l-10 -10h-80l-10 10v80l10 10h80l10 -10v-80z" />
    <glyph glyph-name="copyright" unicode="&#xa9;" horiz-adv-x="840" 
d="M420 560c80 0 170 -30 180 -150l-10 -10h-60l-10 10c-10 70 -50 80 -100 80c-60 0 -110 -30 -110 -140s50 -140 110 -140c50 0 90 10 100 80l10 10h60l10 -10c-10 -120 -100 -150 -180 -150c-110 0 -190 60 -190 210s80 210 190 210zM140 350c0 -160 120 -280 280 -280
s280 120 280 280s-120 280 -280 280s-280 -120 -280 -280zM60 350c0 200 160 360 360 360s360 -160 360 -360s-160 -360 -360 -360s-360 160 -360 360z" />
    <glyph glyph-name="ordfeminine" unicode="&#xaa;" horiz-adv-x="560" 
d="M480 350l-10 -10h-30c-30 0 -50 10 -70 30h-10c-10 -10 -40 -40 -110 -40c-100 0 -170 70 -170 190c0 130 80 190 170 190c50 0 80 -20 90 -30h10v10l10 10h70l10 -10v-240c0 -20 10 -30 20 -30h10l10 -10v-60zM170 520c0 -70 30 -110 90 -110s90 40 90 110
s-30 110 -90 110s-90 -40 -90 -110zM470 270l-10 -10h-350l-10 10v10l10 10h350l10 -10v-10z" />
    <glyph glyph-name="guillemotleft" unicode="&#xab;" horiz-adv-x="700" 
d="M360 40l-10 -10h-80l-20 10l-160 160l-10 20v60l10 20l160 160l20 10h80l10 -10v-30l-180 -170v-20l180 -170v-30zM620 40l-10 -10h-80l-20 10l-160 160l-10 20v60l10 20l160 160l20 10h80l10 -10v-30l-180 -170v-20l180 -170v-30z" />
    <glyph glyph-name="logicalnot" unicode="&#xac;" 
d="M500 100l-10 -10h-70l-10 10v100l-10 10h-330l-10 10v70l10 10h420l10 -10v-190z" />
    <glyph glyph-name="uni00AD" unicode="&#xad;" horiz-adv-x="410" 
d="M350 220l-10 -10h-270l-10 10v70l10 10h270l10 -10v-70z" />
    <glyph glyph-name="registered" unicode="&#xae;" horiz-adv-x="840" 
d="M520 430c0 30 -20 50 -50 50h-120l-10 -10v-80l10 -10h120c30 0 50 20 50 50zM520 310l80 -100v-50l-10 -10h-30l-20 10l-110 140l-20 10h-60l-10 -10v-140l-10 -10h-60l-10 10v380l10 10h200c80 0 130 -40 130 -120c0 -50 -20 -90 -80 -110v-10zM140 350
c0 -160 120 -280 280 -280s280 120 280 280s-120 280 -280 280s-280 -120 -280 -280zM60 350c0 200 160 360 360 360s360 -160 360 -360s-160 -360 -360 -360s-360 160 -360 360z" />
    <glyph glyph-name="macron" unicode="&#xaf;" horiz-adv-x="500" 
d="M410 590l-10 -10h-300l-10 10v60l10 10h300l10 -10v-60z" />
    <glyph glyph-name="degree" unicode="&#xb0;" 
d="M80 500c0 120 90 210 210 210s210 -90 210 -210s-90 -210 -210 -210s-210 90 -210 210zM170 500c0 -80 50 -130 120 -130s120 50 120 130s-50 130 -120 130s-120 -50 -120 -130z" />
    <glyph glyph-name="plusminus" unicode="&#xb1;" 
d="M520 290l-10 -10h-160l-10 -10v-110l-10 -10h-70l-10 10v110l-10 10h-160l-10 10v70l10 10h160l10 10v110l10 10h70l10 -10v-110l10 -10h160l10 -10v-70zM520 10l-10 -10h-430l-10 10v70l10 10h430l10 -10v-70z" />
    <glyph glyph-name="twosuperior" unicode="&#xb2;" horiz-adv-x="360" 
d="M320 350l-10 -10h-250l-10 10v60l10 20l90 60c60 40 70 60 70 100c0 20 -10 40 -40 40s-40 -20 -40 -40l-10 -10h-70l-10 10c0 70 40 120 130 120s130 -50 130 -120s-30 -100 -70 -130l-40 -30v-10h110l10 -10v-60z" />
    <glyph glyph-name="threesuperior" unicode="&#xb3;" horiz-adv-x="360" 
d="M140 490l-10 10v50l60 60v10h-120l-10 10v60l10 10h220l10 -10v-60l-10 -20l-50 -50v-10s80 0 80 -90c0 -70 -50 -130 -140 -130s-140 50 -140 120l10 10h70l10 -10c0 -30 20 -40 50 -40s50 20 50 50c0 22 -16 38 -36 38c-8 0 -16 -2 -24 -8h-30z" />
    <glyph glyph-name="acute" unicode="&#xb4;" horiz-adv-x="500" 
d="M340 670l-110 -100l-20 -10h-50l-10 10v20l90 100l20 10h70l10 -10v-20z" />
    <glyph glyph-name="mu" unicode="&#xb5;" 
d="M400 30h-10s-40 -40 -100 -40s-100 40 -100 40h-10v-220l-10 -10h-80l-10 10v680l10 10h80l10 -10v-260c0 -100 40 -150 110 -150s110 50 110 150v260l10 10h80l10 -10v-480l-10 -10h-70l-10 10z" />
    <glyph glyph-name="paragraph" unicode="&#xb6;" horiz-adv-x="710" 
d="M380 -190l-10 -10h-80l-10 10v480l-10 10c-120 0 -210 60 -210 200s90 200 220 200h370l10 -10v-70l-10 -10h-60l-10 -10v-790l-10 -10h-80l-10 10v790l-10 10h-80l-10 -10v-790z" />
    <glyph glyph-name="periodcentered" unicode="&#xb7;" horiz-adv-x="280" 
d="M200 210l-10 -10h-100l-10 10v100l10 10h100l10 -10v-100z" />
    <glyph glyph-name="cedilla" unicode="&#xb8;" horiz-adv-x="500" 
d="M210 -100h-10l-10 10v10l80 80h40l-70 -70h10c20 10 30 10 40 10c30 0 60 -20 60 -70s-40 -80 -100 -80c-40 0 -60 10 -90 40v10l10 10h10c20 -20 40 -20 70 -20s50 10 50 40s-20 40 -50 40c-10 0 -20 0 -40 -10z" />
    <glyph glyph-name="onesuperior" unicode="&#xb9;" horiz-adv-x="360" 
d="M50 350v60l10 10h80l10 10v150h-10l-40 -40h-30l-10 10v60l80 80l20 10h70l10 -10v-260l10 -10h60l10 -10v-60l-10 -10h-250z" />
    <glyph glyph-name="ordmasculine" unicode="&#xba;" horiz-adv-x="520" 
d="M260 330c-120 0 -180 80 -180 190s60 190 180 190s180 -80 180 -190s-60 -190 -180 -190zM170 520c0 -70 30 -110 90 -110s90 40 90 110s-30 110 -90 110s-90 -40 -90 -110zM420 270l-10 -10h-300l-10 10v10l10 10h300l10 -10v-10z" />
    <glyph glyph-name="guillemotright" unicode="&#xbb;" horiz-adv-x="700" 
d="M350 30l-10 10v30l180 170v20l-180 170v30l10 10h80l20 -10l160 -160l10 -20v-60l-10 -20l-160 -160l-20 -10h-80zM90 30l-10 10v30l180 170v20l-180 170v30l10 10h80l20 -10l160 -160l10 -20v-60l-10 -20l-160 -160l-20 -10h-80z" />
    <glyph glyph-name="onequarter" unicode="&#xbc;" horiz-adv-x="860" 
d="M760 10l-10 -10h-70l-10 10v50l-10 10h-180l-10 10v80l10 20l170 170l20 10h80l10 -10v-340zM670 160v90h-10l-90 -90v-10h90zM50 350v60l10 10h80l10 10v150h-10l-40 -40h-30l-10 10v60l80 80l20 10h70l10 -10v-260l10 -10h60l10 -10v-60l-10 -10h-250zM660 620
l-400 -610l-10 -10h-40l-10 10v70l400 610l10 10h40l10 -10v-70z" />
    <glyph glyph-name="onehalf" unicode="&#xbd;" horiz-adv-x="860" 
d="M800 10l-10 -10h-250l-10 10v60l10 20l90 60c60 40 70 60 70 100c0 20 -10 40 -40 40s-40 -20 -40 -40l-10 -10h-70l-10 10c0 70 40 120 130 120s130 -50 130 -120s-30 -100 -70 -130l-40 -30v-10h110l10 -10v-60zM50 350v60l10 10h80l10 10v150h-10l-40 -40h-30l-10 10
v60l80 80l20 10h70l10 -10v-260l10 -10h60l10 -10v-60l-10 -10h-250zM660 620l-400 -610l-10 -10h-40l-10 10v70l400 610l10 10h40l10 -10v-70z" />
    <glyph glyph-name="threequarters" unicode="&#xbe;" horiz-adv-x="860" 
d="M660 620l-400 -610l-10 -10h-40l-10 10v70l400 610l10 10h40l10 -10v-70zM760 10l-10 -10h-70l-10 10v50l-10 10h-180l-10 10v80l10 20l170 170l20 10h80l10 -10v-340zM670 160v90h-10l-90 -90v-10h90zM160 490l-10 10v50l60 60v10h-120l-10 10v60l10 10h220l10 -10v-60
l-10 -20l-50 -50v-10s80 0 80 -90c0 -70 -50 -130 -140 -130s-140 50 -140 120l10 10h70l10 -10c0 -30 20 -40 50 -40s50 20 50 50c0 22 -16 38 -36 38c-8 0 -16 -2 -24 -8h-30z" />
    <glyph glyph-name="questiondown" unicode="&#xbf;" horiz-adv-x="600" 
d="M80 -20c0 100 40 140 100 190s80 70 80 130l10 10h80l10 -10c0 -80 -20 -120 -80 -170s-100 -80 -100 -150c0 -50 30 -100 120 -100s120 50 120 130l10 10h80l10 -10c0 -130 -70 -220 -220 -220c-130 0 -220 70 -220 190zM250 490l10 10h100l10 -10v-100l-10 -10h-100
l-10 10v100z" />
    <glyph glyph-name="Agrave" unicode="&#xc0;" horiz-adv-x="630" 
d="M610 10l-10 -10h-60l-10 10l-60 150l-20 10h-270l-20 -10l-60 -150l-10 -10h-60l-10 10v70l240 610l10 10h90l10 -10l240 -610v-70zM430 270l-110 280h-10l-110 -280l10 -10h210zM380 770l-10 -10h-50l-20 10l-110 100v20l10 10h70l20 -10l90 -100v-20z" />
    <glyph glyph-name="Aacute" unicode="&#xc1;" horiz-adv-x="630" 
d="M610 10l-10 -10h-60l-10 10l-60 150l-20 10h-270l-20 -10l-60 -150l-10 -10h-60l-10 10v70l240 610l10 10h90l10 -10l240 -610v-70zM430 270l-110 280h-10l-110 -280l10 -10h210zM440 870l-110 -100l-20 -10h-50l-10 10v20l90 100l20 10h70l10 -10v-20z" />
    <glyph glyph-name="Acircumflex" unicode="&#xc2;" horiz-adv-x="630" 
d="M470 770l-10 -10h-50l-20 10l-70 60h-10l-70 -60l-20 -10h-50l-10 10v20l90 100l20 10h90l20 -10l90 -100v-20zM610 10l-10 -10h-60l-10 10l-60 150l-20 10h-270l-20 -10l-60 -150l-10 -10h-60l-10 10v70l240 610l10 10h90l10 -10l240 -610v-70zM430 270l-110 280h-10
l-110 -280l10 -10h210z" />
    <glyph glyph-name="Atilde" unicode="&#xc3;" horiz-adv-x="630" 
d="M610 10l-10 -10h-60l-10 10l-60 150l-20 10h-270l-20 -10l-60 -150l-10 -10h-60l-10 10v70l240 610l10 10h90l10 -10l240 -610v-70zM430 270l-110 280h-10l-110 -280l10 -10h210zM380 750c-80 0 -100 70 -140 70c-30 0 -40 -20 -40 -50l-10 -10h-30l-10 10
c0 60 30 110 100 110c80 0 100 -70 140 -70c30 0 40 20 40 50l10 10h30l10 -10c0 -60 -30 -110 -100 -110z" />
    <glyph glyph-name="Adieresis" unicode="&#xc4;" horiz-adv-x="630" 
d="M460 790l-10 -10h-80l-10 10v80l10 10h80l10 -10v-80zM270 790l-10 -10h-80l-10 10v80l10 10h80l10 -10v-80zM610 10l-10 -10h-60l-10 10l-60 150l-20 10h-270l-20 -10l-60 -150l-10 -10h-60l-10 10v70l240 610l10 10h90l10 -10l240 -610v-70zM430 270l-110 280h-10
l-110 -280l10 -10h210z" />
    <glyph glyph-name="Aring" unicode="&#xc5;" horiz-adv-x="630" 
d="M320 720h-10c-60 0 -100 40 -100 90s40 90 100 90h10c60 0 100 -40 100 -90s-40 -90 -100 -90zM610 10l-10 -10h-60l-10 10l-60 150l-20 10h-270l-20 -10l-60 -150l-10 -10h-60l-10 10v70l240 610l10 10h90l10 -10l240 -610v-70zM430 270l-110 280h-10l-110 -280l10 -10
h210zM310 770h10c30 0 40 20 40 40s-10 40 -40 40h-10c-30 0 -40 -20 -40 -40s10 -40 40 -40z" />
    <glyph glyph-name="AE" unicode="&#xc6;" horiz-adv-x="960" 
d="M900 10l-10 -10h-420l-10 10v150l-10 10h-250l-20 -10l-80 -150l-10 -10h-60l-10 10v70l340 610l10 10h520l10 -10v-70l-10 -10h-320l-10 -10v-190l10 -10h300l10 -10v-70l-10 -10h-300l-10 -10v-200l10 -10h320l10 -10v-70zM460 270v330l-10 10h-20l-10 -10l-180 -330
l10 -10h200z" />
    <glyph glyph-name="Ccedilla" unicode="&#xc7;" horiz-adv-x="690" 
d="M410 -10l-20 -10l-50 -50h10c20 10 30 10 40 10c30 0 60 -20 60 -70s-40 -80 -100 -80c-40 0 -60 10 -90 40v10l10 10h10c20 -20 40 -20 70 -20s50 10 50 40s-20 40 -50 40c-10 0 -20 0 -40 -10h-10l-10 10v10l60 60v10c-180 10 -310 140 -310 360c0 210 120 360 330 360
c160 0 260 -90 280 -210l-10 -10h-80l-10 10c-20 70 -80 120 -180 120c-150 0 -230 -110 -230 -270s80 -270 230 -270c110 0 160 60 180 130l10 10h80l10 -10c-20 -140 -140 -210 -240 -220z" />
    <glyph glyph-name="Egrave" unicode="&#xc8;" horiz-adv-x="610" 
d="M550 10l-10 -10h-450l-10 10v680l10 10h450l10 -10v-70l-10 -10h-350l-10 -10v-190l10 -10h330l10 -10v-70l-10 -10h-330l-10 -10v-200l10 -10h350l10 -10v-70zM380 770l-10 -10h-50l-20 10l-110 100v20l10 10h70l20 -10l90 -100v-20z" />
    <glyph glyph-name="Eacute" unicode="&#xc9;" horiz-adv-x="610" 
d="M550 10l-10 -10h-450l-10 10v680l10 10h450l10 -10v-70l-10 -10h-350l-10 -10v-190l10 -10h330l10 -10v-70l-10 -10h-330l-10 -10v-200l10 -10h350l10 -10v-70zM440 870l-110 -100l-20 -10h-50l-10 10v20l90 100l20 10h70l10 -10v-20z" />
    <glyph glyph-name="Ecircumflex" unicode="&#xca;" horiz-adv-x="610" 
d="M550 10l-10 -10h-450l-10 10v680l10 10h450l10 -10v-70l-10 -10h-350l-10 -10v-190l10 -10h330l10 -10v-70l-10 -10h-330l-10 -10v-200l10 -10h350l10 -10v-70zM480 770l-10 -10h-50l-20 10l-70 60h-20l-70 -60l-20 -10h-50l-10 10v20l90 100l20 10h100l20 -10l90 -100
v-20z" />
    <glyph glyph-name="Edieresis" unicode="&#xcb;" horiz-adv-x="610" 
d="M550 10l-10 -10h-450l-10 10v680l10 10h450l10 -10v-70l-10 -10h-350l-10 -10v-190l10 -10h330l10 -10v-70l-10 -10h-330l-10 -10v-200l10 -10h350l10 -10v-70zM460 790l-10 -10h-80l-10 10v80l10 10h80l10 -10v-80zM280 790l-10 -10h-80l-10 10v80l10 10h80l10 -10v-80z
" />
    <glyph glyph-name="Igrave" unicode="&#xcc;" horiz-adv-x="260" 
d="M180 10l-10 -10h-80l-10 10v680l10 10h80l10 -10v-680zM190 770l-10 -10h-50l-20 10l-110 100v20l10 10h70l20 -10l90 -100v-20z" />
    <glyph glyph-name="Iacute" unicode="&#xcd;" horiz-adv-x="260" 
d="M180 10l-10 -10h-80l-10 10v680l10 10h80l10 -10v-680zM260 870l-110 -100l-20 -10h-50l-10 10v20l90 100l20 10h70l10 -10v-20z" />
    <glyph glyph-name="Icircumflex" unicode="&#xce;" horiz-adv-x="260" 
d="M180 10l-10 -10h-80l-10 10v680l10 10h80l10 -10v-680zM290 770l-10 -10h-50l-20 10l-70 60h-20l-70 -60l-20 -10h-50l-10 10v20l90 100l20 10h100l20 -10l90 -100v-20z" />
    <glyph glyph-name="Idieresis" unicode="&#xcf;" horiz-adv-x="260" 
d="M180 10l-10 -10h-80l-10 10v680l10 10h80l10 -10v-680zM270 790l-10 -10h-80l-10 10v80l10 10h80l10 -10v-80zM90 790l-10 -10h-80l-10 10v80l10 10h80l10 -10v-80z" />
    <glyph glyph-name="Eth" unicode="&#xd0;" horiz-adv-x="670" 
d="M0 320v70l10 10h60l10 10v280l10 10h210c250 0 330 -140 330 -350s-80 -350 -330 -350h-210l-10 10v290l-10 10h-60zM530 350c0 170 -50 260 -240 260h-100l-10 -10v-190l10 -10h150l10 -10v-70l-10 -10h-150l-10 -10v-200l10 -10h100c190 0 240 90 240 260z" />
    <glyph glyph-name="Ntilde" unicode="&#xd1;" horiz-adv-x="730" 
d="M430 750c-80 0 -100 70 -140 70c-30 0 -40 -20 -40 -50l-10 -10h-30l-10 10c0 60 30 110 100 110c80 0 100 -70 140 -70c30 0 40 20 40 50l10 10h30l10 -10c0 -60 -30 -110 -100 -110zM650 10l-10 -10h-90l-20 10l-340 520h-10v-520l-10 -10h-80l-10 10v680l10 10h90
l20 -10l340 -520h10v520l10 10h80l10 -10v-680z" />
    <glyph glyph-name="Ograve" unicode="&#xd2;" horiz-adv-x="740" 
d="M40 350c0 210 120 360 330 360s330 -150 330 -360s-120 -360 -330 -360s-330 150 -330 360zM140 350c0 -160 80 -270 230 -270s230 110 230 270s-80 270 -230 270s-230 -110 -230 -270zM450 770l-10 -10h-50l-20 10l-110 100v20l10 10h70l20 -10l90 -100v-20z" />
    <glyph glyph-name="Oacute" unicode="&#xd3;" horiz-adv-x="740" 
d="M40 350c0 210 120 360 330 360s330 -150 330 -360s-120 -360 -330 -360s-330 150 -330 360zM140 350c0 -160 80 -270 230 -270s230 110 230 270s-80 270 -230 270s-230 -110 -230 -270zM480 870l-110 -100l-20 -10h-50l-10 10v20l90 100l20 10h70l10 -10v-20z" />
    <glyph glyph-name="Ocircumflex" unicode="&#xd4;" horiz-adv-x="740" 
d="M40 350c0 210 120 360 330 360s330 -150 330 -360s-120 -360 -330 -360s-330 150 -330 360zM140 350c0 -160 80 -270 230 -270s230 110 230 270s-80 270 -230 270s-230 -110 -230 -270zM530 770l-10 -10h-50l-20 10l-70 60h-20l-70 -60l-20 -10h-50l-10 10v20l90 100
l20 10h100l20 -10l90 -100v-20z" />
    <glyph glyph-name="Otilde" unicode="&#xd5;" horiz-adv-x="740" 
d="M40 350c0 210 120 360 330 360s330 -150 330 -360s-120 -360 -330 -360s-330 150 -330 360zM140 350c0 -160 80 -270 230 -270s230 110 230 270s-80 270 -230 270s-230 -110 -230 -270zM430 750c-80 0 -100 70 -140 70c-30 0 -40 -20 -40 -50l-10 -10h-30l-10 10
c0 60 30 110 100 110c80 0 100 -70 140 -70c30 0 40 20 40 50l10 10h30l10 -10c0 -60 -30 -110 -100 -110z" />
    <glyph glyph-name="Odieresis" unicode="&#xd6;" horiz-adv-x="740" 
d="M40 350c0 210 120 360 330 360s330 -150 330 -360s-120 -360 -330 -360s-330 150 -330 360zM140 350c0 -160 80 -270 230 -270s230 110 230 270s-80 270 -230 270s-230 -110 -230 -270zM510 790l-10 -10h-80l-10 10v80l10 10h80l10 -10v-80zM330 790l-10 -10h-80l-10 10
v80l10 10h80l10 -10v-80z" />
    <glyph glyph-name="multiply" unicode="&#xd7;" horiz-adv-x="610" 
d="M530 80l-50 -50h-10l-160 160h-10l-160 -160h-10l-50 50v10l160 160v10l-160 160v10l50 50h10l160 -160h10l160 160h10l50 -50v-10l-160 -160v-10l160 -160v-10z" />
    <glyph glyph-name="Oslash" unicode="&#xd8;" horiz-adv-x="740" 
d="M180 190l350 350v20c-40 40 -90 60 -160 60c-150 0 -230 -110 -230 -270c0 -60 10 -120 30 -160h10zM370 -10c-100 0 -170 30 -230 90h-10l-40 -40l-20 -10h-10l-10 10v20l50 50v20c-40 60 -60 130 -60 220c0 210 120 360 330 360c100 0 170 -30 230 -90h10l40 40l20 10
h10l10 -10v-20l-50 -50v-20c40 -60 60 -130 60 -220c0 -210 -120 -360 -330 -360zM560 510l-350 -350v-20c40 -40 90 -60 160 -60c150 0 230 110 230 270c0 60 -10 120 -30 160h-10z" />
    <glyph glyph-name="Ugrave" unicode="&#xd9;" horiz-adv-x="700" 
d="M620 690v-440c0 -160 -100 -260 -270 -260s-270 100 -270 260v440l10 10h80l10 -10v-440c0 -100 50 -170 170 -170s170 70 170 170v440l10 10h80zM410 770l-10 -10h-50l-20 10l-110 100v20l10 10h70l20 -10l90 -100v-20z" />
    <glyph glyph-name="Uacute" unicode="&#xda;" horiz-adv-x="700" 
d="M620 690v-440c0 -160 -100 -260 -270 -260s-270 100 -270 260v440l10 10h80l10 -10v-440c0 -100 50 -170 170 -170s170 70 170 170v440l10 10h80zM480 870l-110 -100l-20 -10h-50l-10 10v20l90 100l20 10h70l10 -10v-20z" />
    <glyph glyph-name="Ucircumflex" unicode="&#xdb;" horiz-adv-x="700" 
d="M620 690v-440c0 -160 -100 -260 -270 -260s-270 100 -270 260v440l10 10h80l10 -10v-440c0 -100 50 -170 170 -170s170 70 170 170v440l10 10h80zM510 770l-10 -10h-50l-20 10l-70 60h-20l-70 -60l-20 -10h-50l-10 10v20l90 100l20 10h100l20 -10l90 -100v-20z" />
    <glyph glyph-name="Udieresis" unicode="&#xdc;" horiz-adv-x="700" 
d="M620 690v-440c0 -160 -100 -260 -270 -260s-270 100 -270 260v440l10 10h80l10 -10v-440c0 -100 50 -170 170 -170s170 70 170 170v440l10 10h80zM490 790l-10 -10h-80l-10 10v80l10 10h80l10 -10v-80zM310 790l-10 -10h-80l-10 10v80l10 10h80l10 -10v-80z" />
    <glyph glyph-name="Yacute" unicode="&#xdd;" 
d="M550 620l-210 -340v-270l-10 -10h-80l-10 10v270l-210 340v70l10 10h40l20 -10l180 -300h20l180 300l20 10h40l10 -10v-70zM410 870l-110 -100l-20 -10h-50l-10 10v20l90 100l20 10h70l10 -10v-20z" />
    <glyph glyph-name="Thorn" unicode="&#xde;" horiz-adv-x="620" 
d="M190 240h160c90 0 130 30 130 110s-40 110 -130 110h-160l-10 -10v-200zM190 150l-10 -10v-130l-10 -10h-80l-10 10v680l10 10h80l10 -10v-130l10 -10h160c140 0 230 -60 230 -200s-100 -200 -230 -200h-160z" />
    <glyph glyph-name="germandbls" unicode="&#xdf;" 
d="M550 210c0 -120 -70 -220 -210 -220c-50 0 -90 20 -90 20l-10 10v60l10 10s40 -10 90 -10c80 0 110 60 110 130c0 80 -30 120 -150 120l-10 10v60l10 10c90 0 120 40 120 100s-20 110 -120 110c-70 0 -110 -30 -110 -110v-500l-10 -10h-80l-10 10v400l-10 10h-50l-10 10
v60l10 10h50l10 10c0 120 70 200 210 200c160 0 220 -90 220 -190c0 -80 -40 -120 -80 -140v-10c50 -10 110 -60 110 -160z" />
    <glyph glyph-name="agrave" unicode="&#xe0;" horiz-adv-x="500" 
d="M450 10l-10 -10h-70l-10 10l-10 40h-10s-40 -60 -140 -60c-110 0 -170 60 -170 160c0 110 90 160 220 160c50 0 90 -10 90 -10l10 10v20c0 70 -30 90 -100 90s-100 -20 -100 -60l-10 -10h-80l-10 10c0 70 50 150 200 150s200 -70 200 -220v-280zM350 180v30l-10 10
s-30 10 -80 10c-90 0 -130 -30 -130 -80s30 -70 90 -70c80 0 130 40 130 100zM320 570l-10 -10h-50l-20 10l-110 100v20l10 10h70l20 -10l90 -100v-20z" />
    <glyph glyph-name="aacute" unicode="&#xe1;" horiz-adv-x="500" 
d="M450 10l-10 -10h-70l-10 10l-10 40h-10s-40 -60 -140 -60c-110 0 -170 60 -170 160c0 110 90 160 220 160c50 0 90 -10 90 -10l10 10v20c0 70 -30 90 -100 90s-100 -20 -100 -60l-10 -10h-80l-10 10c0 70 50 150 200 150s200 -70 200 -220v-280zM350 180v30l-10 10
s-30 10 -80 10c-90 0 -130 -30 -130 -80s30 -70 90 -70c80 0 130 40 130 100zM370 670l-110 -100l-20 -10h-50l-10 10v20l90 100l20 10h70l10 -10v-20z" />
    <glyph glyph-name="acircumflex" unicode="&#xe2;" horiz-adv-x="500" 
d="M450 10l-10 -10h-70l-10 10l-10 40h-10s-40 -60 -140 -60c-110 0 -170 60 -170 160c0 110 90 160 220 160c50 0 90 -10 90 -10l10 10v20c0 70 -30 90 -100 90s-100 -20 -100 -60l-10 -10h-80l-10 10c0 70 50 150 200 150s200 -70 200 -220v-280zM350 180v30l-10 10
s-30 10 -80 10c-90 0 -130 -30 -130 -80s30 -70 90 -70c80 0 130 40 130 100zM410 570l-10 -10h-50l-20 10l-70 60h-20l-70 -60l-20 -10h-50l-10 10v20l90 100l20 10h100l20 -10l90 -100v-20z" />
    <glyph glyph-name="atilde" unicode="&#xe3;" horiz-adv-x="500" 
d="M320 550c-80 0 -100 70 -140 70c-30 0 -40 -20 -40 -50l-10 -10h-30l-10 10c0 60 30 110 100 110c80 0 100 -70 140 -70c30 0 40 20 40 50l10 10h30l10 -10c0 -60 -30 -110 -100 -110zM450 10l-10 -10h-70l-10 10l-10 40h-10s-40 -60 -140 -60c-110 0 -170 60 -170 160
c0 110 90 160 220 160c50 0 90 -10 90 -10l10 10v20c0 70 -30 90 -100 90s-100 -20 -100 -60l-10 -10h-80l-10 10c0 70 50 150 200 150s200 -70 200 -220v-280zM350 180v30l-10 10s-30 10 -80 10c-90 0 -130 -30 -130 -80s30 -70 90 -70c80 0 130 40 130 100z" />
    <glyph glyph-name="adieresis" unicode="&#xe4;" horiz-adv-x="500" 
d="M450 10l-10 -10h-70l-10 10l-10 40h-10s-40 -60 -140 -60c-110 0 -170 60 -170 160c0 110 90 160 220 160c50 0 90 -10 90 -10l10 10v20c0 70 -30 90 -100 90s-100 -20 -100 -60l-10 -10h-80l-10 10c0 70 50 150 200 150s200 -70 200 -220v-280zM350 180v30l-10 10
s-30 10 -80 10c-90 0 -130 -30 -130 -80s30 -70 90 -70c80 0 130 40 130 100zM390 590l-10 -10h-80l-10 10v80l10 10h80l10 -10v-80zM210 590l-10 -10h-80l-10 10v80l10 10h80l10 -10v-80z" />
    <glyph glyph-name="aring" unicode="&#xe5;" horiz-adv-x="500" 
d="M450 10l-10 -10h-70l-10 10l-10 40h-10s-40 -60 -140 -60c-110 0 -170 60 -170 160c0 110 90 160 220 160c50 0 90 -10 90 -10l10 10v20c0 70 -30 90 -100 90s-100 -20 -100 -60l-10 -10h-80l-10 10c0 70 50 150 200 150s200 -70 200 -220v-280zM350 180v30l-10 10
s-30 10 -80 10c-90 0 -130 -30 -130 -80s30 -70 90 -70c80 0 130 40 130 100zM350 640c0 -50 -40 -90 -100 -90s-100 40 -100 90s40 90 100 90s100 -40 100 -90zM290 640c0 20 -10 40 -40 40s-40 -20 -40 -40s10 -40 40 -40s40 20 40 40z" />
    <glyph glyph-name="ae" unicode="&#xe6;" horiz-adv-x="830" 
d="M350 180v30l-10 10s-30 10 -80 10c-90 0 -130 -30 -130 -80s30 -70 90 -70c80 0 130 40 130 100zM680 290l10 10c0 30 -10 120 -120 120s-120 -90 -120 -120l10 -10h220zM580 -10c-100 0 -150 40 -180 70h-10c-50 -50 -100 -70 -190 -70c-110 0 -170 60 -170 160
c0 110 90 160 220 160c50 0 90 -10 90 -10l10 10v10c0 80 -30 100 -100 100s-100 -20 -100 -60l-10 -10h-80l-10 10c0 70 50 150 200 150c80 0 130 -20 160 -60h10c30 40 90 60 150 60c160 0 230 -120 230 -260v-30l-10 -10h-330l-10 -10c0 -20 10 -120 130 -120
c40 0 80 10 100 60l10 10h80l10 -10c-10 -80 -80 -150 -200 -150z" />
    <glyph glyph-name="ccedilla" unicode="&#xe7;" horiz-adv-x="520" 
d="M490 160c-10 -100 -90 -160 -190 -170l-20 -10l-50 -50h10c20 10 30 10 40 10c30 0 60 -20 60 -70s-40 -80 -100 -80c-40 0 -60 10 -90 40v10l10 10h10c20 -20 40 -20 70 -20s50 10 50 40s-20 40 -50 40c-10 0 -20 0 -40 -10h-10l-10 10v10l60 60v10
c-110 10 -210 90 -210 260c0 160 90 260 240 260c140 0 210 -80 220 -170l-10 -10h-80l-10 10c-10 40 -40 80 -120 80c-90 0 -140 -60 -140 -170s50 -170 140 -170c80 0 110 40 120 80l10 10h80z" />
    <glyph glyph-name="egrave" unicode="&#xe8;" horiz-adv-x="520" 
d="M370 290l10 10c0 30 -10 120 -120 120s-120 -90 -120 -120l10 -10h220zM270 -10c-160 0 -240 110 -240 260c0 140 70 260 230 260s230 -120 230 -260v-30l-10 -10h-330l-10 -10c0 -20 10 -120 130 -120c40 0 80 10 100 60l10 10h80l10 -10c-10 -80 -80 -150 -200 -150z
M330 570l-10 -10h-50l-20 10l-110 100v20l10 10h70l20 -10l90 -100v-20z" />
    <glyph glyph-name="eacute" unicode="&#xe9;" horiz-adv-x="520" 
d="M370 290l10 10c0 30 -10 120 -120 120s-120 -90 -120 -120l10 -10h220zM270 -10c-160 0 -240 110 -240 260c0 140 70 260 230 260s230 -120 230 -260v-30l-10 -10h-330l-10 -10c0 -20 10 -120 130 -120c40 0 80 10 100 60l10 10h80l10 -10c-10 -80 -80 -150 -200 -150z
M380 670l-110 -100l-20 -10h-50l-10 10v20l90 100l20 10h70l10 -10v-20z" />
    <glyph glyph-name="ecircumflex" unicode="&#xea;" horiz-adv-x="520" 
d="M370 290l10 10c0 30 -10 120 -120 120s-120 -90 -120 -120l10 -10h220zM270 -10c-160 0 -240 110 -240 260c0 140 70 260 230 260s230 -120 230 -260v-30l-10 -10h-330l-10 -10c0 -20 10 -120 130 -120c40 0 80 10 100 60l10 10h80l10 -10c-10 -80 -80 -150 -200 -150z
M420 570l-10 -10h-50l-20 10l-70 60h-20l-70 -60l-20 -10h-50l-10 10v20l90 100l20 10h100l20 -10l90 -100v-20z" />
    <glyph glyph-name="edieresis" unicode="&#xeb;" horiz-adv-x="520" 
d="M370 290l10 10c0 30 -10 120 -120 120s-120 -90 -120 -120l10 -10h220zM270 -10c-160 0 -240 110 -240 260c0 140 70 260 230 260s230 -120 230 -260v-30l-10 -10h-330l-10 -10c0 -20 10 -120 130 -120c40 0 80 10 100 60l10 10h80l10 -10c-10 -80 -80 -150 -200 -150z
M400 590l-10 -10h-80l-10 10v80l10 10h80l10 -10v-80zM220 590l-10 -10h-80l-10 10v80l10 10h80l10 -10v-80z" />
    <glyph glyph-name="igrave" unicode="&#xec;" horiz-adv-x="220" 
d="M160 10l-10 -10h-80l-10 10v480l10 10h80l10 -10v-480zM170 570l-10 -10h-50l-20 10l-110 100v20l10 10h70l20 -10l90 -100v-20z" />
    <glyph glyph-name="iacute" unicode="&#xed;" horiz-adv-x="220" 
d="M160 10l-10 -10h-80l-10 10v480l10 10h80l10 -10v-480zM240 670l-110 -100l-20 -10h-50l-10 10v20l90 100l20 10h70l10 -10v-20z" />
    <glyph glyph-name="icircumflex" unicode="&#xee;" horiz-adv-x="220" 
d="M160 10l-10 -10h-80l-10 10v480l10 10h80l10 -10v-480zM270 570l-10 -10h-50l-20 10l-70 60h-20l-70 -60l-20 -10h-50l-10 10v20l90 100l20 10h100l20 -10l90 -100v-20z" />
    <glyph glyph-name="idieresis" unicode="&#xef;" horiz-adv-x="220" 
d="M160 10l-10 -10h-80l-10 10v480l10 10h80l10 -10v-480zM250 590l-10 -10h-80l-10 10v80l10 10h80l10 -10v-80zM70 590l-10 -10h-80l-10 10v80l10 10h80l10 -10v-80z" />
    <glyph glyph-name="eth" unicode="&#xf0;" horiz-adv-x="520" 
d="M350 470h10c-10 50 -30 80 -60 100h-10l-30 -30l-20 -10h-50l-10 10v30l30 30v10c-30 10 -50 10 -70 10l-10 10v10l40 40l20 10c20 0 50 0 80 -10h10l30 30l20 10h60l10 -10v-20l-40 -40v-10c100 -80 130 -200 130 -390c0 -170 -90 -260 -230 -260
c-120 0 -230 80 -230 260c0 160 90 260 220 260c70 0 100 -40 100 -40zM390 250c0 120 -50 170 -130 170s-130 -50 -130 -170c0 -130 60 -170 130 -170c80 0 130 50 130 170z" />
    <glyph glyph-name="ntilde" unicode="&#xf1;" horiz-adv-x="540" 
d="M340 550c-80 0 -100 70 -140 70c-30 0 -40 -20 -40 -50l-10 -10h-30l-10 10c0 60 30 110 100 110c80 0 100 -70 140 -70c30 0 40 20 40 50l10 10h30l10 -10c0 -60 -30 -110 -100 -110zM490 10l-10 -10h-80l-10 10v290c0 50 -10 120 -100 120s-130 -50 -130 -170v-240
l-10 -10h-80l-10 10v480l10 10h70l10 -10l10 -40h10s40 60 130 60c140 0 190 -90 190 -210v-290z" />
    <glyph glyph-name="ograve" unicode="&#xf2;" horiz-adv-x="540" 
d="M30 250c0 160 90 260 240 260s240 -100 240 -260s-90 -260 -240 -260s-240 100 -240 260zM130 250c0 -110 50 -170 140 -170s140 60 140 170s-50 170 -140 170s-140 -60 -140 -170zM340 570l-10 -10h-50l-20 10l-110 100v20l10 10h70l20 -10l90 -100v-20z" />
    <glyph glyph-name="oacute" unicode="&#xf3;" horiz-adv-x="540" 
d="M30 250c0 160 90 260 240 260s240 -100 240 -260s-90 -260 -240 -260s-240 100 -240 260zM130 250c0 -110 50 -170 140 -170s140 60 140 170s-50 170 -140 170s-140 -60 -140 -170zM390 670l-110 -100l-20 -10h-50l-10 10v20l90 100l20 10h70l10 -10v-20z" />
    <glyph glyph-name="ocircumflex" unicode="&#xf4;" horiz-adv-x="540" 
d="M30 250c0 160 90 260 240 260s240 -100 240 -260s-90 -260 -240 -260s-240 100 -240 260zM130 250c0 -110 50 -170 140 -170s140 60 140 170s-50 170 -140 170s-140 -60 -140 -170zM430 570l-10 -10h-50l-20 10l-70 60h-20l-70 -60l-20 -10h-50l-10 10v20l90 100l20 10
h100l20 -10l90 -100v-20z" />
    <glyph glyph-name="otilde" unicode="&#xf5;" horiz-adv-x="540" 
d="M30 250c0 160 90 260 240 260s240 -100 240 -260s-90 -260 -240 -260s-240 100 -240 260zM130 250c0 -110 50 -170 140 -170s140 60 140 170s-50 170 -140 170s-140 -60 -140 -170zM340 550c-80 0 -100 70 -140 70c-30 0 -40 -20 -40 -50l-10 -10h-30l-10 10
c0 60 30 110 100 110c80 0 100 -70 140 -70c30 0 40 20 40 50l10 10h30l10 -10c0 -60 -30 -110 -100 -110z" />
    <glyph glyph-name="odieresis" unicode="&#xf6;" horiz-adv-x="540" 
d="M30 250c0 160 90 260 240 260s240 -100 240 -260s-90 -260 -240 -260s-240 100 -240 260zM130 250c0 -110 50 -170 140 -170s140 60 140 170s-50 170 -140 170s-140 -60 -140 -170zM410 590l-10 -10h-80l-10 10v80l10 10h80l10 -10v-80zM230 590l-10 -10h-80l-10 10v80
l10 10h80l10 -10v-80z" />
    <glyph glyph-name="divide" unicode="&#xf7;" horiz-adv-x="600" 
d="M540 220l-10 -10h-460l-10 10v70l10 10h460l10 -10v-70zM360 20l-10 -10h-100l-10 10v100l10 10h100l10 -10v-100zM360 390l-10 -10h-100l-10 10v100l10 10h100l10 -10v-100z" />
    <glyph glyph-name="oslash" unicode="&#xf8;" horiz-adv-x="540" 
d="M150 160l210 210v20c-20 20 -50 30 -90 30c-90 0 -140 -60 -140 -170c0 -40 0 -70 10 -90h10zM270 -10c-60 0 -120 20 -160 60h-10l-30 -30l-20 -10h-10l-10 10v20l40 40v10c-20 30 -40 90 -40 160c0 160 90 260 240 260c60 0 120 -20 160 -60h10l30 30l20 10h10l10 -10
v-20l-40 -40v-10c20 -30 40 -90 40 -160c0 -160 -90 -260 -240 -260zM390 340l-210 -210v-20c20 -20 50 -30 90 -30c90 0 140 60 140 170c0 40 0 70 -10 90h-10z" />
    <glyph glyph-name="ugrave" unicode="&#xf9;" horiz-adv-x="530" 
d="M470 10l-10 -10h-70l-10 10l-10 40h-10s-40 -60 -120 -60c-140 0 -190 100 -190 210v290l10 10h80l10 -10v-290c0 -60 20 -120 100 -120c70 0 120 50 120 170v240l10 10h80l10 -10v-480zM320 570l-10 -10h-50l-20 10l-110 100v20l10 10h70l20 -10l90 -100v-20z" />
    <glyph glyph-name="uacute" unicode="&#xfa;" horiz-adv-x="530" 
d="M470 10l-10 -10h-70l-10 10l-10 40h-10s-40 -60 -120 -60c-140 0 -190 100 -190 210v290l10 10h80l10 -10v-290c0 -60 20 -120 100 -120c70 0 120 50 120 170v240l10 10h80l10 -10v-480zM390 670l-110 -100l-20 -10h-50l-10 10v20l90 100l20 10h70l10 -10v-20z" />
    <glyph glyph-name="ucircumflex" unicode="&#xfb;" horiz-adv-x="530" 
d="M470 10l-10 -10h-70l-10 10l-10 40h-10s-40 -60 -120 -60c-140 0 -190 100 -190 210v290l10 10h80l10 -10v-290c0 -60 20 -120 100 -120c70 0 120 50 120 170v240l10 10h80l10 -10v-480zM420 570l-10 -10h-50l-20 10l-70 60h-20l-70 -60l-20 -10h-50l-10 10v20l90 100
l20 10h100l20 -10l90 -100v-20z" />
    <glyph glyph-name="udieresis" unicode="&#xfc;" horiz-adv-x="530" 
d="M470 10l-10 -10h-70l-10 10l-10 40h-10s-40 -60 -120 -60c-140 0 -190 100 -190 210v290l10 10h80l10 -10v-290c0 -60 20 -120 100 -120c70 0 120 50 120 170v240l10 10h80l10 -10v-480zM400 590l-10 -10h-80l-10 10v80l10 10h80l10 -10v-80zM220 590l-10 -10h-80l-10 10
v80l10 10h80l10 -10v-80z" />
    <glyph glyph-name="yacute" unicode="&#xfd;" horiz-adv-x="510" 
d="M480 420l-160 -400c-60 -150 -100 -180 -220 -180h-20l-10 10v70l10 10h20c50 0 80 10 100 60v10l-170 420v70l10 10h60l10 -10l140 -370h10l140 370l10 10h60l10 -10v-70zM380 670l-110 -100l-20 -10h-50l-10 10v20l90 100l20 10h70l10 -10v-20z" />
    <glyph glyph-name="thorn" unicode="&#xfe;" horiz-adv-x="550" 
d="M510 250c0 -150 -70 -260 -200 -260c-100 0 -140 60 -140 60h-10v-240l-10 -10h-80l-10 10v880l10 10h80l10 -10v-240h10s40 60 140 60c130 0 200 -110 200 -260zM410 250c0 110 -40 170 -120 170s-130 -50 -130 -170s50 -170 130 -170s120 60 120 170z" />
    <glyph glyph-name="ydieresis" unicode="&#xff;" horiz-adv-x="510" 
d="M400 590l-10 -10h-80l-10 10v80l10 10h80l10 -10v-80zM210 590l-10 -10h-80l-10 10v80l10 10h80l10 -10v-80zM480 420l-160 -400c-60 -150 -100 -180 -220 -180h-20l-10 10v70l10 10h20c50 0 80 10 100 60v10l-170 420v70l10 10h60l10 -10l140 -370h10l140 370l10 10h60
l10 -10v-70z" />
    <glyph glyph-name="Amacron" unicode="&#x100;" horiz-adv-x="630" 
d="M480 790l-10 -10h-310l-10 10v60l10 10h310l10 -10v-60zM610 10l-10 -10h-60l-10 10l-60 150l-20 10h-270l-20 -10l-60 -150l-10 -10h-60l-10 10v70l240 610l10 10h90l10 -10l240 -610v-70zM430 270l-110 280h-10l-110 -280l10 -10h210z" />
    <glyph glyph-name="amacron" unicode="&#x101;" horiz-adv-x="500" 
d="M450 10l-10 -10h-70l-10 10l-10 40h-10s-40 -60 -140 -60c-110 0 -170 60 -170 160c0 110 90 160 220 160c50 0 90 -10 90 -10l10 10v20c0 70 -30 90 -100 90s-100 -20 -100 -60l-10 -10h-80l-10 10c0 70 50 150 200 150s200 -70 200 -220v-280zM350 180v30l-10 10
s-30 10 -80 10c-90 0 -130 -30 -130 -80s30 -70 90 -70c80 0 130 40 130 100zM410 590l-10 -10h-300l-10 10v60l10 10h300l10 -10v-60z" />
    <glyph glyph-name="Abreve" unicode="&#x102;" horiz-adv-x="630" 
d="M320 750h-10c-80 0 -140 50 -140 130l10 10h50l10 -10c0 -40 30 -60 70 -60h10c40 0 70 20 70 60l10 10h50l10 -10c0 -80 -60 -130 -140 -130zM610 10l-10 -10h-60l-10 10l-60 150l-20 10h-270l-20 -10l-60 -150l-10 -10h-60l-10 10v70l240 610l10 10h90l10 -10l240 -610
v-70zM430 270l-110 280h-10l-110 -280l10 -10h210z" />
    <glyph glyph-name="abreve" unicode="&#x103;" horiz-adv-x="500" 
d="M450 10l-10 -10h-70l-10 10l-10 40h-10s-40 -60 -140 -60c-110 0 -170 60 -170 160c0 110 90 160 220 160c50 0 90 -10 90 -10l10 10v20c0 70 -30 90 -100 90s-100 -20 -100 -60l-10 -10h-80l-10 10c0 70 50 150 200 150s200 -70 200 -220v-280zM350 180v30l-10 10
s-30 10 -80 10c-90 0 -130 -30 -130 -80s30 -70 90 -70c80 0 130 40 130 100zM170 690l10 -10c0 -40 30 -60 70 -60s70 20 70 60l10 10h50l10 -10c0 -80 -60 -130 -140 -130s-140 50 -140 130l10 10h50z" />
    <glyph glyph-name="Aogonek" unicode="&#x104;" horiz-adv-x="630" 
d="M530 10l-60 150l-20 10h-270l-20 -10l-60 -150l-10 -10h-60l-10 10v70l240 610l10 10h90l10 -10l240 -610v-70l-10 -10c-60 -10 -100 -40 -100 -80c0 -30 20 -50 50 -50s50 10 50 10l10 -10v-40l-10 -10s-30 -20 -70 -20c-60 0 -110 40 -110 100s50 100 110 110zM430 270
l-110 280h-10l-110 -280l10 -10h210z" />
    <glyph glyph-name="aogonek" unicode="&#x105;" horiz-adv-x="500" 
d="M360 10l-10 40h-10s-40 -60 -140 -60c-110 0 -170 60 -170 160c0 110 90 160 220 160c50 0 90 -10 90 -10l10 10v20c0 70 -30 90 -100 90s-100 -20 -100 -60l-10 -10h-80l-10 10c0 70 50 150 200 150s200 -70 200 -220v-280l-10 -10c-60 -10 -100 -40 -100 -80
c0 -30 20 -50 50 -50s50 10 50 10l10 -10v-40l-10 -10s-30 -20 -70 -20c-60 0 -110 40 -110 100c0 70 50 100 100 110zM350 180v30l-10 10s-30 10 -80 10c-90 0 -130 -30 -130 -80s30 -70 90 -70c80 0 130 40 130 100z" />
    <glyph glyph-name="Cacute" unicode="&#x106;" horiz-adv-x="690" 
d="M480 870l-110 -100l-20 -10h-50l-10 10v20l90 100l20 10h70l10 -10v-20zM370 -10c-210 0 -330 150 -330 360s120 360 330 360c160 0 260 -90 280 -210l-10 -10h-80l-10 10c-20 70 -80 120 -180 120c-150 0 -230 -110 -230 -270s80 -270 230 -270c110 0 160 60 180 130
l10 10h80l10 -10c-20 -120 -110 -220 -280 -220z" />
    <glyph glyph-name="cacute" unicode="&#x107;" horiz-adv-x="520" 
d="M130 250c0 -110 50 -170 140 -170c80 0 110 40 120 80l10 10h80l10 -10c-10 -90 -80 -170 -220 -170c-150 0 -240 100 -240 260s90 260 240 260c140 0 210 -80 220 -170l-10 -10h-80l-10 10c-10 40 -40 80 -120 80c-90 0 -140 -60 -140 -170zM390 670l-110 -100l-20 -10
h-50l-10 10v20l90 100l20 10h70l10 -10v-20z" />
    <glyph glyph-name="Ccircumflex" unicode="&#x108;" horiz-adv-x="690" 
d="M530 770l-10 -10h-50l-20 10l-70 60h-20l-70 -60l-20 -10h-50l-10 10v20l90 100l20 10h100l20 -10l90 -100v-20zM370 -10c-210 0 -330 150 -330 360s120 360 330 360c160 0 260 -90 280 -210l-10 -10h-80l-10 10c-20 70 -80 120 -180 120c-150 0 -230 -110 -230 -270
s80 -270 230 -270c110 0 160 60 180 130l10 10h80l10 -10c-20 -120 -110 -220 -280 -220z" />
    <glyph glyph-name="ccircumflex" unicode="&#x109;" horiz-adv-x="520" 
d="M130 250c0 -110 50 -170 140 -170c80 0 110 40 120 80l10 10h80l10 -10c-10 -90 -80 -170 -220 -170c-150 0 -240 100 -240 260s90 260 240 260c140 0 210 -80 220 -170l-10 -10h-80l-10 10c-10 40 -40 80 -120 80c-90 0 -140 -60 -140 -170zM430 570l-10 -10h-50l-20 10
l-70 60h-20l-70 -60l-20 -10h-50l-10 10v20l90 100l20 10h100l20 -10l90 -100v-20z" />
    <glyph glyph-name="Cdotaccent" unicode="&#x10a;" horiz-adv-x="690" 
d="M370 -10c-210 0 -330 150 -330 360s120 360 330 360c160 0 260 -90 280 -210l-10 -10h-80l-10 10c-20 70 -80 120 -180 120c-150 0 -230 -110 -230 -270s80 -270 230 -270c110 0 160 60 180 130l10 10h80l10 -10c-20 -120 -110 -220 -280 -220zM420 790l-10 -10h-80
l-10 10v80l10 10h80l10 -10v-80z" />
    <glyph glyph-name="cdotaccent" unicode="&#x10b;" horiz-adv-x="520" 
d="M130 250c0 -110 50 -170 140 -170c80 0 110 40 120 80l10 10h80l10 -10c-10 -90 -80 -170 -220 -170c-150 0 -240 100 -240 260s90 260 240 260c140 0 210 -80 220 -170l-10 -10h-80l-10 10c-10 40 -40 80 -120 80c-90 0 -140 -60 -140 -170zM320 590l-10 -10h-80l-10 10
v80l10 10h80l10 -10v-80z" />
    <glyph glyph-name="Ccaron" unicode="&#x10c;" horiz-adv-x="690" 
d="M210 890l10 10h50l20 -10l70 -60h20l70 60l20 10h50l10 -10v-20l-90 -100l-20 -10h-100l-20 10l-90 100v20zM370 -10c-210 0 -330 150 -330 360s120 360 330 360c160 0 260 -90 280 -210l-10 -10h-80l-10 10c-20 70 -80 120 -180 120c-150 0 -230 -110 -230 -270
s80 -270 230 -270c110 0 160 60 180 130l10 10h80l10 -10c-20 -120 -110 -220 -280 -220z" />
    <glyph glyph-name="ccaron" unicode="&#x10d;" horiz-adv-x="520" 
d="M130 250c0 -110 50 -170 140 -170c80 0 110 40 120 80l10 10h80l10 -10c-10 -90 -80 -170 -220 -170c-150 0 -240 100 -240 260s90 260 240 260c140 0 210 -80 220 -170l-10 -10h-80l-10 10c-10 40 -40 80 -120 80c-90 0 -140 -60 -140 -170zM110 690l10 10h50l20 -10
l70 -60h20l70 60l20 10h50l10 -10v-20l-90 -100l-20 -10h-100l-20 10l-90 100v20z" />
    <glyph glyph-name="Dcaron" unicode="&#x10e;" horiz-adv-x="670" 
d="M630 350c0 -210 -80 -350 -330 -350h-210l-10 10v680l10 10h210c250 0 330 -140 330 -350zM530 350c0 170 -50 260 -240 260h-100l-10 -10v-500l10 -10h100c190 0 240 90 240 260zM160 890l10 10h50l20 -10l70 -60h20l70 60l20 10h50l10 -10v-20l-90 -100l-20 -10h-100
l-20 10l-90 100v20z" />
    <glyph glyph-name="dcaron" unicode="&#x10f;" horiz-adv-x="640" 
d="M490 10l-10 -10h-70l-10 10l-10 40h-10s-40 -60 -130 -60c-140 0 -220 110 -220 260s80 260 220 260c90 0 130 -60 130 -60h10v240l10 10h80l10 -10v-680zM390 250c0 120 -50 170 -130 170s-130 -60 -130 -170s50 -170 130 -170s130 50 130 170zM640 590l-10 -30l-50 -70
l-10 -10h-30v10l50 80v10l-10 10h-20l-10 10v90l10 10h70l10 -10v-100z" />
    <glyph glyph-name="Dcroat" unicode="&#x110;" horiz-adv-x="670" 
d="M0 320v70l10 10h60l10 10v280l10 10h210c250 0 330 -140 330 -350s-80 -350 -330 -350h-210l-10 10v290l-10 10h-60zM530 350c0 170 -50 260 -240 260h-100l-10 -10v-190l10 -10h150l10 -10v-70l-10 -10h-150l-10 -10v-200l10 -10h100c190 0 240 90 240 260z" />
    <glyph glyph-name="dcroat" unicode="&#x111;" horiz-adv-x="550" 
d="M490 10l-10 -10h-70l-10 10l-10 40h-10s-40 -60 -130 -60c-140 0 -220 110 -220 260s80 260 220 260c90 0 130 -60 130 -60h10v90l-10 10h-100l-10 10v60l10 10h100l10 10v50l10 10h80l10 -10v-50l10 -10h50l10 -10v-60l-10 -10h-50l-10 -10v-530zM390 250
c0 120 -50 170 -130 170s-130 -60 -130 -170s50 -170 130 -170s130 50 130 170z" />
    <glyph glyph-name="Emacron" unicode="&#x112;" horiz-adv-x="610" 
d="M550 10l-10 -10h-450l-10 10v680l10 10h450l10 -10v-70l-10 -10h-350l-10 -10v-190l10 -10h330l10 -10v-70l-10 -10h-330l-10 -10v-200l10 -10h350l10 -10v-70zM480 790l-10 -10h-300l-10 10v60l10 10h300l10 -10v-60z" />
    <glyph glyph-name="emacron" unicode="&#x113;" horiz-adv-x="520" 
d="M370 290l10 10c0 30 -10 120 -120 120s-120 -90 -120 -120l10 -10h220zM270 -10c-160 0 -240 110 -240 260c0 140 70 260 230 260s230 -120 230 -260v-30l-10 -10h-330l-10 -10c0 -20 10 -120 130 -120c40 0 80 10 100 60l10 10h80l10 -10c-10 -80 -80 -150 -200 -150z
M420 590l-10 -10h-300l-10 10v60l10 10h300l10 -10v-60z" />
    <glyph glyph-name="Ebreve" unicode="&#x114;" horiz-adv-x="610" 
d="M550 10l-10 -10h-450l-10 10v680l10 10h450l10 -10v-70l-10 -10h-350l-10 -10v-190l10 -10h330l10 -10v-70l-10 -10h-330l-10 -10v-200l10 -10h350l10 -10v-70zM240 890l10 -10c0 -40 30 -60 70 -60s70 20 70 60l10 10h50l10 -10c0 -80 -60 -130 -140 -130
s-140 50 -140 130l10 10h50z" />
    <glyph glyph-name="ebreve" unicode="&#x115;" horiz-adv-x="520" 
d="M370 290l10 10c0 30 -10 120 -120 120s-120 -90 -120 -120l10 -10h220zM270 -10c-160 0 -240 110 -240 260c0 140 70 260 230 260s230 -120 230 -260v-30l-10 -10h-330l-10 -10c0 -20 10 -120 130 -120c40 0 80 10 100 60l10 10h80l10 -10c-10 -80 -80 -150 -200 -150z
M180 690l10 -10c0 -40 30 -60 70 -60s70 20 70 60l10 10h50l10 -10c0 -80 -60 -130 -140 -130s-140 50 -140 130l10 10h50z" />
    <glyph glyph-name="Edotaccent" unicode="&#x116;" horiz-adv-x="610" 
d="M550 10l-10 -10h-450l-10 10v680l10 10h450l10 -10v-70l-10 -10h-350l-10 -10v-190l10 -10h330l10 -10v-70l-10 -10h-330l-10 -10v-200l10 -10h350l10 -10v-70zM370 790l-10 -10h-80l-10 10v80l10 10h80l10 -10v-80z" />
    <glyph glyph-name="edotaccent" unicode="&#x117;" horiz-adv-x="520" 
d="M370 290l10 10c0 30 -10 120 -120 120s-120 -90 -120 -120l10 -10h220zM270 -10c-160 0 -240 110 -240 260c0 140 70 260 230 260s230 -120 230 -260v-30l-10 -10h-330l-10 -10c0 -20 10 -120 130 -120c40 0 80 10 100 60l10 10h80l10 -10c-10 -80 -80 -150 -200 -150z
M310 590l-10 -10h-80l-10 10v80l10 10h80l10 -10v-80z" />
    <glyph glyph-name="Eogonek" unicode="&#x118;" horiz-adv-x="610" 
d="M410 -10v10h-320l-10 10v680l10 10h450l10 -10v-70l-10 -10h-350l-10 -10v-190l10 -10h330l10 -10v-70l-10 -10h-330l-10 -10v-200l10 -10h350l10 -10v-70l-10 -10c-70 -10 -110 -40 -110 -80c0 -30 20 -50 50 -50s50 10 50 10l10 -10v-40l-10 -10s-30 -20 -70 -20
c-60 0 -110 40 -110 100c0 40 20 70 60 90z" />
    <glyph glyph-name="eogonek" unicode="&#x119;" horiz-adv-x="520" 
d="M470 140c-20 -150 -190 -130 -190 -220c0 -30 20 -50 50 -50s50 10 50 10l10 -10v-40l-10 -10s-30 -20 -70 -20c-60 0 -110 40 -110 100c0 50 30 70 50 80v10c-140 10 -220 110 -220 260c0 140 70 260 230 260s230 -120 230 -260v-30l-10 -10h-330l-10 -10
c0 -20 10 -120 130 -120c40 0 80 10 100 60l10 10h80zM370 290l10 10c0 30 -10 120 -120 120s-120 -90 -120 -120l10 -10h220z" />
    <glyph glyph-name="Ecaron" unicode="&#x11a;" horiz-adv-x="610" 
d="M550 10l-10 -10h-450l-10 10v680l10 10h450l10 -10v-70l-10 -10h-350l-10 -10v-190l10 -10h330l10 -10v-70l-10 -10h-330l-10 -10v-200l10 -10h350l10 -10v-70zM160 890l10 10h50l20 -10l70 -60h20l70 60l20 10h50l10 -10v-20l-90 -100l-20 -10h-100l-20 10l-90 100v20z
" />
    <glyph glyph-name="ecaron" unicode="&#x11b;" horiz-adv-x="520" 
d="M370 290l10 10c0 30 -10 120 -120 120s-120 -90 -120 -120l10 -10h220zM270 -10c-160 0 -240 110 -240 260c0 140 70 260 230 260s230 -120 230 -260v-30l-10 -10h-330l-10 -10c0 -20 10 -120 130 -120c40 0 80 10 100 60l10 10h80l10 -10c-10 -80 -80 -150 -200 -150z
M100 690l10 10h50l20 -10l70 -60h20l70 60l20 10h50l10 -10v-20l-90 -100l-20 -10h-100l-20 10l-90 100v20z" />
    <glyph glyph-name="Gcircumflex" unicode="&#x11c;" horiz-adv-x="720" 
d="M370 620c-150 0 -230 -110 -230 -270s80 -270 220 -270c150 0 200 90 200 190l-10 10h-200l-10 10v70l10 10h300l10 -10v-350l-10 -10h-60l-10 10l-10 60h-10c-50 -50 -110 -80 -200 -80c-200 0 -320 150 -320 360s120 360 330 360c190 0 270 -110 290 -210l-10 -10h-80
l-10 10c-20 70 -80 120 -190 120zM520 770l-10 -10h-50l-20 10l-70 60h-20l-70 -60l-20 -10h-50l-10 10v20l90 100l20 10h100l20 -10l90 -100v-20z" />
    <glyph glyph-name="gcircumflex" unicode="&#x11d;" horiz-adv-x="550" 
d="M260 -120c90 0 130 60 130 170h-10s-40 -60 -130 -60c-140 0 -220 110 -220 260s80 260 220 260c90 0 130 -60 130 -60h10l10 40l10 10h70l10 -10v-430c0 -200 -110 -270 -230 -270s-190 60 -200 140l10 10h80l10 -10c20 -40 50 -50 100 -50zM390 250
c0 120 -50 170 -130 170s-130 -60 -130 -170s50 -170 130 -170s130 50 130 170zM430 570l-10 -10h-50l-20 10l-70 60h-20l-70 -60l-20 -10h-50l-10 10v20l90 100l20 10h100l20 -10l90 -100v-20z" />
    <glyph glyph-name="Gbreve" unicode="&#x11e;" horiz-adv-x="720" 
d="M370 620c-150 0 -230 -110 -230 -270s80 -270 220 -270c150 0 200 90 200 190l-10 10h-200l-10 10v70l10 10h300l10 -10v-350l-10 -10h-60l-10 10l-10 60h-10c-50 -50 -110 -80 -200 -80c-200 0 -320 150 -320 360s120 360 330 360c190 0 270 -110 290 -210l-10 -10h-80
l-10 10c-20 70 -80 120 -190 120zM280 890l10 -10c0 -40 30 -60 70 -60s70 20 70 60l10 10h50l10 -10c0 -80 -60 -130 -140 -130s-140 50 -140 130l10 10h50z" />
    <glyph glyph-name="gbreve" unicode="&#x11f;" horiz-adv-x="550" 
d="M260 -120c90 0 130 60 130 170h-10s-40 -60 -130 -60c-140 0 -220 110 -220 260s80 260 220 260c90 0 130 -60 130 -60h10l10 40l10 10h70l10 -10v-430c0 -200 -110 -270 -230 -270s-190 60 -200 140l10 10h80l10 -10c20 -40 50 -50 100 -50zM390 250
c0 120 -50 170 -130 170s-130 -60 -130 -170s50 -170 130 -170s130 50 130 170zM180 690l10 -10c0 -40 30 -60 70 -60s70 20 70 60l10 10h50l10 -10c0 -80 -60 -130 -140 -130s-140 50 -140 130l10 10h50z" />
    <glyph glyph-name="Gdotaccent" unicode="&#x120;" horiz-adv-x="720" 
d="M370 620c-150 0 -230 -110 -230 -270s80 -270 220 -270c150 0 200 90 200 190l-10 10h-200l-10 10v70l10 10h300l10 -10v-350l-10 -10h-60l-10 10l-10 60h-10c-50 -50 -110 -80 -200 -80c-200 0 -320 150 -320 360s120 360 330 360c190 0 270 -110 290 -210l-10 -10h-80
l-10 10c-20 70 -80 120 -190 120zM410 790l-10 -10h-80l-10 10v80l10 10h80l10 -10v-80z" />
    <glyph glyph-name="gdotaccent" unicode="&#x121;" horiz-adv-x="550" 
d="M260 -120c90 0 130 60 130 170h-10s-40 -60 -130 -60c-140 0 -220 110 -220 260s80 260 220 260c90 0 130 -60 130 -60h10l10 40l10 10h70l10 -10v-430c0 -200 -110 -270 -230 -270s-190 60 -200 140l10 10h80l10 -10c20 -40 50 -50 100 -50zM390 250
c0 120 -50 170 -130 170s-130 -60 -130 -170s50 -170 130 -170s130 50 130 170zM310 590l-10 -10h-80l-10 10v80l10 10h80l10 -10v-80z" />
    <glyph glyph-name="Gcommaaccent" unicode="&#x122;" horiz-adv-x="720" 
d="M370 620c-150 0 -230 -110 -230 -270s80 -270 220 -270c150 0 200 90 200 190l-10 10h-200l-10 10v70l10 10h300l10 -10v-350l-10 -10h-60l-10 10l-10 60h-10c-50 -50 -110 -80 -200 -80c-200 0 -320 150 -320 360s120 360 330 360c190 0 270 -110 290 -210l-10 -10h-80
l-10 10c-20 70 -80 120 -190 120zM410 -130l-10 -30l-50 -50l-20 -10h-20v10l40 60v10l-10 10h-20l-10 10v70l10 10h80l10 -10v-80z" />
    <glyph glyph-name="gcommaaccent" unicode="&#x123;" horiz-adv-x="550" 
d="M260 -120c90 0 130 60 130 170h-10s-40 -60 -130 -60c-140 0 -220 110 -220 260s80 260 220 260c90 0 130 -60 130 -60h10l10 40l10 10h70l10 -10v-430c0 -200 -110 -270 -230 -270s-190 60 -200 140l10 10h80l10 -10c20 -40 50 -50 100 -50zM390 250
c0 120 -50 170 -130 170s-130 -60 -130 -170s50 -170 130 -170s130 50 130 170zM210 670l10 30l50 50l20 10h20v-10l-40 -60v-10l10 -10h20l10 -10v-70l-10 -10h-80l-10 10v80z" />
    <glyph glyph-name="Hcircumflex" unicode="&#x124;" horiz-adv-x="710" 
d="M510 770l-10 -10h-50l-20 10l-70 60h-10l-70 -60l-20 -10h-50l-10 10v20l90 100l20 10h90l20 -10l90 -100v-20zM630 10l-10 -10h-80l-10 10v290l-10 10h-330l-10 -10v-290l-10 -10h-80l-10 10v680l10 10h80l10 -10v-280l10 -10h330l10 10v280l10 10h80l10 -10v-680z" />
    <glyph glyph-name="hcircumflex" unicode="&#x125;" horiz-adv-x="550" 
d="M490 10l-10 -10h-80l-10 10v290c0 60 -20 120 -100 120s-130 -40 -130 -160v-250l-10 -10h-80l-10 10v680l10 10h80l10 -10v-240h10s40 60 130 60c150 0 190 -100 190 -210v-290zM270 730l-10 -10h-50l-20 10l-70 60h-20l-70 -60l-20 -10h-50l-10 10v20l90 100l20 10h100
l20 -10l90 -100v-20z" />
    <glyph glyph-name="Hbar" unicode="&#x126;" horiz-adv-x="710" 
d="M630 10l-10 -10h-80l-10 10v290l-10 10h-330l-10 -10v-290l-10 -10h-80l-10 10v490l-10 10h-60l-10 10v60l10 10h60l10 10v90l10 10h80l10 -10v-90l10 -10h330l10 10v90l10 10h80l10 -10v-90l10 -10h60l10 -10v-60l-10 -10h-60l-10 -10v-490zM520 400l10 10v90l-10 10
h-330l-10 -10v-90l10 -10h330z" />
    <glyph glyph-name="hbar" unicode="&#x127;" horiz-adv-x="550" 
d="M60 630v60l10 10h80l10 -10v-60l10 -10h140l10 -10v-60l-10 -10h-140l-10 -10v-80h10s40 60 130 60c150 0 190 -100 190 -210v-290l-10 -10h-80l-10 10v290c0 60 -20 120 -100 120s-130 -40 -130 -160v-250l-10 -10h-80l-10 10v520l-10 10h-50l-10 10v60l10 10h50z" />
    <glyph glyph-name="Itilde" unicode="&#x128;" horiz-adv-x="260" 
d="M180 10l-10 -10h-80l-10 10v680l10 10h80l10 -10v-680zM200 750c-80 0 -100 70 -140 70c-30 0 -40 -20 -40 -50l-10 -10h-30l-10 10c0 60 30 110 100 110c80 0 100 -70 140 -70c30 0 40 20 40 50l10 10h30l10 -10c0 -60 -30 -110 -100 -110z" />
    <glyph glyph-name="itilde" unicode="&#x129;" horiz-adv-x="220" 
d="M160 10l-10 -10h-80l-10 10v480l10 10h80l10 -10v-480zM180 550c-80 0 -100 70 -140 70c-30 0 -40 -20 -40 -50l-10 -10h-30l-10 10c0 60 30 110 100 110c80 0 100 -70 140 -70c30 0 40 20 40 50l10 10h30l10 -10c0 -60 -30 -110 -100 -110z" />
    <glyph glyph-name="Imacron" unicode="&#x12a;" horiz-adv-x="260" 
d="M180 10l-10 -10h-80l-10 10v680l10 10h80l10 -10v-680zM290 790l-10 -10h-300l-10 10v60l10 10h300l10 -10v-60z" />
    <glyph glyph-name="imacron" unicode="&#x12b;" horiz-adv-x="220" 
d="M160 10l-10 -10h-80l-10 10v480l10 10h80l10 -10v-480zM270 590l-10 -10h-300l-10 10v60l10 10h300l10 -10v-60z" />
    <glyph glyph-name="Ibreve" unicode="&#x12c;" horiz-adv-x="260" 
d="M180 10l-10 -10h-80l-10 10v680l10 10h80l10 -10v-680zM50 890l10 -10c0 -40 30 -60 70 -60s70 20 70 60l10 10h50l10 -10c0 -80 -60 -130 -140 -130s-140 50 -140 130l10 10h50z" />
    <glyph glyph-name="ibreve" unicode="&#x12d;" horiz-adv-x="220" 
d="M160 10l-10 -10h-80l-10 10v480l10 10h80l10 -10v-480zM30 690l10 -10c0 -40 30 -60 70 -60s70 20 70 60l10 10h50l10 -10c0 -80 -60 -130 -140 -130s-140 50 -140 130l10 10h50z" />
    <glyph glyph-name="Iogonek" unicode="&#x12e;" horiz-adv-x="260" 
d="M80 10v680l10 10h80l10 -10v-680l-10 -10c-60 -10 -100 -40 -100 -80c0 -30 20 -50 50 -50s50 10 50 10l10 -10v-40l-10 -10s-30 -20 -70 -20c-60 0 -110 40 -110 100c0 70 50 100 90 110z" />
    <glyph glyph-name="iogonek" unicode="&#x12f;" horiz-adv-x="220" 
d="M160 590l-10 -10h-80l-10 10v80l10 10h80l10 -10v-80zM60 10v480l10 10h80l10 -10v-480l-10 -10c-60 -10 -100 -40 -100 -80c0 -30 20 -50 50 -50s50 10 50 10l10 -10v-40l-10 -10s-30 -20 -70 -20c-60 0 -110 40 -110 100c0 70 50 100 90 110z" />
    <glyph glyph-name="Idotaccent" unicode="&#x130;" horiz-adv-x="260" 
d="M180 10l-10 -10h-80l-10 10v680l10 10h80l10 -10v-680zM180 790l-10 -10h-80l-10 10v80l10 10h80l10 -10v-80z" />
    <glyph glyph-name="dotlessi" unicode="&#x131;" horiz-adv-x="220" 
d="M160 10l-10 -10h-80l-10 10v480l10 10h80l10 -10v-480z" />
    <glyph glyph-name="IJ" unicode="&#x132;" horiz-adv-x="620" 
d="M180 10l-10 -10h-80l-10 10v680l10 10h80l10 -10v-680zM270 0l-10 10v70l10 10h60c70 0 110 30 110 110v490l10 10h80l10 -10v-490c0 -110 -60 -200 -210 -200h-60z" />
    <glyph glyph-name="ij" unicode="&#x133;" horiz-adv-x="420" 
d="M160 590l-10 -10h-80l-10 10v80l10 10h80l10 -10v-80zM160 10l-10 -10h-80l-10 10v480l10 10h80l10 -10v-480zM360 590l-10 -10h-80l-10 10v80l10 10h80l10 -10v-80zM360 490v-540c0 -90 -70 -130 -140 -130h-50l-10 10v70l10 10h50c20 0 40 10 40 40v540l10 10h80z" />
    <glyph glyph-name="Jcircumflex" unicode="&#x134;" horiz-adv-x="510" 
d="M430 190c0 -110 -60 -200 -210 -200c-170 0 -200 120 -200 190v20l10 10h80l10 -10v-20c0 -40 10 -100 100 -100c70 0 110 30 110 110v500l10 10h80l10 -10v-500zM540 770l-10 -10h-50l-20 10l-70 60h-20l-70 -60l-20 -10h-50l-10 10v20l90 100l20 10h100l20 -10l90 -100
v-20z" />
    <glyph glyph-name="jcircumflex" unicode="&#x135;" horiz-adv-x="220" 
d="M160 490v-540c0 -90 -70 -130 -140 -130h-50l-10 10v70l10 10h50c20 0 40 10 40 40v540l10 10h80zM270 570l-10 -10h-50l-20 10l-70 60h-20l-70 -60l-20 -10h-50l-10 10v20l90 100l20 10h100l20 -10l90 -100v-20z" />
    <glyph glyph-name="Kcommaaccent" unicode="&#x136;" horiz-adv-x="620" 
d="M600 10l-10 -10h-40l-20 10l-240 310h-10l-90 -90l-10 -20v-200l-10 -10h-80l-10 10v680l10 10h80l10 -10v-330h10l330 330l20 10h30l10 -10v-70l-220 -220v-10l240 -310v-70zM370 -130l-10 -30l-50 -50l-20 -10h-20v10l40 60v10l-10 10h-20l-10 10v70l10 10h80l10 -10
v-80z" />
    <glyph glyph-name="kcommaaccent" unicode="&#x137;" horiz-adv-x="500" 
d="M470 10l-10 -10h-40l-20 10l-150 190h-10l-70 -70l-10 -20v-100l-10 -10h-80l-10 10v680l10 10h80l10 -10v-430h10l230 230l20 10h30l10 -10v-70l-140 -140v-10l150 -190v-70zM310 -130l-10 -30l-50 -50l-20 -10h-20v10l40 60v10l-10 10h-20l-10 10v70l10 10h80l10 -10
v-80z" />
    <glyph glyph-name="kgreenlandic" unicode="&#x138;" horiz-adv-x="500" 
d="M470 10l-10 -10h-40l-20 10l-150 190h-10l-70 -70l-10 -20v-100l-10 -10h-80l-10 10v480l10 10h80l10 -10v-230h10l230 230l20 10h30l10 -10v-70l-140 -140v-10l150 -190v-70z" />
    <glyph glyph-name="Lacute" unicode="&#x139;" horiz-adv-x="540" 
d="M530 10l-10 -10h-430l-10 10v680l10 10h80l10 -10v-590l10 -10h330l10 -10v-70zM260 870l-110 -100l-20 -10h-50l-10 10v20l90 100l20 10h70l10 -10v-20z" />
    <glyph glyph-name="lacute" unicode="&#x13a;" horiz-adv-x="220" 
d="M160 10l-10 -10h-80l-10 10v680l10 10h80l10 -10v-680zM240 870l-110 -100l-20 -10h-50l-10 10v20l90 100l20 10h70l10 -10v-20z" />
    <glyph glyph-name="Lcommaaccent" unicode="&#x13b;" horiz-adv-x="540" 
d="M530 10l-10 -10h-430l-10 10v680l10 10h80l10 -10v-590l10 -10h330l10 -10v-70zM350 -130l-10 -30l-50 -50l-20 -10h-20v10l40 60v10l-10 10h-20l-10 10v70l10 10h80l10 -10v-80z" />
    <glyph glyph-name="lcommaaccent" unicode="&#x13c;" horiz-adv-x="220" 
d="M160 10l-10 -10h-80l-10 10v680l10 10h80l10 -10v-680zM160 -130l-10 -30l-50 -50l-20 -10h-20v10l40 60v10l-10 10h-20l-10 10v70l10 10h80l10 -10v-80z" />
    <glyph glyph-name="Lcaron" unicode="&#x13d;" horiz-adv-x="540" 
d="M530 10l-10 -10h-430l-10 10v680l10 10h80l10 -10v-590l10 -10h330l10 -10v-70zM350 590l-10 -30l-50 -70l-10 -10h-30v10l50 80v10l-10 10h-20l-10 10v90l10 10h70l10 -10v-100z" />
    <glyph glyph-name="lcaron" unicode="&#x13e;" horiz-adv-x="310" 
d="M160 10l-10 -10h-80l-10 10v680l10 10h80l10 -10v-680zM310 590l-10 -30l-50 -70l-10 -10h-30v10l50 80v10l-10 10h-20l-10 10v90l10 10h70l10 -10v-100z" />
    <glyph glyph-name="Ldot" unicode="&#x13f;" horiz-adv-x="540" 
d="M530 10l-10 -10h-430l-10 10v680l10 10h80l10 -10v-590l10 -10h330l10 -10v-70zM440 350l-10 -10h-80l-10 10v80l10 10h80l10 -10v-80z" />
    <glyph glyph-name="ldot" unicode="&#x140;" horiz-adv-x="350" 
d="M160 10l-10 -10h-80l-10 10v680l10 10h80l10 -10v-680zM340 350l-10 -10h-80l-10 10v80l10 10h80l10 -10v-80z" />
    <glyph glyph-name="Lslash" unicode="&#x141;" horiz-adv-x="540" 
d="M80 200h-10l-40 -30h-30l-10 10v60l80 60l10 20v370l10 10h80l10 -10v-310h10l160 120h30l10 -10v-60l-200 -150l-10 -20v-160l10 -10h330l10 -10v-70l-10 -10h-430l-10 10v190z" />
    <glyph glyph-name="lslash" unicode="&#x142;" horiz-adv-x="210" 
d="M170 470h10l40 30h30l10 -10v-60l-80 -60l-10 -20v-340l-10 -10h-80l-10 10v280h-10l-40 -30h-30l-10 10v60l80 60l10 20v280l10 10h80l10 -10v-220z" />
    <glyph glyph-name="Nacute" unicode="&#x143;" horiz-adv-x="730" 
d="M650 10l-10 -10h-90l-20 10l-340 520h-10v-520l-10 -10h-80l-10 10v680l10 10h90l20 -10l340 -520h10v520l10 10h80l10 -10v-680zM480 870l-110 -100l-20 -10h-50l-10 10v20l90 100l20 10h70l10 -10v-20z" />
    <glyph glyph-name="nacute" unicode="&#x144;" horiz-adv-x="540" 
d="M490 10l-10 -10h-80l-10 10v290c0 50 -10 120 -100 120s-130 -50 -130 -170v-240l-10 -10h-80l-10 10v480l10 10h70l10 -10l10 -40h10s40 60 130 60c140 0 190 -90 190 -210v-290zM400 670l-110 -100l-20 -10h-50l-10 10v20l90 100l20 10h70l10 -10v-20z" />
    <glyph glyph-name="Ncommaaccent" unicode="&#x145;" horiz-adv-x="730" 
d="M650 10l-10 -10h-90l-20 10l-340 520h-10v-520l-10 -10h-80l-10 10v680l10 10h90l20 -10l340 -520h10v520l10 10h80l10 -10v-680zM420 -130l-10 -30l-50 -50l-20 -10h-20v10l40 60v10l-10 10h-20l-10 10v70l10 10h80l10 -10v-80z" />
    <glyph glyph-name="ncommaaccent" unicode="&#x146;" horiz-adv-x="540" 
d="M490 10l-10 -10h-80l-10 10v290c0 50 -10 120 -100 120s-130 -50 -130 -170v-240l-10 -10h-80l-10 10v480l10 10h70l10 -10l10 -40h10s40 60 130 60c140 0 190 -90 190 -210v-290zM330 -130l-10 -30l-50 -50l-20 -10h-20v10l40 60v10l-10 10h-20l-10 10v70l10 10h80
l10 -10v-80z" />
    <glyph glyph-name="Ncaron" unicode="&#x147;" horiz-adv-x="730" 
d="M650 10l-10 -10h-90l-20 10l-340 520h-10v-520l-10 -10h-80l-10 10v680l10 10h90l20 -10l340 -520h10v520l10 10h80l10 -10v-680zM210 890l10 10h50l20 -10l70 -60h20l70 60l20 10h50l10 -10v-20l-90 -100l-20 -10h-100l-20 10l-90 100v20z" />
    <glyph glyph-name="ncaron" unicode="&#x148;" horiz-adv-x="540" 
d="M490 10l-10 -10h-80l-10 10v290c0 50 -10 120 -100 120s-130 -50 -130 -170v-240l-10 -10h-80l-10 10v480l10 10h70l10 -10l10 -40h10s40 60 130 60c140 0 190 -90 190 -210v-290zM120 690l10 10h50l20 -10l70 -60h20l70 60l20 10h50l10 -10v-20l-90 -100l-20 -10h-100
l-20 10l-90 100v20z" />
    <glyph glyph-name="napostrophe" unicode="&#x149;" horiz-adv-x="540" 
d="M490 10l-10 -10h-80l-10 10v290c0 50 -10 120 -100 120s-130 -50 -130 -170v-240l-10 -10h-80l-10 10v480l10 10h70l10 -10l10 -40h10s40 60 130 60c140 0 190 -90 190 -210v-290zM100 610l-10 -30l-50 -70l-10 -10h-30v10l50 80v10l-10 10h-20l-10 10v90l10 10h70
l10 -10v-100z" />
    <glyph glyph-name="Eng" unicode="&#x14a;" horiz-adv-x="730" 
d="M440 -120c70 0 110 30 110 110l-360 540h-10v-520l-10 -10h-80l-10 10v680l10 10h90l20 -10l340 -510h10v510l10 10h80l10 -10v-700c0 -120 -70 -200 -210 -200l-10 10v70z" />
    <glyph glyph-name="eng" unicode="&#x14b;" horiz-adv-x="540" 
d="M390 0v300c0 50 -10 120 -100 120s-130 -50 -130 -170v-240l-10 -10h-80l-10 10v480l10 10h70l10 -10l10 -40h10s40 60 130 60c140 0 190 -90 190 -210v-300c0 -120 -70 -200 -210 -200l-10 10v70l10 10c70 0 110 30 110 110z" />
    <glyph glyph-name="Omacron" unicode="&#x14c;" horiz-adv-x="740" 
d="M40 350c0 210 120 360 330 360s330 -150 330 -360s-120 -360 -330 -360s-330 150 -330 360zM140 350c0 -160 80 -270 230 -270s230 110 230 270s-80 270 -230 270s-230 -110 -230 -270zM530 790l-10 -10h-300l-10 10v60l10 10h300l10 -10v-60z" />
    <glyph glyph-name="omacron" unicode="&#x14d;" horiz-adv-x="540" 
d="M30 250c0 160 90 260 240 260s240 -100 240 -260s-90 -260 -240 -260s-240 100 -240 260zM130 250c0 -110 50 -170 140 -170s140 60 140 170s-50 170 -140 170s-140 -60 -140 -170zM430 590l-10 -10h-300l-10 10v60l10 10h300l10 -10v-60z" />
    <glyph glyph-name="Obreve" unicode="&#x14e;" horiz-adv-x="740" 
d="M40 350c0 210 120 360 330 360s330 -150 330 -360s-120 -360 -330 -360s-330 150 -330 360zM140 350c0 -160 80 -270 230 -270s230 110 230 270s-80 270 -230 270s-230 -110 -230 -270zM290 890l10 -10c0 -40 30 -60 70 -60s70 20 70 60l10 10h50l10 -10
c0 -80 -60 -130 -140 -130s-140 50 -140 130l10 10h50z" />
    <glyph glyph-name="obreve" unicode="&#x14f;" horiz-adv-x="540" 
d="M30 250c0 160 90 260 240 260s240 -100 240 -260s-90 -260 -240 -260s-240 100 -240 260zM130 250c0 -110 50 -170 140 -170s140 60 140 170s-50 170 -140 170s-140 -60 -140 -170zM190 690l10 -10c0 -40 30 -60 70 -60s70 20 70 60l10 10h50l10 -10
c0 -80 -60 -130 -140 -130s-140 50 -140 130l10 10h50z" />
    <glyph glyph-name="Ohungarumlaut" unicode="&#x150;" horiz-adv-x="740" 
d="M40 350c0 210 120 360 330 360s330 -150 330 -360s-120 -360 -330 -360s-330 150 -330 360zM140 350c0 -160 80 -270 230 -270s230 110 230 270s-80 270 -230 270s-230 -110 -230 -270zM390 870l-110 -100l-20 -10h-50l-10 10v20l90 100l20 10h70l10 -10v-20zM590 870
l-110 -100l-20 -10h-50l-10 10v20l90 100l20 10h70l10 -10v-20z" />
    <glyph glyph-name="ohungarumlaut" unicode="&#x151;" horiz-adv-x="540" 
d="M30 250c0 160 90 260 240 260s240 -100 240 -260s-90 -260 -240 -260s-240 100 -240 260zM130 250c0 -110 50 -170 140 -170s140 60 140 170s-50 170 -140 170s-140 -60 -140 -170zM300 670l-110 -100l-20 -10h-50l-10 10v20l90 100l20 10h70l10 -10v-20zM500 670
l-110 -100l-20 -10h-50l-10 10v20l90 100l20 10h70l10 -10v-20z" />
    <glyph glyph-name="OE" unicode="&#x152;" horiz-adv-x="1010" 
d="M510 690l10 10h420l10 -10v-70l-10 -10h-320l-10 -10v-190l10 -10h300l10 -10v-70l-10 -10h-300l-10 -10v-200l10 -10h320l10 -10v-70l-10 -10h-420l-10 10v30h-10s-60 -50 -170 -50c-180 0 -300 120 -300 360s120 360 300 360c110 0 170 -50 170 -50h10v30zM510 170v360
c-20 60 -90 90 -170 90c-140 0 -210 -90 -210 -270s70 -270 210 -270c80 0 150 30 170 90z" />
    <glyph glyph-name="oe" unicode="&#x153;" horiz-adv-x="890" 
d="M270 80c90 0 140 60 140 170s-50 170 -140 170s-140 -60 -140 -170s50 -170 140 -170zM740 290l10 10c0 30 -10 120 -120 120s-120 -90 -120 -120l10 -10h220zM270 -10c-150 0 -240 100 -240 260s90 260 240 260c100 0 150 -40 180 -80h10c30 40 80 80 170 80
c160 0 230 -120 230 -260v-30l-10 -10h-330l-10 -10c0 -20 10 -120 130 -120c40 0 80 10 100 60l10 10h80l10 -10c-10 -80 -80 -150 -200 -150c-70 0 -130 20 -180 70h-10c-40 -40 -100 -70 -180 -70z" />
    <glyph glyph-name="Racute" unicode="&#x154;" horiz-adv-x="670" 
d="M530 500c0 80 -40 110 -130 110h-210l-10 -10v-200l10 -10h210c90 0 130 30 130 110zM630 500c0 -110 -60 -170 -150 -190v-10l140 -220v-70l-10 -10h-40l-20 10l-180 280l-20 10h-160l-10 -10v-280l-10 -10h-80l-10 10v680l10 10h310c140 0 230 -60 230 -200zM450 870
l-110 -100l-20 -10h-50l-10 10v20l90 100l20 10h70l10 -10v-20z" />
    <glyph glyph-name="racute" unicode="&#x155;" horiz-adv-x="370" 
d="M350 420l-10 -10h-50c-80 0 -130 -30 -130 -150v-250l-10 -10h-80l-10 10v480l10 10h70l10 -10l10 -40h10c30 30 60 50 130 50h40l10 -10v-70zM310 670l-110 -100l-20 -10h-50l-10 10v20l90 100l20 10h70l10 -10v-20z" />
    <glyph glyph-name="Rcommaaccent" unicode="&#x156;" horiz-adv-x="670" 
d="M530 500c0 80 -40 110 -130 110h-210l-10 -10v-200l10 -10h210c90 0 130 30 130 110zM630 500c0 -110 -60 -170 -150 -190v-10l140 -220v-70l-10 -10h-40l-20 10l-180 280l-20 10h-160l-10 -10v-280l-10 -10h-80l-10 10v680l10 10h310c140 0 230 -60 230 -200zM400 -130
l-10 -30l-50 -50l-20 -10h-20v10l40 60v10l-10 10h-20l-10 10v70l10 10h80l10 -10v-80z" />
    <glyph glyph-name="rcommaaccent" unicode="&#x157;" horiz-adv-x="370" 
d="M350 420l-10 -10h-50c-80 0 -130 -30 -130 -150v-250l-10 -10h-80l-10 10v480l10 10h70l10 -10l10 -40h10c30 30 60 50 130 50h40l10 -10v-70zM160 -130l-10 -30l-50 -50l-20 -10h-20v10l40 60v10l-10 10h-20l-10 10v70l10 10h80l10 -10v-80z" />
    <glyph glyph-name="Rcaron" unicode="&#x158;" horiz-adv-x="670" 
d="M530 500c0 80 -40 110 -130 110h-210l-10 -10v-200l10 -10h210c90 0 130 30 130 110zM630 500c0 -110 -60 -170 -150 -190v-10l140 -220v-70l-10 -10h-40l-20 10l-180 280l-20 10h-160l-10 -10v-280l-10 -10h-80l-10 10v680l10 10h310c140 0 230 -60 230 -200zM180 890
l10 10h50l20 -10l70 -60h20l70 60l20 10h50l10 -10v-20l-90 -100l-20 -10h-100l-20 10l-90 100v20z" />
    <glyph glyph-name="rcaron" unicode="&#x159;" horiz-adv-x="370" 
d="M350 420l-10 -10h-50c-80 0 -130 -30 -130 -150v-250l-10 -10h-80l-10 10v480l10 10h70l10 -10l10 -40h10c30 30 60 50 130 50h40l10 -10v-70zM40 690l10 10h50l20 -10l70 -60h20l70 60l20 10h50l10 -10v-20l-90 -100l-20 -10h-100l-20 10l-90 100v20z" />
    <glyph glyph-name="Sacute" unicode="&#x15a;" horiz-adv-x="630" 
d="M590 190c0 -110 -80 -200 -270 -200c-170 0 -280 80 -280 230l10 10h80l10 -10c0 -100 70 -140 190 -140c90 0 160 30 160 110c0 90 -60 110 -200 130s-230 80 -230 200c0 90 70 190 250 190c150 0 260 -60 260 -210l-10 -10h-80l-10 10c0 80 -40 120 -170 120
c-90 0 -140 -40 -140 -100c0 -80 50 -100 190 -120s240 -70 240 -210zM420 870l-110 -100l-20 -10h-50l-10 10v20l90 100l20 10h70l10 -10v-20z" />
    <glyph glyph-name="sacute" unicode="&#x15b;" horiz-adv-x="460" 
d="M430 140c0 -80 -60 -150 -200 -150c-130 0 -200 60 -200 170l10 10h80l10 -10c0 -50 30 -80 100 -80s100 20 100 60c0 50 -30 60 -130 80s-160 60 -160 150c0 70 50 140 190 140c110 0 190 -50 190 -150l-10 -10h-80l-10 10c0 30 -20 60 -90 60c-50 0 -90 -10 -90 -50
c0 -50 40 -60 140 -80s150 -60 150 -150zM350 670l-110 -100l-20 -10h-50l-10 10v20l90 100l20 10h70l10 -10v-20z" />
    <glyph glyph-name="Scircumflex" unicode="&#x15c;" horiz-adv-x="630" 
d="M590 190c0 -110 -80 -200 -270 -200c-170 0 -280 80 -280 230l10 10h80l10 -10c0 -100 70 -140 190 -140c90 0 160 30 160 110c0 90 -60 110 -200 130s-230 80 -230 200c0 90 70 190 250 190c150 0 260 -60 260 -210l-10 -10h-80l-10 10c0 80 -40 120 -170 120
c-90 0 -140 -40 -140 -100c0 -80 50 -100 190 -120s240 -70 240 -210zM480 770l-10 -10h-50l-20 10l-70 60h-20l-70 -60l-20 -10h-50l-10 10v20l90 100l20 10h100l20 -10l90 -100v-20z" />
    <glyph glyph-name="scircumflex" unicode="&#x15d;" horiz-adv-x="460" 
d="M430 140c0 -80 -60 -150 -200 -150c-130 0 -200 60 -200 170l10 10h80l10 -10c0 -50 30 -80 100 -80s100 20 100 60c0 50 -30 60 -130 80s-160 60 -160 150c0 70 50 140 190 140c110 0 190 -50 190 -150l-10 -10h-80l-10 10c0 30 -20 60 -90 60c-50 0 -90 -10 -90 -50
c0 -50 40 -60 140 -80s150 -60 150 -150zM390 570l-10 -10h-50l-20 10l-70 60h-20l-70 -60l-20 -10h-50l-10 10v20l90 100l20 10h100l20 -10l90 -100v-20z" />
    <glyph glyph-name="Scedilla" unicode="&#x15e;" horiz-adv-x="630" 
d="M590 190c0 -140 -120 -190 -230 -200l-20 -10l-50 -50h10c20 10 30 10 40 10c30 0 60 -20 60 -70s-40 -80 -100 -80c-40 0 -60 10 -90 40v10l10 10h10c20 -20 40 -20 70 -20s50 10 50 40s-20 40 -50 40c-10 0 -20 0 -40 -10h-10l-10 10v10l60 60v10
c-180 10 -260 100 -260 230l10 10h80l10 -10c0 -100 70 -140 190 -140c90 0 160 30 160 110c0 90 -60 110 -200 130s-230 80 -230 200c0 90 70 190 250 190c150 0 260 -60 260 -210l-10 -10h-80l-10 10c0 80 -40 120 -170 120c-90 0 -140 -40 -140 -100
c0 -80 50 -100 190 -120s240 -70 240 -210z" />
    <glyph glyph-name="scedilla" unicode="&#x15f;" horiz-adv-x="460" 
d="M430 140c0 -80 -60 -140 -160 -150l-20 -10l-50 -50h10c20 10 30 10 40 10c30 0 60 -20 60 -70s-40 -80 -100 -80c-40 0 -60 10 -90 40v10l10 10h10c20 -20 40 -20 70 -20s50 10 50 40s-20 40 -50 40c-10 0 -20 0 -40 -10h-10l-10 10v10l60 60v10
c-150 10 -180 100 -180 170l10 10h80l10 -10c0 -50 30 -80 100 -80s100 20 100 60c0 50 -30 60 -130 80s-160 60 -160 150c0 70 50 140 190 140c110 0 190 -50 190 -150l-10 -10h-80l-10 10c0 30 -20 60 -90 60c-50 0 -90 -10 -90 -50c0 -50 40 -60 140 -80
s150 -60 150 -150z" />
    <glyph glyph-name="Scaron" unicode="&#x160;" horiz-adv-x="630" 
d="M590 190c0 -110 -80 -200 -270 -200c-170 0 -280 80 -280 230l10 10h80l10 -10c0 -100 70 -140 190 -140c90 0 160 30 160 110c0 90 -60 110 -200 130s-230 80 -230 200c0 90 70 190 250 190c150 0 260 -60 260 -210l-10 -10h-80l-10 10c0 80 -40 120 -170 120
c-90 0 -140 -40 -140 -100c0 -80 50 -100 190 -120s240 -70 240 -210zM150 890l10 10h50l20 -10l70 -60h20l70 60l20 10h50l10 -10v-20l-90 -100l-20 -10h-100l-20 10l-90 100v20z" />
    <glyph glyph-name="scaron" unicode="&#x161;" horiz-adv-x="460" 
d="M430 140c0 -80 -60 -150 -200 -150c-130 0 -200 60 -200 170l10 10h80l10 -10c0 -50 30 -80 100 -80s100 20 100 60c0 50 -30 60 -130 80s-160 60 -160 150c0 70 50 140 190 140c110 0 190 -50 190 -150l-10 -10h-80l-10 10c0 30 -20 60 -90 60c-50 0 -90 -10 -90 -50
c0 -50 40 -60 140 -80s150 -60 150 -150zM70 690l10 10h50l20 -10l70 -60h20l70 60l20 10h50l10 -10v-20l-90 -100l-20 -10h-100l-20 10l-90 100v20z" />
    <glyph glyph-name="Tcommaaccent" unicode="&#x162;" horiz-adv-x="600" 
d="M580 620l-10 -10h-210l-10 -10v-590l-10 -10h-80l-10 10v590l-10 10h-210l-10 10v70l10 10h540l10 -10v-70zM350 -130l-10 -30l-50 -50l-20 -10h-20v10l40 60v10l-10 10h-20l-10 10v70l10 10h80l10 -10v-80z" />
    <glyph glyph-name="tcommaaccent" unicode="&#x163;" horiz-adv-x="380" 
d="M340 10l-10 -10h-80c-70 0 -140 40 -140 130v270l-10 10h-70l-10 10v70l10 10h70l10 10v90l10 10h80l10 -10v-90l10 -10h110l10 -10v-70l-10 -10h-110l-10 -10v-270c0 -30 20 -40 40 -40h80l10 -10v-70zM260 -130l-10 -30l-50 -50l-20 -10h-20v10l40 60v10l-10 10h-20
l-10 10v70l10 10h80l10 -10v-80z" />
    <glyph glyph-name="Tcaron" unicode="&#x164;" horiz-adv-x="600" 
d="M580 620l-10 -10h-210l-10 -10v-590l-10 -10h-80l-10 10v590l-10 10h-210l-10 10v70l10 10h540l10 -10v-70zM140 890l10 10h50l20 -10l70 -60h20l70 60l20 10h50l10 -10v-20l-90 -100l-20 -10h-100l-20 10l-90 100v20z" />
    <glyph glyph-name="tcaron" unicode="&#x165;" horiz-adv-x="380" 
d="M340 10l-10 -10h-80c-70 0 -140 40 -140 130v270l-10 10h-70l-10 10v70l10 10h70l10 10v90l10 10h80l10 -10v-90l10 -10h110l10 -10v-70l-10 -10h-110l-10 -10v-270c0 -30 20 -40 40 -40h80l10 -10v-70zM350 640l-10 -30l-50 -70l-10 -10h-30v10l50 80v10l-10 10h-20
l-10 10v90l10 10h70l10 -10v-100z" />
    <glyph glyph-name="Tbar" unicode="&#x166;" horiz-adv-x="640" 
d="M370 320v-310l-10 -10h-80l-10 10v310l-10 10h-130l-10 10v60l10 10h130l10 10v180l-10 10h-210l-10 10v70l10 10h540l10 -10v-70l-10 -10h-210l-10 -10v-180l10 -10h130l10 -10v-60l-10 -10h-130z" />
    <glyph glyph-name="tbar" unicode="&#x167;" horiz-adv-x="380" 
d="M210 240v-110c0 -30 20 -40 40 -40h80l10 -10v-70l-10 -10h-80c-70 0 -140 40 -140 130v110l-10 10h-50l-10 10v60l10 10h50l10 10v60l-10 10h-70l-10 10v70l10 10h70l10 10v90l10 10h80l10 -10v-90l10 -10h110l10 -10v-70l-10 -10h-110l-10 -10v-60l10 -10h80l10 -10
v-60l-10 -10h-80z" />
    <glyph glyph-name="Utilde" unicode="&#x168;" horiz-adv-x="700" 
d="M620 690v-440c0 -160 -100 -260 -270 -260s-270 100 -270 260v440l10 10h80l10 -10v-440c0 -100 50 -170 170 -170s170 70 170 170v440l10 10h80zM420 750c-80 0 -100 70 -140 70c-30 0 -40 -20 -40 -50l-10 -10h-30l-10 10c0 60 30 110 100 110c80 0 100 -70 140 -70
c30 0 40 20 40 50l10 10h30l10 -10c0 -60 -30 -110 -100 -110z" />
    <glyph glyph-name="utilde" unicode="&#x169;" horiz-adv-x="530" 
d="M470 10l-10 -10h-70l-10 10l-10 40h-10s-40 -60 -120 -60c-140 0 -190 100 -190 210v290l10 10h80l10 -10v-290c0 -60 20 -120 100 -120c70 0 120 50 120 170v240l10 10h80l10 -10v-480zM330 550c-80 0 -100 70 -140 70c-30 0 -40 -20 -40 -50l-10 -10h-30l-10 10
c0 60 30 110 100 110c80 0 100 -70 140 -70c30 0 40 20 40 50l10 10h30l10 -10c0 -60 -30 -110 -100 -110z" />
    <glyph glyph-name="Umacron" unicode="&#x16a;" horiz-adv-x="700" 
d="M620 690v-440c0 -160 -100 -260 -270 -260s-270 100 -270 260v440l10 10h80l10 -10v-440c0 -100 50 -170 170 -170s170 70 170 170v440l10 10h80zM510 790l-10 -10h-300l-10 10v60l10 10h300l10 -10v-60z" />
    <glyph glyph-name="umacron" unicode="&#x16b;" horiz-adv-x="530" 
d="M470 10l-10 -10h-70l-10 10l-10 40h-10s-40 -60 -120 -60c-140 0 -190 100 -190 210v290l10 10h80l10 -10v-290c0 -60 20 -120 100 -120c70 0 120 50 120 170v240l10 10h80l10 -10v-480zM420 590l-10 -10h-300l-10 10v60l10 10h300l10 -10v-60z" />
    <glyph glyph-name="Ubreve" unicode="&#x16c;" horiz-adv-x="700" 
d="M620 690v-440c0 -160 -100 -260 -270 -260s-270 100 -270 260v440l10 10h80l10 -10v-440c0 -100 50 -170 170 -170s170 70 170 170v440l10 10h80zM270 890l10 -10c0 -40 30 -60 70 -60s70 20 70 60l10 10h50l10 -10c0 -80 -60 -130 -140 -130s-140 50 -140 130l10 10h50z
" />
    <glyph glyph-name="ubreve" unicode="&#x16d;" horiz-adv-x="530" 
d="M470 10l-10 -10h-70l-10 10l-10 40h-10s-40 -60 -120 -60c-140 0 -190 100 -190 210v290l10 10h80l10 -10v-290c0 -60 20 -120 100 -120c70 0 120 50 120 170v240l10 10h80l10 -10v-480zM180 690l10 -10c0 -40 30 -60 70 -60s70 20 70 60l10 10h50l10 -10
c0 -80 -60 -130 -140 -130s-140 50 -140 130l10 10h50z" />
    <glyph glyph-name="Uring" unicode="&#x16e;" horiz-adv-x="700" 
d="M620 690v-440c0 -160 -100 -260 -270 -260s-270 100 -270 260v440l10 10h80l10 -10v-440c0 -100 50 -170 170 -170s170 70 170 170v440l10 10h80zM450 810c0 -50 -40 -90 -100 -90s-100 40 -100 90s40 90 100 90s100 -40 100 -90zM390 810c0 20 -10 40 -40 40
s-40 -20 -40 -40s10 -40 40 -40s40 20 40 40z" />
    <glyph glyph-name="uring" unicode="&#x16f;" horiz-adv-x="530" 
d="M470 10l-10 -10h-70l-10 10l-10 40h-10s-40 -60 -120 -60c-140 0 -190 100 -190 210v290l10 10h80l10 -10v-290c0 -60 20 -120 100 -120c70 0 120 50 120 170v240l10 10h80l10 -10v-480zM360 640c0 -50 -40 -90 -100 -90s-100 40 -100 90s40 90 100 90s100 -40 100 -90z
M300 640c0 20 -10 40 -40 40s-40 -20 -40 -40s10 -40 40 -40s40 20 40 40z" />
    <glyph glyph-name="Uhungarumlaut" unicode="&#x170;" horiz-adv-x="700" 
d="M620 690v-440c0 -160 -100 -260 -270 -260s-270 100 -270 260v440l10 10h80l10 -10v-440c0 -100 50 -170 170 -170s170 70 170 170v440l10 10h80zM380 870l-110 -100l-20 -10h-50l-10 10v20l90 100l20 10h70l10 -10v-20zM580 870l-110 -100l-20 -10h-50l-10 10v20l90 100
l20 10h70l10 -10v-20z" />
    <glyph glyph-name="uhungarumlaut" unicode="&#x171;" horiz-adv-x="530" 
d="M470 10l-10 -10h-70l-10 10l-10 40h-10s-40 -60 -120 -60c-140 0 -190 100 -190 210v290l10 10h80l10 -10v-290c0 -60 20 -120 100 -120c70 0 120 50 120 170v240l10 10h80l10 -10v-480zM290 670l-110 -100l-20 -10h-50l-10 10v20l90 100l20 10h70l10 -10v-20zM490 670
l-110 -100l-20 -10h-50l-10 10v20l90 100l20 10h70l10 -10v-20z" />
    <glyph glyph-name="Uogonek" unicode="&#x172;" horiz-adv-x="700" 
d="M620 690v-440c0 -270 -250 -230 -250 -330c0 -30 20 -50 50 -50s50 10 50 10l10 -10v-40l-10 -10s-30 -20 -70 -20c-60 0 -110 40 -110 100c0 40 20 60 50 80v10c-110 0 -260 60 -260 260v440l10 10h80l10 -10v-440c0 -100 50 -170 170 -170s170 70 170 170v440l10 10h80
z" />
    <glyph glyph-name="uogonek" unicode="&#x173;" horiz-adv-x="530" 
d="M460 0c-60 -10 -100 -40 -100 -80c0 -30 20 -50 50 -50s50 10 50 10l10 -10v-40l-10 -10s-30 -20 -70 -20c-60 0 -110 40 -110 100c0 70 50 100 100 110l-10 40h-10s-40 -60 -120 -60c-140 0 -190 100 -190 210v290l10 10h80l10 -10v-290c0 -60 20 -120 100 -120
c70 0 120 50 120 170v240l10 10h80l10 -10v-480z" />
    <glyph glyph-name="Wcircumflex" unicode="&#x174;" horiz-adv-x="930" 
d="M620 770l-10 -10h-50l-20 10l-70 60h-10l-70 -60l-20 -10h-50l-10 10v20l90 100l20 10h90l20 -10l90 -100v-20zM890 620l-160 -610l-10 -10h-90l-10 10l-150 530h-10l-150 -530l-10 -10h-90l-10 10l-160 610v70l10 10h60l10 -10l130 -510h10l150 510l10 10h90l10 -10
l150 -510h10l130 510l10 10h60l10 -10v-70z" />
    <glyph glyph-name="wcircumflex" unicode="&#x175;" horiz-adv-x="750" 
d="M530 570l-10 -10h-50l-20 10l-70 60h-10l-70 -60l-20 -10h-50l-10 10v20l90 100l20 10h90l20 -10l90 -100v-20zM710 420l-120 -410l-10 -10h-90l-10 10l-100 350h-10l-100 -350l-10 -10h-90l-10 10l-120 410v70l10 10h60l10 -10l90 -340h10l100 340l10 10h90l10 -10
l100 -340h10l90 340l10 10h60l10 -10v-70z" />
    <glyph glyph-name="Ycircumflex" unicode="&#x176;" 
d="M550 620l-210 -340v-270l-10 -10h-80l-10 10v270l-210 340v70l10 10h40l20 -10l180 -300h20l180 300l20 10h40l10 -10v-70zM450 770l-10 -10h-50l-20 10l-70 60h-20l-70 -60l-20 -10h-50l-10 10v20l90 100l20 10h100l20 -10l90 -100v-20z" />
    <glyph glyph-name="ycircumflex" unicode="&#x177;" horiz-adv-x="510" 
d="M410 570l-10 -10h-50l-20 10l-70 60h-10l-70 -60l-20 -10h-50l-10 10v20l90 100l20 10h90l20 -10l90 -100v-20zM480 420l-160 -400c-60 -150 -100 -180 -220 -180h-20l-10 10v70l10 10h20c50 0 80 10 100 60v10l-170 420v70l10 10h60l10 -10l140 -370h10l140 370l10 10
h60l10 -10v-70z" />
    <glyph glyph-name="Ydieresis" unicode="&#x178;" 
d="M550 620l-210 -340v-270l-10 -10h-80l-10 10v270l-210 340v70l10 10h40l20 -10l180 -300h20l180 300l20 10h40l10 -10v-70zM430 790l-10 -10h-80l-10 10v80l10 10h80l10 -10v-80zM250 790l-10 -10h-80l-10 10v80l10 10h80l10 -10v-80z" />
    <glyph glyph-name="Zacute" unicode="&#x179;" horiz-adv-x="600" 
d="M550 10l-10 -10h-480l-10 10v80l10 20l350 490v10h-340l-10 10v70l10 10h450l10 -10v-80l-10 -20l-350 -490v-10h370l10 -10v-70zM410 870l-110 -100l-20 -10h-50l-10 10v20l90 100l20 10h70l10 -10v-20z" />
    <glyph glyph-name="zacute" unicode="&#x17a;" horiz-adv-x="500" 
d="M460 10l-10 -10h-400l-10 10v80l10 20l270 290v10h-260l-10 10v70l10 10h380l10 -10v-80l-10 -20l-270 -290v-10h280l10 -10v-70zM370 670l-110 -100l-20 -10h-50l-10 10v20l90 100l20 10h70l10 -10v-20z" />
    <glyph glyph-name="Zdotaccent" unicode="&#x17b;" horiz-adv-x="600" 
d="M550 10l-10 -10h-480l-10 10v80l10 20l350 490v10h-340l-10 10v70l10 10h450l10 -10v-80l-10 -20l-350 -490v-10h370l10 -10v-70zM350 790l-10 -10h-80l-10 10v80l10 10h80l10 -10v-80z" />
    <glyph glyph-name="zdotaccent" unicode="&#x17c;" horiz-adv-x="500" 
d="M460 10l-10 -10h-400l-10 10v80l10 20l270 290v10h-260l-10 10v70l10 10h380l10 -10v-80l-10 -20l-270 -290v-10h280l10 -10v-70zM300 590l-10 -10h-80l-10 10v80l10 10h80l10 -10v-80z" />
    <glyph glyph-name="Zcaron" unicode="&#x17d;" horiz-adv-x="600" 
d="M550 10l-10 -10h-480l-10 10v80l10 20l350 490v10h-340l-10 10v70l10 10h450l10 -10v-80l-10 -20l-350 -490v-10h370l10 -10v-70zM140 890l10 10h50l20 -10l70 -60h20l70 60l20 10h50l10 -10v-20l-90 -100l-20 -10h-100l-20 10l-90 100v20z" />
    <glyph glyph-name="zcaron" unicode="&#x17e;" horiz-adv-x="500" 
d="M460 10l-10 -10h-400l-10 10v80l10 20l270 290v10h-260l-10 10v70l10 10h380l10 -10v-80l-10 -20l-270 -290v-10h280l10 -10v-70zM110 690l10 10h50l20 -10l70 -60h20l70 60l20 10h50l10 -10v-20l-90 -100l-20 -10h-100l-20 10l-90 100v20z" />
    <glyph glyph-name="longs" unicode="&#x17f;" horiz-adv-x="350" 
d="M220 550v-540l-10 -10h-80l-10 10v390l-10 10h-70l-10 10v70l10 10h70l10 10v40c0 90 70 130 140 130h80l10 -10v-70l-10 -10h-80c-20 0 -40 -10 -40 -40z" />
    <glyph glyph-name="uni018F" unicode="&#x18f;" horiz-adv-x="660" 
d="M330 80c120 0 180 90 190 210l-10 10h-360l-10 -10c10 -120 70 -210 190 -210zM150 500h-90l-10 10c40 120 120 200 280 200c180 0 300 -140 300 -360c0 -210 -110 -360 -300 -360s-300 150 -300 360v30l10 10h470l10 10c-10 130 -70 220 -190 220
c-100 0 -140 -40 -170 -110z" />
    <glyph glyph-name="florin" unicode="&#x192;" 
d="M400 560l-10 -50l10 -10h130l10 -10v-60l-10 -10h-150l-10 -10l-90 -450c-20 -100 -60 -160 -200 -160h-10l-10 10v60l10 10h20c60 0 80 30 90 80l90 450l-10 10h-70l-10 10v60l10 10h90l10 10l10 50c20 100 70 140 180 140h20l10 -10v-60l-10 -10h-30
c-40 0 -60 -10 -70 -60z" />
    <glyph glyph-name="uni01B5" unicode="&#x1b5;" horiz-adv-x="600" 
d="M510 330l-10 -10h-160l-20 -10l-150 -210v-10h370l10 -10v-70l-10 -10h-480l-10 10v80l10 20l140 200v10h-100l-10 10v70l10 10h160l20 10l130 180v10h-340l-10 10v70l10 10h450l10 -10v-80l-10 -20l-120 -170v-10h100l10 -10v-70z" />
    <glyph glyph-name="uni01B6" unicode="&#x1b6;" horiz-adv-x="500" 
d="M440 220l-10 -10h-150l-20 -10l-90 -100v-10h280l10 -10v-70l-10 -10h-400l-10 10v80l10 20l80 90v10h-60l-10 10v60l10 10h140l20 10l90 100v10h-260l-10 10v70l10 10h380l10 -10v-80l-10 -20l-80 -90v-10h70l10 -10v-60z" />
    <glyph glyph-name="Aringacute" unicode="&#x1fa;" horiz-adv-x="630" 
d="M610 10l-10 -10h-60l-10 10l-60 150l-20 10h-270l-20 -10l-60 -150l-10 -10h-60l-10 10v70l200 510v10s-10 10 -10 40c0 50 40 90 100 90h10c60 0 100 -40 100 -90c0 -30 -10 -40 -10 -40v-10l200 -510v-70zM430 270l-110 280h-10l-110 -280l10 -10h210zM440 870
l-110 -100l-20 -10h-50l-10 10v20l90 100l20 10h70l10 -10v-20zM310 600h10c30 0 40 20 40 40s-10 40 -40 40h-10c-30 0 -40 -20 -40 -40s10 -40 40 -40z" />
    <glyph glyph-name="aringacute" unicode="&#x1fb;" horiz-adv-x="500" 
d="M350 640c0 -50 -40 -90 -100 -90s-100 40 -100 90s40 90 100 90s100 -40 100 -90zM290 640c0 20 -10 40 -40 40s-40 -20 -40 -40s10 -40 40 -40s40 20 40 40zM370 870l-110 -100l-20 -10h-50l-10 10v20l90 100l20 10h70l10 -10v-20zM450 10l-10 -10h-70l-10 10l-10 40
h-10s-40 -60 -140 -60c-110 0 -170 60 -170 160c0 110 90 160 220 160c50 0 90 -10 90 -10l10 10v20c0 70 -30 90 -100 90s-100 -20 -100 -60l-10 -10h-80l-10 10c0 70 50 150 200 150s200 -70 200 -220v-280zM350 180v30l-10 10s-30 10 -80 10c-90 0 -130 -30 -130 -80
s30 -70 90 -70c80 0 130 40 130 100z" />
    <glyph glyph-name="AEacute" unicode="&#x1fc;" horiz-adv-x="960" 
d="M900 10l-10 -10h-420l-10 10v150l-10 10h-250l-20 -10l-80 -150l-10 -10h-60l-10 10v70l340 610l10 10h520l10 -10v-70l-10 -10h-320l-10 -10v-190l10 -10h300l10 -10v-70l-10 -10h-300l-10 -10v-200l10 -10h320l10 -10v-70zM460 270v330l-10 10h-20l-10 -10l-180 -330
l10 -10h200zM740 870l-110 -100l-20 -10h-50l-10 10v20l90 100l20 10h70l10 -10v-20z" />
    <glyph glyph-name="aeacute" unicode="&#x1fd;" horiz-adv-x="830" 
d="M350 180v30l-10 10s-30 10 -80 10c-90 0 -130 -30 -130 -80s30 -70 90 -70c80 0 130 40 130 100zM680 290l10 10c0 30 -10 120 -120 120s-120 -90 -120 -120l10 -10h220zM580 -10c-100 0 -150 40 -180 70h-10c-50 -50 -100 -70 -190 -70c-110 0 -170 60 -170 160
c0 110 90 160 220 160c50 0 90 -10 90 -10l10 10v10c0 80 -30 100 -100 100s-100 -20 -100 -60l-10 -10h-80l-10 10c0 70 50 150 200 150c80 0 130 -20 160 -60h10c30 40 90 60 150 60c160 0 230 -120 230 -260v-30l-10 -10h-330l-10 -10c0 -20 10 -120 130 -120
c40 0 80 10 100 60l10 10h80l10 -10c-10 -80 -80 -150 -200 -150zM540 670l-110 -100l-20 -10h-50l-10 10v20l90 100l20 10h70l10 -10v-20z" />
    <glyph glyph-name="Oslashacute" unicode="&#x1fe;" horiz-adv-x="740" 
d="M480 870l-110 -100l-20 -10h-50l-10 10v20l90 100l20 10h70l10 -10v-20zM180 190l350 350v20c-40 40 -90 60 -160 60c-150 0 -230 -110 -230 -270c0 -60 10 -120 30 -160h10zM370 -10c-100 0 -170 30 -230 90h-10l-40 -40l-20 -10h-10l-10 10v20l50 50v20
c-40 60 -60 130 -60 220c0 210 120 360 330 360c100 0 170 -30 230 -90h10l40 40l20 10h10l10 -10v-20l-50 -50v-20c40 -60 60 -130 60 -220c0 -210 -120 -360 -330 -360zM560 510l-350 -350v-20c40 -40 90 -60 160 -60c150 0 230 110 230 270c0 60 -10 120 -30 160h-10z
" />
    <glyph glyph-name="oslashacute" unicode="&#x1ff;" horiz-adv-x="540" 
d="M390 670l-110 -100l-20 -10h-50l-10 10v20l90 100l20 10h70l10 -10v-20zM150 160l210 210v20c-20 20 -50 30 -90 30c-90 0 -140 -60 -140 -170c0 -40 0 -70 10 -90h10zM270 -10c-60 0 -120 20 -160 60h-10l-30 -30l-20 -10h-10l-10 10v20l40 40v10c-20 30 -40 90 -40 160
c0 160 90 260 240 260c60 0 120 -20 160 -60h10l30 30l20 10h10l10 -10v-20l-40 -40v-10c20 -30 40 -90 40 -160c0 -160 -90 -260 -240 -260zM390 340l-210 -210v-20c20 -20 50 -30 90 -30c90 0 140 60 140 170c0 40 0 70 -10 90h-10z" />
    <glyph glyph-name="Scommaaccent" unicode="&#x218;" horiz-adv-x="630" 
d="M590 190c0 -110 -80 -200 -270 -200c-170 0 -280 80 -280 230l10 10h80l10 -10c0 -100 70 -140 190 -140c90 0 160 30 160 110c0 90 -60 110 -200 130s-230 80 -230 200c0 90 70 190 250 190c150 0 260 -60 260 -210l-10 -10h-80l-10 10c0 80 -40 120 -170 120
c-90 0 -140 -40 -140 -100c0 -80 50 -100 190 -120s240 -70 240 -210zM380 -130l-10 -30l-50 -50l-20 -10h-20v10l40 60v10l-10 10h-20l-10 10v70l10 10h80l10 -10v-80z" />
    <glyph glyph-name="scommaaccent" unicode="&#x219;" horiz-adv-x="460" 
d="M430 140c0 -80 -60 -150 -200 -150c-130 0 -200 60 -200 170l10 10h80l10 -10c0 -50 30 -80 100 -80s100 20 100 60c0 50 -30 60 -130 80s-160 60 -160 150c0 70 50 140 190 140c110 0 190 -50 190 -150l-10 -10h-80l-10 10c0 30 -20 60 -90 60c-50 0 -90 -10 -90 -50
c0 -50 40 -60 140 -80s150 -60 150 -150zM290 -130l-10 -30l-50 -50l-20 -10h-20v10l40 60v10l-10 10h-20l-10 10v70l10 10h80l10 -10v-80z" />
    <glyph glyph-name="uni021A" unicode="&#x21a;" horiz-adv-x="600" 
d="M580 620l-10 -10h-210l-10 -10v-590l-10 -10h-80l-10 10v590l-10 10h-210l-10 10v70l10 10h540l10 -10v-70zM350 -130l-10 -30l-50 -50l-20 -10h-20v10l40 60v10l-10 10h-20l-10 10v70l10 10h80l10 -10v-80z" />
    <glyph glyph-name="uni021B" unicode="&#x21b;" horiz-adv-x="380" 
d="M340 10l-10 -10h-80c-70 0 -140 40 -140 130v270l-10 10h-70l-10 10v70l10 10h70l10 10v90l10 10h80l10 -10v-90l10 -10h110l10 -10v-70l-10 -10h-110l-10 -10v-270c0 -30 20 -40 40 -40h80l10 -10v-70zM260 -130l-10 -30l-50 -50l-20 -10h-20v10l40 60v10l-10 10h-20
l-10 10v70l10 10h80l10 -10v-80z" />
    <glyph glyph-name="uni0259" unicode="&#x259;" horiz-adv-x="520" 
d="M150 210l-10 -10c0 -30 10 -120 120 -120s120 90 120 120l-10 10h-220zM250 510c160 0 240 -110 240 -260c0 -140 -70 -260 -230 -260s-230 120 -230 260v30l10 10h330l10 10c0 20 -10 120 -130 120c-40 0 -80 -10 -100 -60l-10 -10h-80l-10 10c10 80 80 150 200 150z
" />
    <glyph glyph-name="circumflex" unicode="&#x2c6;" horiz-adv-x="500" 
d="M410 570l-10 -10h-50l-20 10l-70 60h-20l-70 -60l-20 -10h-50l-10 10v20l90 100l20 10h100l20 -10l90 -100v-20z" />
    <glyph glyph-name="caron" unicode="&#x2c7;" horiz-adv-x="500" 
d="M90 690l10 10h50l20 -10l70 -60h20l70 60l20 10h50l10 -10v-20l-90 -100l-20 -10h-100l-20 10l-90 100v20z" />
    <glyph glyph-name="uni02C9" unicode="&#x2c9;" horiz-adv-x="500" 
d="M410 590l-10 -10h-300l-10 10v60l10 10h300l10 -10v-60z" />
    <glyph glyph-name="breve" unicode="&#x2d8;" horiz-adv-x="500" 
d="M170 690l10 -10c0 -40 30 -60 70 -60s70 20 70 60l10 10h50l10 -10c0 -80 -60 -130 -140 -130s-140 50 -140 130l10 10h50z" />
    <glyph glyph-name="dotaccent" unicode="&#x2d9;" horiz-adv-x="500" 
d="M300 590l-10 -10h-80l-10 10v80l10 10h80l10 -10v-80z" />
    <glyph glyph-name="ring" unicode="&#x2da;" horiz-adv-x="500" 
d="M350 640c0 -50 -40 -90 -100 -90s-100 40 -100 90s40 90 100 90s100 -40 100 -90zM290 640c0 20 -10 40 -40 40s-40 -20 -40 -40s10 -40 40 -40s40 20 40 40z" />
    <glyph glyph-name="ogonek" unicode="&#x2db;" horiz-adv-x="500" 
d="M230 0h80c-60 -10 -100 -40 -100 -80c0 -30 20 -50 50 -50s50 10 50 10l10 -10v-40l-10 -10s-30 -20 -70 -20c-60 0 -110 40 -110 100s50 90 100 100z" />
    <glyph glyph-name="tilde" unicode="&#x2dc;" horiz-adv-x="500" 
d="M310 550c-80 0 -100 70 -140 70c-30 0 -40 -20 -40 -50l-10 -10h-30l-10 10c0 60 30 110 100 110c80 0 100 -70 140 -70c30 0 40 20 40 50l10 10h30l10 -10c0 -60 -30 -110 -100 -110z" />
    <glyph glyph-name="hungarumlaut" unicode="&#x2dd;" horiz-adv-x="500" 
d="M250 670l-110 -100l-20 -10h-50l-10 10v20l90 100l20 10h70l10 -10v-20zM450 670l-110 -100l-20 -10h-50l-10 10v20l90 100l20 10h70l10 -10v-20z" />
    <glyph glyph-name="uni0394" unicode="&#x394;" 
d="M40 0l-10 10v70l200 610l10 10h100l10 -10l200 -610v-70l-10 -10h-500zM280 560l-150 -460v-10h320v10l-150 460h-20z" />
    <glyph glyph-name="uni03A9" unicode="&#x3a9;" horiz-adv-x="760" 
d="M200 90v10c-100 100 -150 160 -150 300c0 210 140 310 330 310s330 -100 330 -310c0 -140 -50 -200 -150 -300v-10h120l10 -10v-70l-10 -10h-230l-10 10v80l10 20c100 100 160 160 160 280c0 160 -90 230 -230 230s-230 -70 -230 -230c0 -120 60 -180 160 -280l10 -20
v-80l-10 -10h-230l-10 10v70l10 10h120z" />
    <glyph glyph-name="uni03BC" unicode="&#x3bc;" 
d="M400 30h-10s-40 -40 -100 -40s-100 40 -100 40h-10v-220l-10 -10h-80l-10 10v680l10 10h80l10 -10v-260c0 -100 40 -150 110 -150s110 50 110 150v260l10 10h80l10 -10v-480l-10 -10h-70l-10 10z" />
    <glyph glyph-name="pi" unicode="&#x3c0;" 
d="M520 10l-10 -10h-160l-10 10v390l-10 10h-90l-10 -10v-390l-10 -10h-80l-10 10v390l-10 10h-60l-10 10v70l10 10h460l10 -10v-70l-10 -10h-70l-10 -10v-300l10 -10h60l10 -10v-70z" />
    <glyph glyph-name="Wgrave" unicode="&#x1e80;" horiz-adv-x="930" 
d="M890 620l-160 -610l-10 -10h-90l-10 10l-150 530h-10l-150 -530l-10 -10h-90l-10 10l-160 610v70l10 10h60l10 -10l130 -510h10l150 510l10 10h90l10 -10l150 -510h10l130 510l10 10h60l10 -10v-70zM530 770l-10 -10h-50l-20 10l-110 100v20l10 10h70l20 -10l90 -100v-20
z" />
    <glyph glyph-name="wgrave" unicode="&#x1e81;" horiz-adv-x="750" 
d="M710 420l-120 -410l-10 -10h-90l-10 10l-100 350h-10l-100 -350l-10 -10h-90l-10 10l-120 410v70l10 10h60l10 -10l90 -340h10l100 340l10 10h90l10 -10l100 -340h10l90 340l10 10h60l10 -10v-70zM440 570l-10 -10h-50l-20 10l-110 100v20l10 10h70l20 -10l90 -100v-20z
" />
    <glyph glyph-name="Wacute" unicode="&#x1e82;" horiz-adv-x="930" 
d="M890 620l-160 -610l-10 -10h-90l-10 10l-150 530h-10l-150 -530l-10 -10h-90l-10 10l-160 610v70l10 10h60l10 -10l130 -510h10l150 510l10 10h90l10 -10l150 -510h10l130 510l10 10h60l10 -10v-70zM590 870l-110 -100l-20 -10h-50l-10 10v20l90 100l20 10h70l10 -10v-20
z" />
    <glyph glyph-name="wacute" unicode="&#x1e83;" horiz-adv-x="750" 
d="M710 420l-120 -410l-10 -10h-90l-10 10l-100 350h-10l-100 -350l-10 -10h-90l-10 10l-120 410v70l10 10h60l10 -10l90 -340h10l100 340l10 10h90l10 -10l100 -340h10l90 340l10 10h60l10 -10v-70zM500 670l-110 -100l-20 -10h-50l-10 10v20l90 100l20 10h70l10 -10v-20z
" />
    <glyph glyph-name="Wdieresis" unicode="&#x1e84;" horiz-adv-x="930" 
d="M610 790l-10 -10h-80l-10 10v80l10 10h80l10 -10v-80zM420 790l-10 -10h-80l-10 10v80l10 10h80l10 -10v-80zM890 620l-160 -610l-10 -10h-90l-10 10l-150 530h-10l-150 -530l-10 -10h-90l-10 10l-160 610v70l10 10h60l10 -10l130 -510h10l150 510l10 10h90l10 -10
l150 -510h10l130 510l10 10h60l10 -10v-70z" />
    <glyph glyph-name="wdieresis" unicode="&#x1e85;" horiz-adv-x="750" 
d="M520 590l-10 -10h-80l-10 10v80l10 10h80l10 -10v-80zM330 590l-10 -10h-80l-10 10v80l10 10h80l10 -10v-80zM710 420l-120 -410l-10 -10h-90l-10 10l-100 350h-10l-100 -350l-10 -10h-90l-10 10l-120 410v70l10 10h60l10 -10l90 -340h10l100 340l10 10h90l10 -10
l100 -340h10l90 340l10 10h60l10 -10v-70z" />
    <glyph glyph-name="uni1E8A" unicode="&#x1e8a;" horiz-adv-x="650" 
d="M610 10l-10 -10h-40l-20 10l-210 280h-10l-210 -280l-20 -10h-40l-10 10v70l220 280v10l-210 250v70l10 10h40l20 -10l200 -250h10l200 250l20 10h40l10 -10v-70l-210 -250v-10l220 -280v-70zM380 790l-10 -10h-90l-10 10v80l10 10h90l10 -10v-80z" />
    <glyph glyph-name="uni1E8B" unicode="&#x1e8b;" horiz-adv-x="490" 
d="M460 10l-10 -10h-30l-20 10l-150 170h-10l-150 -170l-20 -10h-30l-10 10v70l150 170v10l-140 160v70l10 10h30l20 -10l140 -160h10l140 160l20 10h30l10 -10v-70l-140 -160v-10l150 -170v-70zM300 590l-10 -10h-90l-10 10v80l10 10h90l10 -10v-80z" />
    <glyph glyph-name="Ygrave" unicode="&#x1ef2;" 
d="M550 620l-210 -340v-270l-10 -10h-80l-10 10v270l-210 340v70l10 10h40l20 -10l180 -300h20l180 300l20 10h40l10 -10v-70zM360 770l-10 -10h-50l-20 10l-110 100v20l10 10h70l20 -10l90 -100v-20z" />
    <glyph glyph-name="ygrave" unicode="&#x1ef3;" horiz-adv-x="510" 
d="M480 420l-160 -400c-60 -150 -100 -180 -220 -180h-20l-10 10v70l10 10h20c50 0 80 10 100 60v10l-170 420v70l10 10h60l10 -10l140 -370h10l140 370l10 10h60l10 -10v-70zM320 570l-10 -10h-50l-20 10l-110 100v20l10 10h70l20 -10l90 -100v-20z" />
    <glyph glyph-name="endash" unicode="&#x2013;" horiz-adv-x="620" 
d="M560 220l-10 -10h-480l-10 10v70l10 10h480l10 -10v-70z" />
    <glyph glyph-name="emdash" unicode="&#x2014;" horiz-adv-x="1120" 
d="M1060 220l-10 -10h-980l-10 10v70l10 10h980l10 -10v-70z" />
    <glyph glyph-name="quoteleft" unicode="&#x2018;" horiz-adv-x="280" 
d="M200 690l-60 -90v-10l10 -10h30l10 -10v-100l-10 -10h-100l-10 10v110l10 30l60 80l20 10h40v-10z" />
    <glyph glyph-name="quoteright" unicode="&#x2019;" horiz-adv-x="280" 
d="M210 580l-10 -30l-60 -80l-20 -10h-40v10l60 90v10l-10 10h-30l-10 10v100l10 10h100l10 -10v-110z" />
    <glyph glyph-name="quotesinglbase" unicode="&#x201a;" horiz-adv-x="280" 
d="M200 0l-10 -30l-60 -80l-20 -10h-40v10l60 90v10l-10 10h-30l-10 10v100l10 10h100l10 -10v-110z" />
    <glyph glyph-name="quotedblleft" unicode="&#x201c;" horiz-adv-x="480" 
d="M400 690l-60 -90v-10l10 -10h30l10 -10v-100l-10 -10h-100l-10 10v110l10 30l60 80l20 10h40v-10zM200 690l-60 -90v-10l10 -10h30l10 -10v-100l-10 -10h-100l-10 10v110l10 30l60 80l20 10h40v-10z" />
    <glyph glyph-name="quotedblright" unicode="&#x201d;" horiz-adv-x="480" 
d="M410 580l-10 -30l-60 -80l-20 -10h-40v10l60 90v10l-10 10h-30l-10 10v100l10 10h100l10 -10v-110zM210 580l-10 -30l-60 -80l-20 -10h-40v10l60 90v10l-10 10h-30l-10 10v100l10 10h100l10 -10v-110z" />
    <glyph glyph-name="quotedblbase" unicode="&#x201e;" horiz-adv-x="480" 
d="M400 0l-10 -30l-60 -80l-20 -10h-40v10l60 90v10l-10 10h-30l-10 10v100l10 10h100l10 -10v-110zM200 0l-10 -30l-60 -80l-20 -10h-40v10l60 90v10l-10 10h-30l-10 10v100l10 10h100l10 -10v-110z" />
    <glyph glyph-name="dagger" unicode="&#x2020;" 
d="M340 -190l-10 -10h-80l-10 10v590l-10 10h-180l-10 10v70l10 10h180l10 10v180l10 10h80l10 -10v-180l10 -10h180l10 -10v-70l-10 -10h-180l-10 -10v-590z" />
    <glyph glyph-name="daggerdbl" unicode="&#x2021;" 
d="M240 690l10 10h80l10 -10v-180l10 -10h180l10 -10v-70l-10 -10h-180l-10 -10v-300l10 -10h180l10 -10v-70l-10 -10h-180l-10 -10v-180l-10 -10h-80l-10 10v180l-10 10h-180l-10 10v70l10 10h180l10 10v300l-10 10h-180l-10 10v70l10 10h180l10 10v180z" />
    <glyph glyph-name="bullet" unicode="&#x2022;" horiz-adv-x="390" 
d="M310 260v-10l-110 -110h-10l-110 110v10l110 110h10z" />
    <glyph glyph-name="ellipsis" unicode="&#x2026;" horiz-adv-x="720" 
d="M200 10l-10 -10h-100l-10 10v100l10 10h100l10 -10v-100zM420 10l-10 -10h-100l-10 10v100l10 10h100l10 -10v-100zM640 10l-10 -10h-100l-10 10v100l10 10h100l10 -10v-100z" />
    <glyph glyph-name="perthousand" unicode="&#x2030;" horiz-adv-x="1150" 
d="M940 -10c-60 0 -100 30 -120 60h-10c-20 -30 -60 -60 -120 -60c-120 0 -170 80 -170 190s50 190 170 190c60 0 100 -30 120 -60h10c20 30 60 60 120 60c120 0 170 -80 170 -190s-50 -190 -170 -190zM210 330c-120 0 -170 80 -170 190s50 190 170 190s170 -80 170 -190
s-50 -190 -170 -190zM130 520c0 -70 20 -110 80 -110s80 40 80 110s-20 110 -80 110s-80 -40 -80 -110zM610 180c0 -70 20 -110 80 -110s80 40 80 110s-20 110 -80 110s-80 -40 -80 -110zM860 180c0 -70 20 -110 80 -110s80 40 80 110s-20 110 -80 110s-80 -40 -80 -110z
M680 620l-400 -610l-10 -10h-40l-10 10v70l400 610l10 10h40l10 -10v-70z" />
    <glyph glyph-name="guilsinglleft" unicode="&#x2039;" horiz-adv-x="440" 
d="M360 40l-10 -10h-80l-20 10l-160 160l-10 20v60l10 20l160 160l20 10h80l10 -10v-30l-180 -170v-20l180 -170v-30z" />
    <glyph glyph-name="guilsinglright" unicode="&#x203a;" horiz-adv-x="440" 
d="M90 30l-10 10v30l180 170v20l-180 170v30l10 10h80l20 -10l160 -160l10 -20v-60l-10 -20l-160 -160l-20 -10h-80z" />
    <glyph glyph-name="fraction" unicode="&#x2044;" horiz-adv-x="620" 
d="M540 620l-400 -610l-10 -10h-40l-10 10v70l400 610l10 10h40l10 -10v-70z" />
    <glyph glyph-name="Euro" unicode="&#x20ac;" horiz-adv-x="710" 
d="M210 230c10 -60 70 -150 190 -150c100 0 150 40 170 120l10 10h80l10 -10c-20 -140 -120 -210 -270 -210s-260 90 -290 240l-10 10h-70l-10 10v60l10 10h60l10 10v40l-10 10h-60l-10 10v60l10 10h70l10 10c20 140 130 240 290 240c150 0 250 -70 270 -210l-10 -10h-80
l-10 10c-20 80 -70 120 -170 120c-130 0 -180 -90 -190 -150l10 -10h240l10 -10v-60l-10 -10h-250l-10 -10v-40l10 -10h210l10 -10v-60l-10 -10h-200z" />
    <glyph glyph-name="uni2117" unicode="&#x2117;" horiz-adv-x="840" 
d="M530 430c0 30 -20 50 -50 50h-120l-10 -10v-80l10 -10h120c30 0 50 20 50 50zM480 310h-120l-10 -10v-140l-10 -10h-60l-10 10v380l10 10h200c80 0 130 -40 130 -120s-50 -120 -130 -120zM140 350c0 -160 120 -280 280 -280s280 120 280 280s-120 280 -280 280
s-280 -120 -280 -280zM60 350c0 200 160 360 360 360s360 -160 360 -360s-160 -360 -360 -360s-360 160 -360 360z" />
    <glyph glyph-name="trademark" unicode="&#x2122;" horiz-adv-x="830" 
d="M20 690l10 10h290l10 -10v-40l-10 -10h-100l-10 -10v-280l-10 -10h-50l-10 10v280l-10 10h-100l-10 10v40zM600 340h-50l-10 10l-80 200h-10v-200l-10 -10h-50l-10 10v340l10 10h70l10 -10l100 -250h10l100 250l10 10h70l10 -10v-340l-10 -10h-50l-10 10v200h-10
l-80 -200z" />
    <glyph glyph-name="Omega" unicode="&#x2126;" horiz-adv-x="760" 
d="M200 90v10c-100 100 -150 160 -150 300c0 210 140 310 330 310s330 -100 330 -310c0 -140 -50 -200 -150 -300v-10h120l10 -10v-70l-10 -10h-230l-10 10v80l10 20c100 100 160 160 160 280c0 160 -90 230 -230 230s-230 -70 -230 -230c0 -120 60 -180 160 -280l10 -20
v-80l-10 -10h-230l-10 10v70l10 10h120z" />
    <glyph glyph-name="arrowleft" unicode="&#x2190;" horiz-adv-x="860" 
d="M330 500h80l10 -10v-10l-180 -180v-10h530l10 -10v-60l-10 -10h-530v-10l180 -180v-10l-10 -10h-80l-20 10l-230 230v20l230 230z" />
    <glyph glyph-name="arrowup" unicode="&#x2191;" horiz-adv-x="660" 
d="M580 450v-80l-10 -10h-10l-180 180h-10v-530l-10 -10h-60l-10 10v530h-10l-180 -180h-10l-10 10v80l10 20l230 230h20l230 -230z" />
    <glyph glyph-name="arrowright" unicode="&#x2192;" horiz-adv-x="860" 
d="M450 500h80l20 -10l230 -230v-20l-230 -230l-20 -10h-80l-10 10v10l180 180v10h-530l-10 10v60l10 10h530v10l-180 180v10z" />
    <glyph glyph-name="arrowdown" unicode="&#x2193;" horiz-adv-x="660" 
d="M580 330v-80l-10 -20l-230 -230h-20l-230 230l-10 20v80l10 10h10l180 -180h10v530l10 10h60l10 -10v-530h10l180 180h10z" />
    <glyph glyph-name="arrowboth" unicode="&#x2194;" horiz-adv-x="1060" 
d="M730 0h-80l-10 10v10l180 180v10h-580v-10l180 -180v-10l-10 -10h-80l-20 10l-230 230v20l230 230l20 10h80l10 -10v-10l-180 -180v-10h580v10l-180 180v10l10 10h80l20 -10l230 -230v-20l-230 -230z" />
    <glyph glyph-name="arrowupdn" unicode="&#x2195;" horiz-adv-x="660" 
d="M80 50v80l10 10h10l180 -180h10v580h-10l-180 -180h-10l-10 10v80l10 20l230 230h20l230 -230l10 -20v-80l-10 -10h-10l-180 180h-10v-580h10l180 180h10l10 -10v-80l-10 -20l-230 -230h-20l-230 230z" />
    <glyph glyph-name="uni2196" unicode="&#x2196;" horiz-adv-x="690" 
d="M440 690l50 -50v-10l-10 -10h-250v-10l380 -380v-10l-50 -50h-10l-380 380h-10v-250l-10 -10h-10l-50 50l-10 20v320l20 20h320z" />
    <glyph glyph-name="uni2197" unicode="&#x2197;" horiz-adv-x="690" 
d="M200 640l50 50l20 10h320l20 -20v-320l-10 -20l-50 -50h-10l-10 10v250h-10l-380 -380h-10l-50 50v10l380 380v10h-250l-10 10v10z" />
    <glyph glyph-name="uni2198" unicode="&#x2198;" horiz-adv-x="690" 
d="M250 10l-50 50v10l10 10h250v10l-380 380v10l50 50h10l380 -380h10v250l10 10h10l50 -50l10 -20v-320l-20 -20h-320z" />
    <glyph glyph-name="uni2199" unicode="&#x2199;" horiz-adv-x="690" 
d="M490 60l-50 -50l-20 -10h-320l-20 20v320l10 20l50 50h10l10 -10v-250h10l380 380h10l50 -50v-10l-380 -380v-10h250l10 -10v-10z" />
    <glyph glyph-name="partialdiff" unicode="&#x2202;" 
d="M390 470h10c-10 70 -50 160 -170 160c-60 0 -100 -20 -100 -20l-10 10v60l10 10s40 20 100 20c200 0 290 -160 290 -460c0 -170 -90 -260 -230 -260c-120 0 -230 80 -230 260c0 160 90 260 220 260c80 0 110 -40 110 -40zM420 250c0 120 -50 170 -130 170
s-130 -50 -130 -170c0 -130 60 -170 130 -170c80 0 130 50 130 170z" />
    <glyph glyph-name="Delta" unicode="&#x2206;" 
d="M40 0l-10 10v70l200 610l10 10h100l10 -10l200 -610v-70l-10 -10h-500zM280 560l-150 -460v-10h320v10l-150 460h-20z" />
    <glyph glyph-name="product" unicode="&#x220f;" 
d="M450 -190l-10 -10h-80l-10 10v790l-10 10h-100l-10 -10v-790l-10 -10h-80l-10 10v790l-10 10h-70l-10 10v70l10 10h480l10 -10v-70l-10 -10h-70l-10 -10v-790z" />
    <glyph glyph-name="summation" unicode="&#x2211;" 
d="M530 -30l10 -10v-150l-10 -10h-480l-10 10v80l10 20l240 340v10l-230 330l-10 20v80l10 10h460l10 -10v-150l-10 -10h-80l-10 10v60l-10 10h-250v-10l200 -290l10 -20v-70l-10 -20l-210 -300v-10h270l10 10v60l10 10h80z" />
    <glyph glyph-name="minus" unicode="&#x2212;" horiz-adv-x="560" 
d="M500 220l-10 -10h-420l-10 10v70l10 10h420l10 -10v-70z" />
    <glyph glyph-name="uni2215" unicode="&#x2215;" horiz-adv-x="620" 
d="M540 620l-400 -610l-10 -10h-40l-10 10v70l400 610l10 10h40l10 -10v-70z" />
    <glyph glyph-name="uni2219" unicode="&#x2219;" horiz-adv-x="280" 
d="M200 210l-10 -10h-100l-10 10v100l10 10h100l10 -10v-100z" />
    <glyph glyph-name="radical" unicode="&#x221a;" 
d="M220 150l160 540l10 10h150l10 -10v-60l-10 -10h-80l-10 -10l-180 -600l-10 -10h-90l-10 10l-120 410v70l10 10h60l10 -10l90 -340h10z" />
    <glyph glyph-name="infinity" unicode="&#x221e;" horiz-adv-x="710" 
d="M360 230h-10c-40 -40 -100 -100 -170 -100c-80 0 -140 50 -140 130s60 130 140 130c70 0 130 -60 170 -100h10c40 40 100 100 170 100c80 0 140 -50 140 -130s-60 -130 -140 -130c-70 0 -130 60 -170 100zM180 360c-60 0 -100 -40 -100 -100s40 -100 100 -100
s110 50 150 90v20c-40 40 -90 90 -150 90zM530 360c-60 0 -110 -50 -150 -90v-20c40 -40 90 -90 150 -90s100 40 100 100s-40 100 -100 100z" />
    <glyph glyph-name="integral" unicode="&#x222b;" 
d="M210 -30l80 560c20 140 90 170 190 170h40l10 -10l-10 -70l-10 -10h-30c-50 0 -80 -10 -90 -80l-80 -560c-20 -140 -90 -170 -190 -170h-20l-10 10l10 70l10 10h10c50 0 80 10 90 80z" />
    <glyph glyph-name="approxequal" unicode="&#x2248;" 
d="M250 330c-30 30 -50 50 -80 50c-40 0 -50 -30 -50 -80l-10 -10h-60l-10 10c0 100 40 180 150 180c70 0 110 -40 140 -70s50 -50 80 -50c40 0 50 30 50 80l10 10h60l10 -10c0 -100 -40 -180 -150 -180c-70 0 -110 40 -140 70zM250 90c-30 30 -50 50 -80 50
c-40 0 -50 -30 -50 -80l-10 -10h-60l-10 10c0 100 40 180 150 180c70 0 110 -40 140 -70s50 -50 80 -50c40 0 50 30 50 80l10 10h60l10 -10c0 -100 -40 -180 -150 -180c-70 0 -110 40 -140 70z" />
    <glyph glyph-name="notequal" unicode="&#x2260;" 
d="M410 480l10 10h20l10 -10v-20l-40 -60v-10h90l10 -10v-70l-10 -10h-150l-10 -10l-50 -80v-10h210l10 -10v-70l-10 -10h-270l-10 -10l-50 -80l-10 -10h-20l-10 10v20l40 60v10h-90l-10 10v70l10 10h150l10 10l50 80v10h-210l-10 10v70l10 10h270l10 10z" />
    <glyph glyph-name="lessequal" unicode="&#x2264;" 
d="M510 10l-10 -10h-430l-10 10v70l10 10h430l10 -10v-70zM60 370l10 10l330 120h100l10 -10v-40l-10 -10l-320 -110v-20l320 -110l10 -10v-40l-10 -10h-100l-330 120l-10 10v100z" />
    <glyph glyph-name="greaterequal" unicode="&#x2265;" 
d="M70 0l-10 10v70l10 10h430l10 -10v-70l-10 -10h-430zM500 380l10 -10v-100l-10 -10l-330 -120h-100l-10 10v40l10 10l320 110v20l-320 110l-10 10v40l10 10h100z" />
    <glyph glyph-name="lozenge" unicode="&#x25ca;" 
d="M530 380v-60l-190 -310l-10 -10h-80l-10 10l-190 310v60l190 310l10 10h80l10 -10zM150 360v-20l130 -220h20l130 220v20l-130 220h-20z" />
    <glyph glyph-name="uniFB00" unicode="&#xfb00;" horiz-adv-x="680" 
d="M650 420l-10 -10h-100l-10 -10v-390l-10 -10h-80l-10 10v390l-10 10h-190l-10 -10v-390l-10 -10h-80l-10 10v390l-10 10h-70l-10 10v70l10 10h70l10 10v40c0 90 70 130 140 130h80l10 -10v-70l-10 -10h-80c-20 0 -40 -10 -40 -40v-40l10 -10h190l10 10v40
c0 90 70 130 140 130h80l10 -10v-70l-10 -10h-80c-20 0 -40 -10 -40 -40v-40l10 -10h100l10 -10v-70z" />
    <glyph glyph-name="fi" unicode="&#xfb01;" horiz-adv-x="590" 
d="M530 590l-10 -10h-80l-10 10v80l10 10h80l10 -10v-80zM530 10l-10 -10h-80l-10 10v390l-10 10h-190l-10 -10v-390l-10 -10h-80l-10 10v390l-10 10h-70l-10 10v70l10 10h70l10 10v40c0 90 70 130 140 130h80l10 -10v-70l-10 -10h-80c-20 0 -40 -10 -40 -40v-40l10 -10h290
l10 -10v-480z" />
    <glyph glyph-name="fl" unicode="&#xfb02;" horiz-adv-x="590" 
d="M530 10l-10 -10h-80l-10 10v390l-10 10h-190l-10 -10v-390l-10 -10h-80l-10 10v390l-10 10h-70l-10 10v70l10 10h70l10 10v40c0 90 70 130 140 130h80l10 -10v-70l-10 -10h-80c-20 0 -40 -10 -40 -40v-40l10 -10h190l10 10v180l10 10h80l10 -10v-680z" />
    <glyph glyph-name="uniFB03" unicode="&#xfb03;" horiz-adv-x="900" 
d="M840 10l-10 -10h-80l-10 10v390l-10 10h-190l-10 -10v-390l-10 -10h-80l-10 10v390l-10 10h-190l-10 -10v-390l-10 -10h-80l-10 10v390l-10 10h-70l-10 10v70l10 10h70l10 10v40c0 90 70 130 140 130h80l10 -10v-70l-10 -10h-80c-20 0 -40 -10 -40 -40v-40l10 -10h190
l10 10v40c0 90 70 130 140 130h80l10 -10v-70l-10 -10h-80c-20 0 -40 -10 -40 -40v-40l10 -10h290l10 -10v-480zM840 590l-10 -10h-80l-10 10v80l10 10h80l10 -10v-80z" />
    <glyph glyph-name="uniFB04" unicode="&#xfb04;" horiz-adv-x="900" 
d="M840 10l-10 -10h-80l-10 10v390l-10 10h-190l-10 -10v-390l-10 -10h-80l-10 10v390l-10 10h-190l-10 -10v-390l-10 -10h-80l-10 10v390l-10 10h-70l-10 10v70l10 10h70l10 10v40c0 90 70 130 140 130h80l10 -10v-70l-10 -10h-80c-20 0 -40 -10 -40 -40v-40l10 -10h190
l10 10v40c0 90 70 130 140 130h80l10 -10v-70l-10 -10h-80c-20 0 -40 -10 -40 -40v-40l10 -10h190l10 10v180l10 10h80l10 -10v-680z" />
    <glyph glyph-name="i.latn_TRK" horiz-adv-x="220" 
d="M160 590l-10 -10h-80l-10 10v80l10 10h80l10 -10v-80zM160 10l-10 -10h-80l-10 10v480l10 10h80l10 -10v-480z" />
    <glyph glyph-name="zero.osf" horiz-adv-x="540" 
d="M30 250c0 150 90 260 240 260s240 -110 240 -260s-90 -260 -240 -260s-240 110 -240 260zM130 250c0 -90 50 -170 140 -170s140 70 140 170s-50 170 -140 170s-140 -70 -140 -170z" />
    <glyph glyph-name="one.osf" horiz-adv-x="310" 
d="M240 0h-80l-10 10v360h-10l-70 -70h-30l-10 10v70l110 110l20 10h80l10 -10v-480z" />
    <glyph glyph-name="two.osf" horiz-adv-x="520" 
d="M490 10l-10 -10h-430l-10 10v70l10 20l200 100c80 40 120 70 120 130c0 50 -30 90 -110 90c-90 0 -110 -50 -110 -90l-10 -10h-80l-10 10c0 90 60 180 210 180s210 -90 210 -180c0 -100 -80 -150 -170 -190l-90 -40v-10h270l10 -10v-70z" />
    <glyph glyph-name="three.osf" horiz-adv-x="520" 
d="M500 30c0 -150 -100 -240 -250 -240c-140 0 -230 90 -230 200l10 10h80l10 -10c0 -50 40 -110 130 -110c100 0 150 60 150 150s-50 140 -130 140c-50 0 -80 -30 -80 -30h-30l-10 10v70l190 180v10h-280l-10 10v70l10 10h390l10 -10v-80l-10 -20l-150 -140v-10
c6 1 13 1 20 1c79 0 180 -55 180 -211z" />
    <glyph glyph-name="four.osf" horiz-adv-x="530" 
d="M470 -190l-10 -10h-80l-10 10v180l-10 10h-330l-10 10v80l10 20l320 380l20 10h90l10 -10v-680zM370 100v270h-10l-230 -270v-10h230z" />
    <glyph glyph-name="five.osf" horiz-adv-x="560" 
d="M520 50c0 -180 -90 -260 -240 -260s-220 80 -230 200l10 10h80l10 -10c10 -60 30 -110 130 -110s140 60 140 160c0 90 -30 150 -130 150s-130 -80 -130 -80l-20 -10l-70 10l-10 10l20 370l10 10h390l10 -10v-70l-10 -10h-300l-10 -10l-10 -180h10s40 60 140 60
c150 0 210 -110 210 -230z" />
    <glyph glyph-name="six.osf" horiz-adv-x="560" 
d="M40 340c0 280 100 370 260 370c120 0 200 -60 210 -170l-10 -10h-80l-10 10c-10 60 -50 80 -120 80c-140 0 -140 -160 -140 -210h10s40 50 140 50c140 0 220 -90 220 -230c0 -150 -90 -240 -230 -240c-150 0 -250 80 -250 350zM420 220c0 90 -30 150 -130 150
c-90 0 -140 -50 -140 -140c0 -100 60 -150 130 -150c90 0 140 50 140 140z" />
    <glyph glyph-name="seven.osf" horiz-adv-x="500" 
d="M470 410l-290 -600l-10 -10h-50l-10 10v80l250 510v10h-320l-10 10v70l10 10h420l10 -10v-80z" />
    <glyph glyph-name="eight.osf" horiz-adv-x="540" 
d="M510 200c0 -110 -80 -210 -240 -210s-240 100 -240 210c0 100 60 150 100 170v10c-30 20 -80 60 -80 140c0 100 70 190 220 190s220 -90 220 -190c0 -80 -50 -120 -80 -140v-10c40 -20 100 -70 100 -170zM390 520c0 50 -30 100 -120 100s-120 -50 -120 -100
c0 -60 40 -110 120 -110s120 50 120 110zM410 200c0 70 -40 130 -140 130s-140 -60 -140 -130c0 -60 40 -120 140 -120s140 60 140 120z" />
    <glyph glyph-name="nine.osf" horiz-adv-x="560" 
d="M520 170c0 -280 -90 -380 -260 -380c-110 0 -190 60 -200 170l10 10h80l10 -10c10 -60 50 -80 110 -80c140 0 140 160 140 220h-10s-40 -50 -140 -50c-130 0 -220 90 -220 230c0 150 100 230 230 230c160 0 250 -80 250 -340zM140 280c0 -90 50 -140 130 -140
c90 0 140 50 140 140c0 100 -60 140 -140 140s-130 -50 -130 -140z" />
    <glyph glyph-name="numbersign.tf" 
d="M260 80l30 110l-10 10h-70l-10 -10l-50 -180l-10 -10h-50l-10 10v70l30 110l-10 10h-70l-10 10v60l10 10h100l10 10l30 120l-10 10h-80l-10 10v60l10 10h110l10 10l50 180l10 10h50l10 -10v-70l-30 -110l10 -10h70l10 10l50 180l10 10h50l10 -10v-70l-30 -110l10 -10h70
l10 -10v-60l-10 -10h-100l-10 -10l-30 -120l10 -10h80l10 -10v-60l-10 -10h-110l-10 -10l-50 -180l-10 -10h-50l-10 10v70zM240 280h70l10 10l30 120l-10 10h-70l-10 -10l-30 -120z" />
    <glyph glyph-name="dollar.tf" 
d="M330 -80l-10 -10h-60l-10 10v60l-10 10c-150 20 -210 100 -210 230l10 10h80l10 -10c0 -70 20 -130 110 -140l10 10v220l-10 10c-130 30 -200 90 -200 200c0 90 50 170 200 190l10 10v60l10 10h60l10 -10v-60l10 -10c120 -10 190 -100 190 -210l-10 -10h-80l-10 10
c0 60 -30 110 -90 120l-10 -10v-200l10 -10c100 -20 210 -70 210 -210c0 -70 -40 -180 -210 -200l-10 -10v-60zM450 190c0 70 -50 100 -110 110l-10 -10v-200l10 -10c70 10 110 50 110 110zM140 520c0 -60 40 -90 100 -100l10 10v180l-10 10c-80 -10 -100 -60 -100 -100z
" />
    <glyph glyph-name="plus.tf" 
d="M530 220l-10 -10h-170l-10 -10v-170l-10 -10h-70l-10 10v170l-10 10h-170l-10 10v70l10 10h170l10 10v170l10 10h70l10 -10v-170l10 -10h170l10 -10v-70z" />
    <glyph glyph-name="zero.tf" 
d="M40 350c0 270 110 360 250 360s250 -90 250 -360s-110 -360 -250 -360s-250 90 -250 360zM140 350c0 -200 60 -270 150 -270s150 70 150 270s-60 270 -150 270s-150 -70 -150 -270z" />
    <glyph glyph-name="one.tf" 
d="M50 10v70l10 10h190l10 10v470h-10l-130 -130h-20l-10 10v80l160 160l20 10h80l10 -10v-590l10 -10h160l10 -10v-70l-10 -10h-470z" />
    <glyph glyph-name="two.tf" 
d="M530 10l-10 -10h-450l-10 10v80l10 20l200 180c100 90 140 130 140 210c0 60 -30 120 -120 120s-130 -50 -130 -130l-10 -10h-80l-10 10c0 130 80 220 230 220c160 0 220 -110 220 -200c0 -60 -10 -140 -110 -230l-200 -180v-10h320l10 -10v-70z" />
    <glyph glyph-name="three.tf" 
d="M530 230c0 -150 -100 -240 -250 -240c-140 0 -230 90 -230 200l10 10h80l10 -10c0 -50 40 -110 130 -110c100 0 150 60 150 150s-50 140 -130 140c-50 0 -80 -30 -80 -30h-30l-10 10v70l190 180v10h-280l-10 10v70l10 10h390l10 -10v-80l-10 -20l-150 -140v-10
c6 1 13 1 20 1c79 0 180 -55 180 -211z" />
    <glyph glyph-name="four.tf" 
d="M490 10l-10 -10h-80l-10 10v180l-10 10h-330l-10 10v80l10 20l320 380l20 10h90l10 -10v-680zM390 300v270h-10l-230 -270v-10h230z" />
    <glyph glyph-name="five.tf" 
d="M540 250c0 -180 -90 -260 -240 -260s-220 80 -230 200l10 10h80l10 -10c10 -60 30 -110 130 -110s140 60 140 160c0 90 -30 150 -130 150s-130 -80 -130 -80l-20 -10l-70 10l-10 10l20 370l10 10h390l10 -10v-70l-10 -10h-300l-10 -10l-10 -180h10s40 60 140 60
c150 0 210 -110 210 -230z" />
    <glyph glyph-name="six.tf" 
d="M50 340c0 280 100 370 260 370c120 0 200 -60 210 -170l-10 -10h-80l-10 10c-10 60 -50 80 -120 80c-140 0 -140 -160 -140 -210h10s40 50 140 50c140 0 220 -90 220 -230c0 -150 -90 -240 -230 -240c-150 0 -250 80 -250 350zM430 220c0 90 -30 150 -130 150
c-90 0 -140 -50 -140 -140c0 -100 60 -150 130 -150c90 0 140 50 140 140z" />
    <glyph glyph-name="seven.tf" 
d="M510 610l-290 -600l-10 -10h-50l-10 10v80l250 510v10h-320l-10 10v70l10 10h420l10 -10v-80z" />
    <glyph glyph-name="eight.tf" 
d="M530 200c0 -110 -80 -210 -240 -210s-240 100 -240 210c0 100 60 150 100 170v10c-30 20 -80 60 -80 140c0 100 70 190 220 190s220 -90 220 -190c0 -80 -50 -120 -80 -140v-10c40 -20 100 -70 100 -170zM410 520c0 50 -30 100 -120 100s-120 -50 -120 -100
c0 -60 40 -110 120 -110s120 50 120 110zM430 200c0 70 -40 130 -140 130s-140 -60 -140 -130c0 -60 40 -120 140 -120s140 60 140 120z" />
    <glyph glyph-name="nine.tf" 
d="M530 370c0 -280 -90 -380 -260 -380c-110 0 -190 60 -200 170l10 10h80l10 -10c10 -60 50 -80 110 -80c140 0 140 160 140 220h-10s-40 -50 -140 -50c-130 0 -220 90 -220 230c0 150 100 230 230 230c160 0 250 -80 250 -340zM150 480c0 -90 50 -140 130 -140
c90 0 140 50 140 140c0 100 -60 140 -140 140s-130 -50 -130 -140z" />
    <glyph glyph-name="less.tf" 
d="M70 280l10 20l390 200h20l10 -10v-60l-10 -20l-310 -150v-20l310 -150l10 -20v-60l-10 -10h-20l-390 200l-10 20v60z" />
    <glyph glyph-name="equal.tf" 
d="M500 310l-10 -10h-400l-10 10v70l10 10h400l10 -10v-70zM500 120l-10 -10h-400l-10 10v70l10 10h400l10 -10v-70z" />
    <glyph glyph-name="greater.tf" 
d="M500 300l10 -20v-60l-10 -20l-390 -200h-20l-10 10v60l10 20l310 150v20l-310 150l-10 20v60l10 10h20z" />
    <glyph glyph-name="asciitilde.tf" 
d="M250 210c-30 30 -50 50 -80 50c-40 0 -50 -30 -50 -80l-10 -10h-60l-10 10c0 100 40 180 150 180c70 0 110 -40 140 -70s50 -50 80 -50c40 0 50 30 50 80l10 10h60l10 -10c0 -100 -40 -180 -150 -180c-70 0 -110 40 -140 70z" />
    <glyph glyph-name="cent.tf" 
d="M160 250c0 -120 60 -160 90 -170l10 10v320l-10 10c-30 -10 -90 -50 -90 -170zM340 410v-320l10 -10c40 10 60 40 70 80l10 10h80l10 -10c-10 -110 -100 -160 -170 -170l-10 -10v-40l-10 -10h-60l-10 10v40l-10 10c-70 10 -190 70 -190 260s120 250 190 260l10 10v40
l10 10h60l10 -10v-40l10 -10c70 -10 160 -60 170 -170l-10 -10h-80l-10 10c-10 40 -30 70 -70 80z" />
    <glyph glyph-name="sterling.tf" 
d="M450 290l-10 -10h-200l-10 -10v-80c0 -50 -30 -80 -40 -90v-10h350l10 -10v-70l-10 -10h-490l-10 10v70l10 10h10c50 0 70 30 70 90v90l-10 10h-60l-10 10v60l10 10h60l10 10v130c0 130 60 210 200 210s200 -80 200 -210l-10 -10h-80l-10 10c0 80 -20 120 -100 120
s-100 -40 -100 -120v-130l10 -10h200l10 -10v-60z" />
    <glyph glyph-name="currency.tf" 
d="M30 250c0 60 20 110 40 140v10l-60 60v10l60 60h10l60 -60h10c30 20 80 40 140 40s110 -20 140 -40h10l60 60h10l60 -60v-10l-60 -60v-10c20 -30 40 -80 40 -140s-20 -110 -40 -140v-10l60 -60v-10l-60 -60h-10l-60 60h-10c-30 -20 -80 -40 -140 -40s-110 20 -140 40h-10
l-60 -60h-10l-60 60v10l60 60v10c-20 30 -40 80 -40 140zM130 250c0 -90 60 -170 160 -170s160 80 160 170s-60 170 -160 170s-160 -80 -160 -170z" />
    <glyph glyph-name="yen.tf" 
d="M340 120v-110l-10 -10h-80l-10 10v110l-10 10h-110l-10 10v60l10 10h110l10 10v20l-20 40l-20 10h-110l-10 10v60l10 10h80v10l-120 240v70l10 10h50l20 -10l150 -320h20l150 320l20 10h50l10 -10v-70l-120 -240v-10h80l10 -10v-60l-10 -10h-110l-20 -10l-20 -40v-20
l10 -10h110l10 -10v-60l-10 -10h-110z" />
    <glyph glyph-name="section.tf" 
d="M130 290c0 -100 110 -110 250 -160h10c40 10 60 40 60 90c0 100 -110 110 -250 160h-10c-40 -10 -60 -40 -60 -90zM470 90v-10c20 -20 50 -50 50 -110c0 -110 -70 -180 -220 -180c-140 0 -240 60 -240 210l10 10h80l10 -10c0 -80 30 -120 140 -120c90 0 120 30 120 90
c0 140 -390 70 -390 320c0 70 40 110 80 130v10c-20 20 -50 50 -50 110c0 100 70 170 230 170c140 0 230 -60 230 -210l-10 -10h-80l-10 10c0 80 -30 120 -140 120c-90 0 -120 -30 -120 -80c0 -140 390 -70 390 -320c0 -70 -40 -110 -80 -130z" />
    <glyph glyph-name="logicalnot.tf" 
d="M500 100l-10 -10h-70l-10 10v100l-10 10h-330l-10 10v70l10 10h420l10 -10v-190z" />
    <glyph glyph-name="plusminus.tf" 
d="M520 290l-10 -10h-160l-10 -10v-110l-10 -10h-70l-10 10v110l-10 10h-160l-10 10v70l10 10h160l10 10v110l10 10h70l10 -10v-110l10 -10h160l10 -10v-70zM520 10l-10 -10h-430l-10 10v70l10 10h430l10 -10v-70z" />
    <glyph glyph-name="multiply.tf" 
d="M520 80l-50 -50h-10l-160 160h-10l-160 -160h-10l-50 50v10l160 160v10l-160 160v10l50 50h10l160 -160h10l160 160h10l50 -50v-10l-160 -160v-10l160 -160v-10z" />
    <glyph glyph-name="divide.tf" 
d="M530 220l-10 -10h-460l-10 10v70l10 10h460l10 -10v-70zM350 20l-10 -10h-100l-10 10v100l10 10h100l10 -10v-100zM350 390l-10 -10h-100l-10 10v100l10 10h100l10 -10v-100z" />
    <glyph glyph-name="florin.tf" 
d="M400 560l-10 -50l10 -10h130l10 -10v-60l-10 -10h-150l-10 -10l-90 -450c-20 -100 -60 -160 -200 -160h-10l-10 10v60l10 10h20c60 0 80 30 90 80l90 450l-10 10h-70l-10 10v60l10 10h90l10 10l10 50c20 100 70 140 180 140h20l10 -10v-60l-10 -10h-30
c-40 0 -60 -10 -70 -60z" />
    <glyph glyph-name="Euro.tf" 
d="M370 240l-10 -10h-160l-10 -10c10 -80 40 -140 140 -140c80 0 120 60 130 120l10 10h80l10 -10c-10 -120 -100 -210 -230 -210c-150 0 -230 90 -240 230l-10 10h-50l-10 10v60l10 10h40l10 10v40l-10 10h-40l-10 10v60l10 10h50l10 10c10 140 80 250 240 250
c140 0 220 -80 230 -210l-10 -10h-80l-10 10c-10 70 -40 120 -130 120c-100 0 -130 -70 -140 -160l10 -10h200l10 -10v-60l-10 -10h-210l-10 -10v-40l10 -10h170l10 -10v-60z" />
    <glyph glyph-name="minus.tf" 
d="M510 220l-10 -10h-420l-10 10v70l10 10h420l10 -10v-70z" />
    <glyph glyph-name="zero.tosf" 
d="M40 250c0 150 100 260 250 260s250 -110 250 -260s-100 -260 -250 -260s-250 110 -250 260zM140 250c0 -100 60 -170 150 -170s150 70 150 170s-60 170 -150 170s-150 -70 -150 -170z" />
    <glyph glyph-name="one.tosf" 
d="M70 10v70l10 10h180l10 10v270h-10l-100 -100h-30l-10 10v70l140 140l20 10h80l10 -10v-390l10 -10h150l10 -10v-70l-10 -10h-450z" />
    <glyph glyph-name="two.tosf" 
d="M520 10l-10 -10h-430l-10 10v70l10 20l200 100c80 40 120 70 120 130c0 50 -30 90 -110 90c-90 0 -110 -50 -110 -90l-10 -10h-80l-10 10c0 90 60 180 210 180s210 -90 210 -180c0 -100 -80 -150 -170 -190l-90 -40v-10h270l10 -10v-70z" />
    <glyph glyph-name="three.tosf" 
d="M530 30c0 -150 -100 -240 -250 -240c-140 0 -230 90 -230 200l10 10h80l10 -10c0 -50 40 -110 130 -110c100 0 150 60 150 150s-50 140 -130 140c-50 0 -80 -30 -80 -30h-30l-10 10v70l190 180v10h-280l-10 10v70l10 10h390l10 -10v-80l-10 -20l-150 -140v-10
c6 1 13 1 20 1c79 0 180 -55 180 -211z" />
    <glyph glyph-name="four.tosf" 
d="M490 -190l-10 -10h-80l-10 10v180l-10 10h-330l-10 10v80l10 20l320 380l20 10h90l10 -10v-680zM390 100v270h-10l-230 -270v-10h230z" />
    <glyph glyph-name="five.tosf" 
d="M530 50c0 -180 -90 -260 -240 -260s-220 80 -230 200l10 10h80l10 -10c10 -60 30 -110 130 -110s140 60 140 160c0 90 -30 150 -130 150s-130 -80 -130 -80l-20 -10l-70 10l-10 10l20 370l10 10h390l10 -10v-70l-10 -10h-300l-10 -10l-10 -180h10s40 60 140 60
c150 0 210 -110 210 -230z" />
    <glyph glyph-name="six.tosf" 
d="M60 340c0 280 100 370 260 370c120 0 200 -60 210 -170l-10 -10h-80l-10 10c-10 60 -50 80 -120 80c-140 0 -140 -160 -140 -210h10s40 50 140 50c140 0 220 -90 220 -230c0 -150 -90 -240 -230 -240c-150 0 -250 80 -250 350zM440 220c0 90 -30 150 -130 150
c-90 0 -140 -50 -140 -140c0 -100 60 -150 130 -150c90 0 140 50 140 140z" />
    <glyph glyph-name="seven.tosf" 
d="M510 410l-290 -600l-10 -10h-50l-10 10v80l250 510v10h-320l-10 10v70l10 10h420l10 -10v-80z" />
    <glyph glyph-name="eight.tosf" 
d="M530 200c0 -110 -80 -210 -240 -210s-240 100 -240 210c0 100 60 150 100 170v10c-30 20 -80 60 -80 140c0 100 70 190 220 190s220 -90 220 -190c0 -80 -50 -120 -80 -140v-10c40 -20 100 -70 100 -170zM410 520c0 50 -30 100 -120 100s-120 -50 -120 -100
c0 -60 40 -110 120 -110s120 50 120 110zM430 200c0 70 -40 130 -140 130s-140 -60 -140 -130c0 -60 40 -120 140 -120s140 60 140 120z" />
    <glyph glyph-name="nine.tosf" 
d="M530 170c0 -280 -90 -380 -260 -380c-110 0 -190 60 -200 170l10 10h80l10 -10c10 -60 50 -80 110 -80c140 0 140 160 140 220h-10s-40 -50 -140 -50c-130 0 -220 90 -220 230c0 150 100 230 230 230c160 0 250 -80 250 -340zM150 280c0 -90 50 -140 130 -140
c90 0 140 50 140 140c0 100 -60 140 -140 140s-130 -50 -130 -140z" />
    <glyph glyph-name="parenleft.case" horiz-adv-x="420" 
d="M340 -90l-10 -10h-20l-20 10c-200 200 -210 210 -210 440s10 240 210 440l20 10h20l10 -10v-70c-150 -150 -160 -160 -160 -370s10 -220 160 -370v-70z" />
    <glyph glyph-name="parenright.case" horiz-adv-x="420" 
d="M90 -100l-10 10v70c150 150 160 160 160 370s-10 220 -160 370v70l10 10h20l20 -10c200 -200 210 -210 210 -440s-10 -240 -210 -440l-20 -10h-20z" />
    <glyph glyph-name="hyphen.case" horiz-adv-x="410" 
d="M350 320l-10 -10h-270l-10 10v70l10 10h270l10 -10v-70z" />
    <glyph glyph-name="at.case" horiz-adv-x="920" 
d="M460 480c-60 0 -100 -30 -100 -130s40 -130 100 -130s90 30 90 130s-30 130 -90 130zM550 530v20l10 10h80l10 -10v-290c0 -50 20 -60 50 -60c50 0 60 50 60 150c0 170 -90 320 -300 320c-200 0 -300 -150 -300 -320c0 -180 100 -320 300 -320c70 0 130 20 160 40h20
l10 -10v-70c-40 -30 -110 -50 -190 -50c-240 0 -400 170 -400 410s160 410 400 410s400 -170 400 -410c0 -160 -70 -230 -170 -230c-60 0 -90 30 -110 60h-10c-20 -20 -50 -50 -120 -50c-100 0 -190 70 -190 220s90 220 180 220c70 0 100 -40 100 -40h10z" />
    <glyph glyph-name="bracketleft.case" horiz-adv-x="370" 
d="M290 -90l-10 -10h-190l-10 10v880l10 10h190l10 -10v-70l-10 -10h-90l-10 -10v-700l10 -10h90l10 -10v-70z" />
    <glyph glyph-name="bracketright.case" horiz-adv-x="370" 
d="M90 -100l-10 10v70l10 10h90l10 10v700l-10 10h-90l-10 10v70l10 10h190l10 -10v-880l-10 -10h-190z" />
    <glyph glyph-name="underscore.case" 
d="M540 10l-10 -10h-480l-10 10v70l10 10h480l10 -10v-70z" />
    <glyph glyph-name="braceleft.case" horiz-adv-x="440" 
d="M160 50v180c0 60 -20 80 -70 80l-10 10v60l10 10c50 0 70 20 70 80v180c0 100 70 150 150 150h40l10 -10v-70l-10 -10h-40c-30 0 -50 -20 -50 -60v-190c0 -50 -20 -90 -50 -100v-20c30 -10 50 -50 50 -100v-190c0 -40 20 -60 50 -60h40l10 -10v-70l-10 -10h-40
c-80 0 -150 50 -150 150z" />
    <glyph glyph-name="braceright.case" horiz-adv-x="440" 
d="M280 230v-180c0 -100 -70 -150 -150 -150h-40l-10 10v70l10 10h40c30 0 50 20 50 60v190c0 50 20 90 50 100v20c-30 10 -50 50 -50 100v190c0 40 -20 60 -50 60h-40l-10 10v70l10 10h40c80 0 150 -50 150 -150v-180c0 -60 20 -80 70 -80l10 -10v-60l-10 -10
c-50 0 -70 -20 -70 -80z" />
    <glyph glyph-name="exclamdown.case" horiz-adv-x="360" 
d="M130 300l20 190l10 10h40l10 -10l20 -190v-290l-10 -10h-80l-10 10v290zM120 690l10 10h100l10 -10v-100l-10 -10h-100l-10 10v100z" />
    <glyph glyph-name="guillemotleft.case" horiz-adv-x="700" 
d="M360 140l-10 -10h-80l-20 10l-160 160l-10 20v60l10 20l160 160l20 10h80l10 -10v-30l-180 -170v-20l180 -170v-30zM620 140l-10 -10h-80l-20 10l-160 160l-10 20v60l10 20l160 160l20 10h80l10 -10v-30l-180 -170v-20l180 -170v-30z" />
    <glyph glyph-name="periodcentered.case" horiz-adv-x="280" 
d="M200 300l-10 -10h-100l-10 10v100l10 10h100l10 -10v-100z" />
    <glyph glyph-name="guillemotright.case" horiz-adv-x="700" 
d="M350 130l-10 10v30l180 170v20l-180 170v30l10 10h80l20 -10l160 -160l10 -20v-60l-10 -20l-160 -160l-20 -10h-80zM90 130l-10 10v30l180 170v20l-180 170v30l10 10h80l20 -10l160 -160l10 -20v-60l-10 -20l-160 -160l-20 -10h-80z" />
    <glyph glyph-name="questiondown.case" horiz-adv-x="600" 
d="M80 180c0 100 40 140 100 190s80 70 80 130l10 10h80l10 -10c0 -80 -20 -120 -80 -170s-100 -80 -100 -150c0 -50 30 -100 120 -100s120 50 120 130l10 10h80l10 -10c0 -130 -70 -220 -220 -220c-130 0 -220 70 -220 190zM250 690l10 10h100l10 -10v-100l-10 -10h-100
l-10 10v100z" />
    <glyph glyph-name="endash.case" horiz-adv-x="620" 
d="M560 320l-10 -10h-480l-10 10v70l10 10h480l10 -10v-70z" />
    <glyph glyph-name="emdash.case" horiz-adv-x="1120" 
d="M1060 320l-10 -10h-980l-10 10v70l10 10h980l10 -10v-70z" />
    <glyph glyph-name="bullet.case" horiz-adv-x="390" 
d="M310 360v-10l-110 -110h-10l-110 110v10l110 110h10z" />
    <glyph glyph-name="guilsinglleft.case" horiz-adv-x="440" 
d="M360 140l-10 -10h-80l-20 10l-160 160l-10 20v60l10 20l160 160l20 10h80l10 -10v-30l-180 -170v-20l180 -170v-30z" />
    <glyph glyph-name="guilsinglright.case" horiz-adv-x="440" 
d="M90 130l-10 10v30l180 170v20l-180 170v30l10 10h80l20 -10l160 -160l10 -20v-60l-10 -20l-160 -160l-20 -10h-80z" />
    <glyph glyph-name="zero.zero" 
d="M40 350c0 270 110 360 250 360s250 -90 250 -360s-110 -360 -250 -360s-250 90 -250 360zM440 350c0 80 -10 130 -20 160h-10l-190 -400v-10s20 -20 70 -20c90 0 150 70 150 270zM140 350c0 -80 10 -130 20 -160h10l190 400v10s-20 20 -70 20c-90 0 -150 -70 -150 -270z
" />
    <glyph glyph-name="quotedbl.ss01" horiz-adv-x="340" 
d="M260 400l-10 -10h-10l-10 10v290l10 10h10l10 -10v-290zM110 400l-10 -10h-10l-10 10v290l10 10h10l10 -10v-290z" />
    <glyph glyph-name="numbersign.ss01" horiz-adv-x="600" 
d="M340 20l30 170l-10 10h-180l-10 -10l-30 -180l-10 -10h-10l-10 10v10l30 170l-10 10h-90l-10 10v10l10 10h100l10 10l40 220l-10 10h-90l-10 10v10l10 10h100l10 10l30 180l10 10h10l10 -10v-10l-30 -170l10 -10h180l10 10l30 180l10 10h10l10 -10v-10l-30 -170l10 -10
h90l10 -10v-10l-10 -10h-100l-10 -10l-40 -220l10 -10h90l10 -10v-10l-10 -10h-100l-10 -10l-30 -180l-10 -10h-10l-10 10v10zM230 470l-10 -10l-40 -220l10 -10h180l10 10l40 220l-10 10h-180z" />
    <glyph glyph-name="quotesingle.ss01" horiz-adv-x="190" 
d="M110 400l-10 -10h-10l-10 10v290l10 10h10l10 -10v-290z" />
    <glyph glyph-name="parenleft.ss01" horiz-adv-x="400" 
d="M110 250c0 -230 10 -240 210 -440v-10h-20l-20 10c-190 190 -200 200 -200 440s10 250 200 440l20 10h20v-10c-200 -200 -210 -210 -210 -440z" />
    <glyph glyph-name="parenright.ss01" horiz-adv-x="400" 
d="M290 250c0 230 -10 240 -210 440v10h20l20 -10c190 -190 200 -200 200 -440s-10 -250 -200 -440l-20 -10h-20v10c200 200 210 210 210 440z" />
    <glyph glyph-name="slash.ss01" horiz-adv-x="490" 
d="M450 670l-390 -660l-10 -10h-10v30l390 660l10 10h10v-30z" />
    <glyph glyph-name="bracketleft.ss01" horiz-adv-x="340" 
d="M260 -190l-10 -10h-160l-10 10v880l10 10h160l10 -10v-10l-10 -10h-130l-10 -10v-820l10 -10h130l10 -10v-10z" />
    <glyph glyph-name="backslash.ss01" horiz-adv-x="490" 
d="M430 10l-390 660v30h10l10 -10l390 -660v-30h-10z" />
    <glyph glyph-name="bracketright.ss01" horiz-adv-x="340" 
d="M90 -200l-10 10v10l10 10h130l10 10v820l-10 10h-130l-10 10v10l10 10h160l10 -10v-880l-10 -10h-160z" />
    <glyph glyph-name="underscore.ss01" 
d="M540 -20l-10 -10h-480l-10 10v10l10 10h480l10 -10v-10z" />
    <glyph glyph-name="braceleft.ss01" horiz-adv-x="420" 
d="M150 260v-10c30 -10 40 -40 40 -90v-230c0 -70 40 -100 100 -100h40l10 -10v-10l-10 -10h-40c-70 0 -130 40 -130 130v230c0 60 -20 80 -70 80l-10 10v10l10 10c50 0 70 20 70 80v220c0 90 60 130 130 130h40l10 -10v-10l-10 -10h-40c-60 0 -100 -30 -100 -100v-220
c0 -50 -10 -80 -40 -90z" />
    <glyph glyph-name="bar.ss01" horiz-adv-x="270" 
d="M150 -190l-10 -10h-10l-10 10v880l10 10h10l10 -10v-880z" />
    <glyph glyph-name="braceright.ss01" horiz-adv-x="420" 
d="M270 250v10c-30 10 -40 40 -40 90v220c0 70 -40 100 -100 100h-40l-10 10v10l10 10h40c70 0 130 -40 130 -130v-220c0 -60 20 -80 70 -80l10 -10v-10l-10 -10c-50 0 -70 -20 -70 -80v-230c0 -90 -60 -130 -130 -130h-40l-10 10v10l10 10h40c60 0 100 30 100 100v230
c0 50 10 80 40 90z" />
    <glyph glyph-name="guillemotleft.ss01" horiz-adv-x="590" 
d="M320 30h-20l-20 10l-200 200v20l200 200l20 10h20v-10l-200 -200v-20l200 -200v-10zM510 30h-20l-20 10l-200 200v20l200 200l20 10h20v-10l-200 -200v-20l200 -200v-10z" />
    <glyph glyph-name="logicalnot.ss01" 
d="M500 100l-10 -10h-10l-10 10v130l-10 10h-390l-10 10v10l10 10h420l10 -10v-160z" />
    <glyph glyph-name="degree.ss01" horiz-adv-x="560" 
d="M80 510c0 110 90 200 200 200s200 -90 200 -200s-90 -200 -200 -200s-200 90 -200 200zM120 510c0 -90 70 -160 160 -160s160 70 160 160s-70 160 -160 160s-160 -70 -160 -160z" />
    <glyph glyph-name="guillemotright.ss01" horiz-adv-x="590" 
d="M290 30h-20v10l200 200v20l-200 200v10h20l20 -10l200 -200v-20l-200 -200zM100 30h-20v10l200 200v20l-200 200v10h20l20 -10l200 -200v-20l-200 -200z" />
    <glyph glyph-name="endash.ss01" horiz-adv-x="620" 
d="M560 250l-10 -10h-480l-10 10v10l10 10h480l10 -10v-10z" />
    <glyph glyph-name="emdash.ss01" horiz-adv-x="1120" 
d="M1060 250l-10 -10h-980l-10 10v10l10 10h980l10 -10v-10z" />
    <glyph glyph-name="quoteleft.ss01" horiz-adv-x="240" 
d="M70 580l10 30l50 80l10 10h20v-10l-50 -90v-10l10 -10h20l10 -10v-100l-10 -10h-60l-10 10v110z" />
    <glyph glyph-name="quoteright.ss01" horiz-adv-x="240" 
d="M170 580l-10 -30l-50 -80l-10 -10h-20v10l50 90v10l-10 10h-20l-10 10v100l10 10h60l10 -10v-110z" />
    <glyph glyph-name="quotesinglbase.ss01" horiz-adv-x="240" 
d="M160 0l-10 -30l-50 -80l-10 -10h-20v10l50 90v10l-10 10h-20l-10 10v100l10 10h60l10 -10v-110z" />
    <glyph glyph-name="quotedblleft.ss01" horiz-adv-x="400" 
d="M230 580l10 30l50 80l10 10h20v-10l-50 -90v-10l10 -10h20l10 -10v-100l-10 -10h-60l-10 10v110zM70 580l10 30l50 80l10 10h20v-10l-50 -90v-10l10 -10h20l10 -10v-100l-10 -10h-60l-10 10v110z" />
    <glyph glyph-name="quotedblright.ss01" horiz-adv-x="400" 
d="M170 580l-10 -30l-50 -80l-10 -10h-20v10l50 90v10l-10 10h-20l-10 10v100l10 10h60l10 -10v-110zM330 580l-10 -30l-50 -80l-10 -10h-20v10l50 90v10l-10 10h-20l-10 10v100l10 10h60l10 -10v-110z" />
    <glyph glyph-name="quotedblbase.ss01" horiz-adv-x="400" 
d="M160 0l-10 -30l-50 -80l-10 -10h-20v10l50 90v10l-10 10h-20l-10 10v100l10 10h60l10 -10v-110zM320 0l-10 -30l-50 -80l-10 -10h-20v10l50 90v10l-10 10h-20l-10 10v100l10 10h60l10 -10v-110z" />
    <glyph glyph-name="guilsinglleft.ss01" horiz-adv-x="400" 
d="M320 30h-20l-20 10l-200 200v20l200 200l20 10h20v-10l-200 -200v-20l200 -200v-10z" />
    <glyph glyph-name="guilsinglright.ss01" horiz-adv-x="400" 
d="M100 30h-20v10l200 200v20l-200 200v10h20l20 -10l200 -200v-20l-200 -200z" />
    <glyph glyph-name="arrowleft.ss01" horiz-adv-x="860" 
d="M340 0l-20 10l-240 240v10l240 240l20 10h20v-10l-220 -220v-10h630l10 -10v-10l-10 -10h-630v-10l220 -220v-10h-20z" />
    <glyph glyph-name="arrowup.ss01" horiz-adv-x="670" 
d="M580 460l10 -20v-20h-10l-220 220h-10v-630l-10 -10h-10l-10 10v630h-10l-220 -220h-10v20l10 20l240 240h10z" />
    <glyph glyph-name="arrowright.ss01" horiz-adv-x="860" 
d="M540 10l-20 -10h-20v10l220 220v10h-630l-10 10v10l10 10h630v10l-220 220v10h20l20 -10l240 -240v-10z" />
    <glyph glyph-name="arrowdown.ss01" horiz-adv-x="670" 
d="M590 260l-10 -20l-240 -240h-10l-240 240l-10 20v20h10l220 -220h10v630l10 10h10l10 -10v-630h10l220 220h10v-20z" />
    <glyph glyph-name="arrowboth.ss01" horiz-adv-x="1060" 
d="M320 500l20 10h20v-10l-220 -220v-10h780v10l-220 220v10h20l20 -10l240 -240v-10l-240 -240l-20 -10h-20v10l220 220v10h-780v-10l220 -220v-10h-20l-20 10l-240 240v10z" />
    <glyph glyph-name="arrowupdn.ss01" horiz-adv-x="670" 
d="M90 40l-10 20v20h10l220 -220h10v780h-10l-220 -220h-10v20l10 20l240 240h10l240 -240l10 -20v-20h-10l-220 220h-10v-780h10l220 220h10v-20l-10 -20l-240 -240h-10z" />
    <glyph glyph-name="uni2196.ss01" horiz-adv-x="660" 
d="M420 700l20 -10l10 -10v-10h-310v-10l440 -440v-10l-10 -10h-10l-440 440h-10v-310h-10l-10 10l-10 20v330l10 10h330z" />
    <glyph glyph-name="uni2197.ss01" horiz-adv-x="660" 
d="M220 690l20 10h330l10 -10v-330l-10 -20l-10 -10h-10v310h-10l-440 -440h-10l-10 10v10l440 440v10h-310v10z" />
    <glyph glyph-name="uni2198.ss01" horiz-adv-x="660" 
d="M240 0l-20 10l-10 10v10h310v10l-440 440v10l10 10h10l440 -440h10v310h10l10 -10l10 -20v-330l-10 -10h-330z" />
    <glyph glyph-name="uni2199.ss01" horiz-adv-x="660" 
d="M440 10l-20 -10h-330l-10 10v330l10 20l10 10h10v-310h10l440 440h10l10 -10v-10l-440 -440v-10h310v-10z" />
    <glyph glyph-name="a.ss02" horiz-adv-x="550" 
d="M390 450l10 40l10 10h70l10 -10v-480l-10 -10h-70l-10 10l-10 40h-10c-20 -30 -60 -60 -130 -60c-130 0 -220 100 -220 260s90 260 220 260c70 0 110 -30 130 -60h10zM390 250c0 110 -50 170 -130 170s-130 -60 -130 -170s50 -170 130 -170s130 60 130 170z" />
    <glyph glyph-name="agrave.ss02" horiz-adv-x="550" 
d="M330 570l-10 -10h-50l-20 10l-110 100v20l10 10h70l20 -10l90 -100v-20zM390 450l10 40l10 10h70l10 -10v-480l-10 -10h-70l-10 10l-10 40h-10c-20 -30 -60 -60 -130 -60c-130 0 -220 100 -220 260s90 260 220 260c70 0 110 -30 130 -60h10zM390 250
c0 110 -50 170 -130 170s-130 -60 -130 -170s50 -170 130 -170s130 60 130 170z" />
    <glyph glyph-name="aacute.ss02" horiz-adv-x="550" 
d="M380 670l-110 -100l-20 -10h-50l-10 10v20l90 100l20 10h70l10 -10v-20zM390 450l10 40l10 10h70l10 -10v-480l-10 -10h-70l-10 10l-10 40h-10c-20 -30 -60 -60 -130 -60c-130 0 -220 100 -220 260s90 260 220 260c70 0 110 -30 130 -60h10zM390 250
c0 110 -50 170 -130 170s-130 -60 -130 -170s50 -170 130 -170s130 60 130 170z" />
    <glyph glyph-name="acircumflex.ss02" horiz-adv-x="550" 
d="M420 570l-10 -10h-50l-20 10l-70 60h-20l-70 -60l-20 -10h-50l-10 10v20l90 100l20 10h100l20 -10l90 -100v-20zM390 450l10 40l10 10h70l10 -10v-480l-10 -10h-70l-10 10l-10 40h-10c-20 -30 -60 -60 -130 -60c-130 0 -220 100 -220 260s90 260 220 260
c70 0 110 -30 130 -60h10zM390 250c0 110 -50 170 -130 170s-130 -60 -130 -170s50 -170 130 -170s130 60 130 170z" />
    <glyph glyph-name="atilde.ss02" horiz-adv-x="550" 
d="M320 550c-80 0 -100 70 -140 70c-30 0 -40 -20 -40 -50l-10 -10h-30l-10 10c0 60 30 110 100 110c80 0 100 -70 140 -70c30 0 40 20 40 50l10 10h30l10 -10c0 -60 -30 -110 -100 -110zM390 450l10 40l10 10h70l10 -10v-480l-10 -10h-70l-10 10l-10 40h-10
c-20 -30 -60 -60 -130 -60c-130 0 -220 100 -220 260s90 260 220 260c70 0 110 -30 130 -60h10zM390 250c0 110 -50 170 -130 170s-130 -60 -130 -170s50 -170 130 -170s130 60 130 170z" />
    <glyph glyph-name="adieresis.ss02" horiz-adv-x="550" 
d="M400 590l-10 -10h-80l-10 10v80l10 10h80l10 -10v-80zM220 590l-10 -10h-80l-10 10v80l10 10h80l10 -10v-80zM390 450l10 40l10 10h70l10 -10v-480l-10 -10h-70l-10 10l-10 40h-10c-20 -30 -60 -60 -130 -60c-130 0 -220 100 -220 260s90 260 220 260
c70 0 110 -30 130 -60h10zM390 250c0 110 -50 170 -130 170s-130 -60 -130 -170s50 -170 130 -170s130 60 130 170z" />
    <glyph glyph-name="aring.ss02" horiz-adv-x="550" 
d="M390 450l10 40l10 10h70l10 -10v-480l-10 -10h-70l-10 10l-10 40h-10c-20 -30 -60 -60 -130 -60c-130 0 -220 100 -220 260s90 260 220 260c70 0 110 -30 130 -60h10zM390 250c0 110 -50 170 -130 170s-130 -60 -130 -170s50 -170 130 -170s130 60 130 170zM360 640
c0 -50 -40 -90 -100 -90s-100 40 -100 90s40 90 100 90s100 -40 100 -90zM300 640c0 20 -10 40 -40 40s-40 -20 -40 -40s10 -40 40 -40s40 20 40 40z" />
    <glyph glyph-name="amacron.ss02" horiz-adv-x="550" 
d="M390 450l10 40l10 10h70l10 -10v-480l-10 -10h-70l-10 10l-10 40h-10c-20 -30 -60 -60 -130 -60c-130 0 -220 100 -220 260s90 260 220 260c70 0 110 -30 130 -60h10zM390 250c0 110 -50 170 -130 170s-130 -60 -130 -170s50 -170 130 -170s130 60 130 170zM420 590
l-10 -10h-300l-10 10v60l10 10h300l10 -10v-60z" />
    <glyph glyph-name="abreve.ss02" horiz-adv-x="550" 
d="M390 450l10 40l10 10h70l10 -10v-480l-10 -10h-70l-10 10l-10 40h-10c-20 -30 -60 -60 -130 -60c-130 0 -220 100 -220 260s90 260 220 260c70 0 110 -30 130 -60h10zM390 250c0 110 -50 170 -130 170s-130 -60 -130 -170s50 -170 130 -170s130 60 130 170zM180 690
l10 -10c0 -40 30 -60 70 -60s70 20 70 60l10 10h50l10 -10c0 -80 -60 -130 -140 -130s-140 50 -140 130l10 10h50z" />
    <glyph glyph-name="aogonek.ss02" horiz-adv-x="550" 
d="M400 10l-10 40h-10c-20 -30 -60 -60 -130 -60c-130 0 -220 100 -220 260s90 260 220 260c70 0 110 -30 130 -60h10l10 40l10 10h70l10 -10v-480l-10 -10c-60 -10 -100 -40 -100 -80c0 -30 20 -50 50 -50s50 10 50 10l10 -10v-40l-10 -10s-30 -20 -70 -20
c-60 0 -110 40 -110 100c0 70 50 100 100 110zM390 250c0 110 -50 170 -130 170s-130 -60 -130 -170s50 -170 130 -170s130 60 130 170z" />
    <glyph glyph-name="aringacute.ss02" horiz-adv-x="550" 
d="M390 450l10 40l10 10h70l10 -10v-480l-10 -10h-70l-10 10l-10 40h-10c-20 -30 -60 -60 -130 -60c-130 0 -220 100 -220 260s90 260 220 260c70 0 110 -30 130 -60h10zM390 250c0 110 -50 170 -130 170s-130 -60 -130 -170s50 -170 130 -170s130 60 130 170zM350 640
c0 -50 -40 -90 -100 -90s-100 40 -100 90s40 90 100 90s100 -40 100 -90zM290 640c0 20 -10 40 -40 40s-40 -20 -40 -40s10 -40 40 -40s40 20 40 40zM380 870l-110 -100l-20 -10h-50l-10 10v20l90 100l20 10h70l10 -10v-20z" />
    <glyph glyph-name="parenleft.ss03" horiz-adv-x="390" 
d="M310 10l-10 -10h-20l-20 10c-170 170 -180 180 -180 340s10 170 180 340l20 10h20l10 -10v-70c-120 -120 -130 -130 -130 -270s10 -150 130 -270v-70z" />
    <glyph glyph-name="parenright.ss03" horiz-adv-x="390" 
d="M90 0l-10 10v70c120 120 130 130 130 270s-10 150 -130 270v70l10 10h20l20 -10c170 -170 180 -180 180 -340s-10 -170 -180 -340l-20 -10h-20z" />
    <glyph glyph-name="bracketleft.ss03" horiz-adv-x="370" 
d="M290 10l-10 -10h-190l-10 10v680l10 10h190l10 -10v-70l-10 -10h-90l-10 -10v-500l10 -10h90l10 -10v-70z" />
    <glyph glyph-name="bracketright.ss03" horiz-adv-x="370" 
d="M90 0l-10 10v70l10 10h90l10 10v500l-10 10h-90l-10 10v70l10 10h190l10 -10v-680l-10 -10h-190z" />
    <glyph glyph-name="braceleft.ss03" horiz-adv-x="440" 
d="M160 150v80c0 60 -20 80 -70 80l-10 10v60l10 10c50 0 70 20 70 80v80c0 100 70 150 150 150h40l10 -10v-70l-10 -10h-40c-30 0 -50 -20 -50 -60v-90c0 -50 -20 -90 -50 -100v-20c30 -10 50 -50 50 -100v-90c0 -40 20 -60 50 -60h40l10 -10v-70l-10 -10h-40
c-80 0 -150 50 -150 150z" />
    <glyph glyph-name="braceright.ss03" horiz-adv-x="440" 
d="M280 230v-80c0 -100 -70 -150 -150 -150h-40l-10 10v70l10 10h40c30 0 50 20 50 60v90c0 50 20 90 50 100v20c-30 10 -50 50 -50 100v90c0 40 -20 60 -50 60h-40l-10 10v70l10 10h40c80 0 150 -50 150 -150v-80c0 -60 20 -80 70 -80l10 -10v-60l-10 -10
c-50 0 -70 -20 -70 -80z" />
    <glyph glyph-name="parenleft.ss04" horiz-adv-x="380" 
d="M110 350c0 -150 10 -160 190 -340v-10h-20l-20 10c-170 170 -180 180 -180 340s10 170 180 340l20 10h20v-10c-180 -180 -190 -190 -190 -340z" />
    <glyph glyph-name="parenright.ss04" horiz-adv-x="380" 
d="M270 350c0 150 -10 160 -190 340v10h20l20 -10c170 -170 180 -180 180 -340s-10 -170 -180 -340l-20 -10h-20v10c180 180 190 190 190 340z" />
    <glyph glyph-name="bracketleft.ss04" horiz-adv-x="340" 
d="M260 10l-10 -10h-160l-10 10v680l10 10h160l10 -10v-10l-10 -10h-130l-10 -10v-620l10 -10h130l10 -10v-10z" />
    <glyph glyph-name="bracketright.ss04" horiz-adv-x="340" 
d="M90 0l-10 10v10l10 10h130l10 10v620l-10 10h-130l-10 10v10l10 10h160l10 -10v-680l-10 -10h-160z" />
    <glyph glyph-name="braceleft.ss04" horiz-adv-x="420" 
d="M150 360v-10c30 -10 40 -40 40 -90v-130c0 -70 40 -100 100 -100h40l10 -10v-10l-10 -10h-40c-70 0 -130 40 -130 130v130c0 60 -20 80 -70 80l-10 10v10l10 10c50 0 70 20 70 80v120c0 90 60 130 130 130h40l10 -10v-10l-10 -10h-40c-60 0 -100 -30 -100 -100v-120
c0 -50 -10 -80 -40 -90z" />
    <glyph glyph-name="bar.ss04" horiz-adv-x="270" 
d="M150 10l-10 -10h-10l-10 10v680l10 10h10l10 -10v-680z" />
    <glyph glyph-name="braceright.ss04" horiz-adv-x="420" 
d="M270 350v10c-30 10 -40 40 -40 90v120c0 70 -40 100 -100 100h-40l-10 10v10l10 10h40c70 0 130 -40 130 -130v-120c0 -60 20 -80 70 -80l10 -10v-10l-10 -10c-50 0 -70 -20 -70 -80v-130c0 -90 -60 -130 -130 -130h-40l-10 10v10l10 10h40c60 0 100 30 100 100v130
c0 50 10 80 40 90z" />
    <glyph glyph-name="slash.ss05" horiz-adv-x="750" 
d="M710 620l-610 -610l-20 -10h-30l-10 10v70l610 610l20 10h30l10 -10v-70z" />
    <glyph glyph-name="backslash.ss05" horiz-adv-x="750" 
d="M650 10l-610 610v70l10 10h30l20 -10l610 -610v-70l-10 -10h-30z" />
    <glyph glyph-name="slash.ss06" horiz-adv-x="780" 
d="M740 680l-670 -670l-20 -10h-10v20l670 670l20 10h10v-20z" />
    <glyph glyph-name="backslash.ss06" horiz-adv-x="780" 
d="M710 10l-670 670v20h10l20 -10l670 -670v-20h-10z" />
    <glyph glyph-name="emdash.ss07" horiz-adv-x="1620" 
d="M1560 220l-10 -10h-1480l-10 10v70l10 10h1480l10 -10v-70z" />
    <glyph glyph-name="emdash.ss08" horiz-adv-x="1620" 
d="M1560 250l-10 -10h-1480l-10 10v10l10 10h1480l10 -10v-10z" />
    <glyph glyph-name="ampersand.ss09" horiz-adv-x="680" 
d="M320 80c110 0 140 70 140 130v210l10 10h140l10 -10v-70l-10 -10h-40l-10 -10v-120c0 -110 -70 -220 -240 -220s-240 110 -240 220s60 160 110 170v10c-50 20 -90 70 -90 140c0 110 80 180 210 180s210 -70 210 -180l-10 -10h-80l-10 10c0 60 -40 90 -110 90
s-110 -30 -110 -90s40 -100 110 -100h40l10 -10v-70l-10 -10h-30c-100 0 -140 -50 -140 -130c0 -60 30 -130 140 -130z" />
    <glyph glyph-name="one.ss10" horiz-adv-x="320" 
d="M240 10l-10 -10h-80l-10 10v520l-10 10h-80l-10 10v50l90 90l20 10h80l10 -10v-680z" />
    <glyph glyph-name="commaaccent" horiz-adv-x="250" 
d="M170 -130l-10 -30l-50 -50l-20 -10h-20v10l40 60v10l-10 10h-20l-10 10v70l10 10h80l10 -10v-80z" />
    <glyph glyph-name="orn001" horiz-adv-x="660" 
d="M580 -190l-10 -10h-480l-10 10v880l10 10h480l10 -10v-880zM170 600v-700l10 -10h300l10 10v700l-10 10h-300z" />
    <glyph glyph-name="orn002" horiz-adv-x="660" 
d="M580 -190l-10 -10h-480l-10 10v880l10 10h480l10 -10v-880z" />
    <glyph glyph-name="orn003" horiz-adv-x="660" 
d="M580 10l-10 -10h-480l-10 10v680l10 10h480l10 -10v-680zM170 600v-500l10 -10h300l10 10v500l-10 10h-300z" />
    <glyph glyph-name="orn004" horiz-adv-x="660" 
d="M580 10l-10 -10h-480l-10 10v680l10 10h480l10 -10v-680z" />
    <glyph glyph-name="orn005" horiz-adv-x="660" 
d="M580 10l-10 -10h-480l-10 10v480l10 10h480l10 -10v-480zM170 400v-300l10 -10h300l10 10v300l-10 10h-300z" />
    <glyph glyph-name="orn006" horiz-adv-x="660" 
d="M580 10l-10 -10h-480l-10 10v480l10 10h480l10 -10v-480z" />
    <glyph glyph-name="orn007" horiz-adv-x="660" 
d="M580 -190l-10 -10h-480l-10 10v880l10 10h480l10 -10v-880zM110 660v-820l10 -10h420l10 10v820l-10 10h-420z" />
    <glyph glyph-name="orn008" horiz-adv-x="660" 
d="M580 10l-10 -10h-480l-10 10v680l10 10h480l10 -10v-680zM110 660v-620l10 -10h420l10 10v620l-10 10h-420z" />
    <glyph glyph-name="orn009" horiz-adv-x="660" 
d="M580 10l-10 -10h-480l-10 10v480l10 10h480l10 -10v-480zM110 460v-420l10 -10h420l10 10v420l-10 10h-420z" />
    <glyph glyph-name="orn010" horiz-adv-x="660" 
d="M580 -190l-10 -10h-480l-10 10v880l10 10h480l10 -10v-880zM540 -140h10v780h-10l-190 -380v-20zM120 640h-10v-780h10l190 380v20zM140 670v-10l180 -360h20l180 360v10h-380zM520 -160l-180 360h-20l-180 -360v-10h380v10z" />
    <glyph glyph-name="orn011" horiz-adv-x="660" 
d="M580 10l-10 -10h-480l-10 10v680l10 10h480l10 -10v-680zM360 330l180 -270h10v580h-10l-180 -270v-40zM120 640h-10v-580h10l180 270v40zM340 390l180 270v10h-380v-10l180 -270h20zM140 40v-10h380v10l-180 270h-20z" />
    <glyph glyph-name="orn012" horiz-adv-x="660" 
d="M580 10l-10 -10h-480l-10 10v480l10 10h480l10 -10v-480zM360 240l180 -180h10v380h-10l-180 -180v-20zM120 440h-10v-380h10l180 180v20zM340 280l180 180v10h-380v-10l180 -180h20zM140 40v-10h380v10l-180 180h-20z" />
    <glyph glyph-name="orn013" horiz-adv-x="660" 
d="M80 10l10 -10h-10v10zM100 0l-20 20v10l30 -30h-10zM120 0l-40 40v10l50 -50h-10zM140 0l-60 60v10l70 -70h-10zM160 0l-80 80v10l90 -90h-10zM180 0l-100 100v10l110 -110h-10zM200 0l-120 120v10l130 -130h-10zM220 0l-140 140v10l150 -150h-10zM240 0l-160 160v10
l170 -170h-10zM260 0l-180 180v10l190 -190h-10zM280 0l-200 200v10l210 -210h-10zM300 0l-220 220v10l230 -230h-10zM320 0l-240 240v10l250 -250h-10zM340 0l-260 260v10l270 -270h-10zM360 0l-280 280v10l290 -290h-10zM380 0l-300 300v10l310 -310h-10zM400 0l-320 320
v10l330 -330h-10zM420 0l-340 340v10l350 -350h-10zM440 0l-360 360v10l370 -370h-10zM460 0l-380 380v10l390 -390h-10zM480 0l-400 400v10l410 -410h-10zM500 0l-420 420v10l430 -430h-10zM520 0l-440 440v10l450 -450h-10zM540 0l-460 460v10l470 -470h-10zM560 0
l-480 480v10l490 -490h-10zM580 0l-500 500v10l500 -500v-10zM580 20l-500 500v10l500 -500v-10zM580 40l-500 500v10l500 -500v-10zM580 60l-500 500v10l500 -500v-10zM580 80l-500 500v10l500 -500v-10zM580 100l-500 500v10l500 -500v-10zM580 120l-500 500v10l500 -500
v-10zM580 140l-500 500v10l500 -500v-10zM580 160l-500 500v10l500 -500v-10zM580 180l-500 500v10l500 -500v-10zM580 200l-500 500h10l490 -490v-10zM570 700l10 -10v-10l-20 20h10zM550 700l30 -30v-10l-40 40h10zM530 700l50 -50v-10l-60 60h10zM510 700l70 -70v-10
l-80 80h10zM490 700l90 -90v-10l-100 100h10zM470 700l110 -110v-10l-120 120h10zM450 700l130 -130v-10l-140 140h10zM430 700l150 -150v-10l-160 160h10zM410 700l170 -170v-10l-180 180h10zM390 700l190 -190v-10l-200 200h10zM370 700l210 -210v-10l-220 220h10z
M350 700l230 -230v-10l-240 240h10zM330 700l250 -250v-10l-260 260h10zM310 700l270 -270v-10l-280 280h10zM290 700l290 -290v-10l-300 300h10zM270 700l310 -310v-10l-320 320h10zM250 700l330 -330v-10l-340 340h10zM230 700l350 -350v-10l-360 360h10zM210 700
l370 -370v-10l-380 380h10zM190 700l390 -390v-10l-400 400h10zM170 700l410 -410v-10l-420 420h10zM150 700l430 -430v-10l-440 440h10zM130 700l450 -450v-10l-460 460h10zM110 700l470 -470v-10l-480 480h10z" />
    <glyph glyph-name="orn014" horiz-adv-x="660" 
d="M580 690l-10 10h10v-10zM560 700l20 -20v-10l-30 30h10zM540 700l40 -40v-10l-50 50h10zM520 700l60 -60v-10l-70 70h10zM500 700l80 -80v-10l-90 90h10zM480 700l100 -100v-10l-110 110h10zM460 700l120 -120v-10l-130 130h10zM440 700l140 -140v-10l-150 150h10z
M420 700l160 -160v-10l-170 170h10zM400 700l180 -180v-10l-190 190h10zM380 700l200 -200v-10l-210 210h10zM360 700l220 -220v-10l-230 230h10zM340 700l240 -240v-10l-250 250h10zM320 700l260 -260v-10l-270 270h10zM300 700l280 -280v-10l-290 290h10zM280 700
l300 -300v-10l-310 310h10zM260 700l320 -320v-10l-330 330h10zM240 700l340 -340v-10l-350 350h10zM220 700l360 -360v-10l-370 370h10zM200 700l380 -380v-10l-390 390h10zM180 700l400 -400v-10l-410 410h10zM160 700l420 -420v-10l-430 430h10zM140 700l440 -440v-10
l-450 450h10zM120 700l460 -460v-10l-470 470h10zM100 700l480 -480v-10l-490 490h10zM80 700l500 -500v-10l-500 500v10zM80 680l500 -500v-10l-500 500v10zM80 660l500 -500v-10l-500 500v10zM80 640l500 -500v-10l-500 500v10zM80 620l500 -500v-10l-500 500v10zM80 600
l500 -500v-10l-500 500v10zM80 580l500 -500v-10l-500 500v10zM80 560l500 -500v-10l-500 500v10zM80 540l500 -500v-10l-500 500v10zM80 520l500 -500v-10l-500 500v10zM80 500l500 -500h-10l-490 490v10zM90 0l-10 10v10l20 -20h-10zM110 0l-30 30v10l40 -40h-10zM130 0
l-50 50v10l60 -60h-10zM150 0l-70 70v10l80 -80h-10zM170 0l-90 90v10l100 -100h-10zM190 0l-110 110v10l120 -120h-10zM210 0l-130 130v10l140 -140h-10zM230 0l-150 150v10l160 -160h-10zM250 0l-170 170v10l180 -180h-10zM270 0l-190 190v10l200 -200h-10zM290 0
l-210 210v10l220 -220h-10zM310 0l-230 230v10l240 -240h-10zM330 0l-250 250v10l260 -260h-10zM350 0l-270 270v10l280 -280h-10zM370 0l-290 290v10l300 -300h-10zM390 0l-310 310v10l320 -320h-10zM410 0l-330 330v10l340 -340h-10zM430 0l-350 350v10l360 -360h-10z
M450 0l-370 370v10l380 -380h-10zM470 0l-390 390v10l400 -400h-10zM490 0l-410 410v10l420 -420h-10zM510 0l-430 430v10l440 -440h-10zM530 0l-450 450v10l460 -460h-10zM550 0l-470 470v10l480 -480h-10z" />
    <glyph glyph-name="orn015" horiz-adv-x="660" 
d="M570 0l10 10v-10h-10zM580 20l-20 -20h-10l30 30v-10zM580 40l-40 -40h-10l50 50v-10zM580 60l-60 -60h-10l70 70v-10zM580 80l-80 -80h-10l90 90v-10zM580 100l-100 -100h-10l110 110v-10zM580 120l-120 -120h-10l130 130v-10zM580 140l-140 -140h-10l150 150v-10z
M580 160l-160 -160h-10l170 170v-10zM580 180l-180 -180h-10l190 190v-10zM580 200l-200 -200h-10l210 210v-10zM580 220l-220 -220h-10l230 230v-10zM580 240l-240 -240h-10l250 250v-10zM580 260l-260 -260h-10l270 270v-10zM580 280l-280 -280h-10l290 290v-10zM580 300
l-300 -300h-10l310 310v-10zM580 320l-320 -320h-10l330 330v-10zM580 340l-340 -340h-10l350 350v-10zM580 360l-360 -360h-10l370 370v-10zM580 380l-380 -380h-10l390 390v-10zM580 400l-400 -400h-10l410 410v-10zM580 420l-420 -420h-10l430 430v-10zM580 440
l-440 -440h-10l450 450v-10zM580 460l-460 -460h-10l470 470v-10zM580 480l-480 -480h-10l490 490v-10zM580 500l-500 -500v10l500 500v-10zM580 520l-500 -500v10l500 500v-10zM580 540l-500 -500v10l500 500v-10zM580 560l-500 -500v10l500 500v-10zM580 580l-500 -500v10
l500 500v-10zM580 600l-500 -500v10l500 500v-10zM580 620l-500 -500v10l500 500v-10zM580 640l-500 -500v10l500 500v-10zM580 660l-500 -500v10l500 500v-10zM580 680l-500 -500v10l500 500v-10zM580 700l-500 -500v10l490 490h10zM80 690l10 10h10l-20 -20v10zM80 670
l30 30h10l-40 -40v10zM80 650l50 50h10l-60 -60v10zM80 630l70 70h10l-80 -80v10zM80 610l90 90h10l-100 -100v10zM80 590l110 110h10l-120 -120v10zM80 570l130 130h10l-140 -140v10zM80 550l150 150h10l-160 -160v10zM80 530l170 170h10l-180 -180v10zM80 510l190 190h10
l-200 -200v10zM80 490l210 210h10l-220 -220v10zM80 470l230 230h10l-240 -240v10zM80 450l250 250h10l-260 -260v10zM80 430l270 270h10l-280 -280v10zM80 410l290 290h10l-300 -300v10zM80 390l310 310h10l-320 -320v10zM80 370l330 330h10l-340 -340v10zM80 350l350 350
h10l-360 -360v10zM80 330l370 370h10l-380 -380v10zM80 310l390 390h10l-400 -400v10zM80 290l410 410h10l-420 -420v10zM80 270l430 430h10l-440 -440v10zM80 250l450 450h10l-460 -460v10zM80 230l470 470h10l-480 -480v10z" />
    <glyph glyph-name="orn016" horiz-adv-x="660" 
d="M90 700l-10 -10v10h10zM80 680l20 20h10l-30 -30v10zM80 660l40 40h10l-50 -50v10zM80 640l60 60h10l-70 -70v10zM80 620l80 80h10l-90 -90v10zM80 600l100 100h10l-110 -110v10zM80 580l120 120h10l-130 -130v10zM80 560l140 140h10l-150 -150v10zM80 540l160 160h10
l-170 -170v10zM80 520l180 180h10l-190 -190v10zM80 500l200 200h10l-210 -210v10zM80 480l220 220h10l-230 -230v10zM80 460l240 240h10l-250 -250v10zM80 440l260 260h10l-270 -270v10zM80 420l280 280h10l-290 -290v10zM80 400l300 300h10l-310 -310v10zM80 380l320 320
h10l-330 -330v10zM80 360l340 340h10l-350 -350v10zM80 340l360 360h10l-370 -370v10zM80 320l380 380h10l-390 -390v10zM80 300l400 400h10l-410 -410v10zM80 280l420 420h10l-430 -430v10zM80 260l440 440h10l-450 -450v10zM80 240l460 460h10l-470 -470v10zM80 220
l480 480h10l-490 -490v10zM80 200l500 500v-10l-500 -500v10zM80 180l500 500v-10l-500 -500v10zM80 160l500 500v-10l-500 -500v10zM80 140l500 500v-10l-500 -500v10zM80 120l500 500v-10l-500 -500v10zM80 100l500 500v-10l-500 -500v10zM80 80l500 500v-10l-500 -500v10
zM80 60l500 500v-10l-500 -500v10zM80 40l500 500v-10l-500 -500v10zM80 20l500 500v-10l-500 -500v10zM80 0l500 500v-10l-490 -490h-10zM580 10l-10 -10h-10l20 20v-10zM580 30l-30 -30h-10l40 40v-10zM580 50l-50 -50h-10l60 60v-10zM580 70l-70 -70h-10l80 80v-10z
M580 90l-90 -90h-10l100 100v-10zM580 110l-110 -110h-10l120 120v-10zM580 130l-130 -130h-10l140 140v-10zM580 150l-150 -150h-10l160 160v-10zM580 170l-170 -170h-10l180 180v-10zM580 190l-190 -190h-10l200 200v-10zM580 210l-210 -210h-10l220 220v-10zM580 230
l-230 -230h-10l240 240v-10zM580 250l-250 -250h-10l260 260v-10zM580 270l-270 -270h-10l280 280v-10zM580 290l-290 -290h-10l300 300v-10zM580 310l-310 -310h-10l320 320v-10zM580 330l-330 -330h-10l340 340v-10zM580 350l-350 -350h-10l360 360v-10zM580 370
l-370 -370h-10l380 380v-10zM580 390l-390 -390h-10l400 400v-10zM580 410l-410 -410h-10l420 420v-10zM580 430l-430 -430h-10l440 440v-10zM580 450l-450 -450h-10l460 460v-10zM580 470l-470 -470h-10l480 480v-10z" />
    <glyph glyph-name="uni00AD.case" horiz-adv-x="410" 
d="M350 315l-10 -10h-270l-10 10v70l10 10h270l10 -10v-70z" />
    </font>
</defs>
</svg>
